  0
SECTION
  2
HEADER
  9
$ACADVER
  1
AC1014
  9
$HANDSEED
  5
FFFF
  9
$MEASUREMENT
 70
     1
  0
ENDSEC
  0
SECTION
  2
TABLES
  0
TABLE
  2
VPORT
  5
8
330
0
100
AcDbSymbolTable
 70
     4
  0
VPORT
  5
2E
330
8
100
AcDbSymbolTableRecord
100
AcDbViewportTableRecord
  2
*ACTIVE
 70
     0
 10
0.0
 20
0.0
 11
1.0
 21
1.0
 12
210.0
 22
148.5
 13
0.0
 23
0.0
 14
10.0
 24
10.0
 15
10.0
 25
10.0
 16
0.0
 26
0.0
 36
1.0
 17
0.0
 27
0.0
 37
0.0
 40
341.0
 41
1.24
 42
50.0
 43
0.0
 44
0.0
 50
0.0
 51
0.0
 71
     0
 72
   100
 73
     1
 74
     3
 75
     0
 76
     0
 77
     0
 78
     0
  0
ENDTAB
  0
TABLE
  2
LTYPE
  5
5
330
0
100
AcDbSymbolTable
 70
     1
  0
LTYPE
  5
14
330
5
100
AcDbSymbolTableRecord
100
AcDbLinetypeTableRecord
  2
BYBLOCK
 70
     0
  3

 72
    65
 73
     0
 40
0.0
  0
LTYPE
  5
15
330
5
100
AcDbSymbolTableRecord
100
AcDbLinetypeTableRecord
  2
BYLAYER
 70
     0
  3

 72
    65
 73
     0
 40
0.0
  0
LTYPE
  5
16
330
5
100
AcDbSymbolTableRecord
100
AcDbLinetypeTableRecord
  2
CONTINUOUS
 70
     0
  3
Solid line
 72
    65
 73
     0
 40
0.0
  0
ENDTAB
  0
TABLE
  2
LAYER
  5
2
100
AcDbSymbolTable
 70
2
  0
LAYER
  5
50
100
AcDbSymbolTableRecord
100
AcDbLayerTableRecord
  2
0
 70
0
  6
CONTINUOUS
  0
LAYER
  5
51
100
AcDbSymbolTableRecord
100
AcDbLayerTableRecord
  2
Calque_1
 70
0
  6
CONTINUOUS
  0
ENDTAB
  0
TABLE
  2
STYLE
  5
3
330
0
100
AcDbSymbolTable
 70
     1
  0
STYLE
  5
11
330
3
100
AcDbSymbolTableRecord
100
AcDbTextStyleTableRecord
  2
STANDARD
 70
     0
 40
0.0
 41
1.0
 50
0.0
 71
     0
 42
2.5
  3
txt
  4

  0
ENDTAB
  0
TABLE
  2
VIEW
  5
6
330
0
100
AcDbSymbolTable
 70
     0
  0
ENDTAB
  0
TABLE
  2
UCS
  5
7
330
0
100
AcDbSymbolTable
 70
     0
  0
ENDTAB
  0
TABLE
  2
APPID
  5
9
330
0
100
AcDbSymbolTable
 70
     2
  0
APPID
  5
12
330
9
100
AcDbSymbolTableRecord
100
AcDbRegAppTableRecord
  2
ACAD
 70
     0
  0
ENDTAB
  0
TABLE
  2
DIMSTYLE
  5
A
330
0
100
AcDbSymbolTable
 70
     1
  0
DIMSTYLE
105
27
330
A
100
AcDbSymbolTableRecord
100
AcDbDimStyleTableRecord
  2
ISO-25
 70
     0
  3

  4

  5

  6

  7

 40
1.0
 41
2.5
 42
0.625
 43
3.75
 44
1.25
 45
0.0
 46
0.0
 47
0.0
 48
0.0
140
2.5
141
2.5
142
0.0
143
0.03937007874016
144
1.0
145
0.0
146
1.0
147
0.625
 71
     0
 72
     0
 73
     0
 74
     0
 75
     0
 76
     0
 77
     1
 78
     8
170
     0
171
     3
172
     1
173
     0
174
     0
175
     0
176
     0
177
     0
178
     0
270
     2
271
     2
272
     2
273
     2
274
     3
340
11
275
     0
280
     0
281
     0
282
     0
283
     0
284
     8
285
     0
286
     0
287
     3
288
     0
  0
ENDTAB
  0
TABLE
  2
BLOCK_RECORD
  5
1
330
0
100
AcDbSymbolTable
 70
     1
  0
BLOCK_RECORD
  5
1F
330
1
100
AcDbSymbolTableRecord
100
AcDbBlockTableRecord
  2
*MODEL_SPACE
  0
BLOCK_RECORD
  5
1B
330
1
100
AcDbSymbolTableRecord
100
AcDbBlockTableRecord
  2
*PAPER_SPACE
  0
ENDTAB
  0
ENDSEC
  0
SECTION
  2
BLOCKS
  0
BLOCK
  5
20
330
1F
100
AcDbEntity
  8
0
100
AcDbBlockBegin
  2
*MODEL_SPACE
 70
     0
 10
0.0
 20
0.0
 30
0.0
  3
*MODEL_SPACE
  1

  0
ENDBLK
  5
21
330
1F
100
AcDbEntity
  8
0
100
AcDbBlockEnd
  0
BLOCK
  5
1C
330
1B
100
AcDbEntity
 67
     1
  8
0
100
AcDbBlockBegin
  2
*PAPER_SPACE
  1

  0
ENDBLK
  5
1D
330
1B
100
AcDbEntity
 67
     1
  8
0
100
AcDbBlockEnd
  0
ENDSEC
  0
SECTION
  2
ENTITIES
  0
LWPOLYLINE
  5
100
100
AcDbEntity
  8
Calque_1
 62
7
100
AcDbPolyline
 90
333
 70
1
 10
1.448086
 20
52.029680
 30
0.0
 10
1.458528
 20
51.029905
 30
0.0
 10
1.489855
 20
50.030565
 30
0.0
 10
1.542348
 20
49.032113
 30
0.0
 10
1.615444
 20
48.034966
 30
0.0
 10
1.709706
 20
47.039568
 30
0.0
 10
1.824571
 20
46.046372
 30
0.0
 10
1.960320
 20
45.055772
 30
0.0
 10
2.116671
 20
44.068251
 30
0.0
 10
2.293624
 20
43.084226
 30
0.0
 10
2.491180
 20
42.104125
 30
0.0
 10
2.709337
 20
41.128370
 30
0.0
 10
2.947815
 20
40.157413
 30
0.0
 10
3.206613
 20
39.191648
 30
0.0
 10
3.485731
 20
38.231500
 30
0.0
 10
3.784604
 20
37.277420
 30
0.0
 10
4.103515
 20
36.329830
 30
0.0
 10
4.442182
 20
35.389099
 30
0.0
 10
4.800604
 20
34.455677
 30
0.0
 10
5.178217
 20
33.529960
 30
0.0
 10
5.575304
 20
32.612371
 30
0.0
 10
5.991582
 20
31.703277
 30
0.0
 10
6.426768
 20
30.803101
 30
0.0
 10
6.880582
 20
29.912266
 30
0.0
 10
7.353022
 20
29.031112
 30
0.0
 10
7.843806
 20
28.160033
 30
0.0
 10
8.352935
 20
27.299453
 30
0.0
 10
8.879844
 20
26.449682
 30
0.0
 10
9.424251
 20
25.611171
 30
0.0
 10
9.986437
 20
24.784232
 30
0.0
 10
10.565557
 20
23.969231
 30
0.0
 10
11.161611
 20
23.166534
 30
0.0
 10
11.774315
 20
22.376594
 30
0.0
 10
12.403671
 20
21.599636
 30
0.0
 10
13.049113
 20
20.835943
 30
0.0
 10
13.710077
 20
20.085796
 30
0.0
 10
14.386846
 20
19.349761
 30
0.0
 10
15.078855
 20
18.628119
 30
0.0
 10
15.785822
 20
17.921152
 30
0.0
 10
16.507464
 20
17.229143
 30
0.0
 10
17.243500
 20
16.552374
 30
0.0
 10
17.993646
 20
15.891410
 30
0.0
 10
18.757340
 20
15.245968
 30
0.0
 10
19.534297
 20
14.616601
 30
0.0
 10
20.324237
 20
14.003896
 30
0.0
 10
21.126934
 20
13.407843
 30
0.0
 10
21.941935
 20
12.828723
 30
0.0
 10
22.768874
 20
12.266536
 30
0.0
 10
23.607385
 20
11.722130
 30
0.0
 10
24.457156
 20
11.195221
 30
0.0
 10
25.317736
 20
10.686092
 30
0.0
 10
26.188815
 20
10.195307
 30
0.0
 10
27.069969
 20
9.722867
 30
0.0
 10
27.960804
 20
9.269054
 30
0.0
 10
28.860979
 20
8.833867
 30
0.0
 10
29.770073
 20
8.417590
 30
0.0
 10
30.687662
 20
8.020503
 30
0.0
 10
31.613379
 20
7.642890
 30
0.0
 10
32.546801
 20
7.284467
 30
0.0
 10
33.487532
 20
6.945801
 30
0.0
 10
34.435121
 20
6.626890
 30
0.0
 10
35.389202
 20
6.328016
 30
0.0
 10
36.349350
 20
6.048898
 30
0.0
 10
37.315115
 20
5.790101
 30
0.0
 10
37.330072
 20
5.786432
 30
0.0
 10
37.329508
 20
5.770910
 30
0.0
 10
37.323948
 20
5.664794
 30
0.0
 10
37.316159
 20
5.558678
 30
0.0
 10
37.306140
 20
5.452845
 30
0.0
 10
37.293920
 20
5.347012
 30
0.0
 10
37.279470
 20
5.241743
 30
0.0
 10
37.262819
 20
5.136474
 30
0.0
 10
37.243995
 20
5.031770
 30
0.0
 10
37.222969
 20
4.927630
 30
0.0
 10
37.199742
 20
4.823772
 30
0.0
 10
37.174370
 20
4.720478
 30
0.0
 10
37.146825
 20
4.617467
 30
0.0
 10
37.117164
 20
4.515303
 30
0.0
 10
37.085329
 20
4.413985
 30
0.0
 10
37.051406
 20
4.312950
 30
0.0
 10
37.015366
 20
4.213043
 30
0.0
 10
36.977238
 20
4.113701
 30
0.0
 10
36.937021
 20
4.015205
 30
0.0
 10
36.894773
 20
3.917556
 30
0.0
 10
36.850492
 20
3.820754
 30
0.0
 10
36.804179
 20
3.725081
 30
0.0
 10
36.755891
 20
3.630254
 30
0.0
 10
36.705599
 20
3.536274
 30
0.0
 10
36.653388
 20
3.443705
 30
0.0
 10
36.653388
 20
3.443705
 30
0.0
 10
61.721213
 20
3.443705
 30
0.0
 10
61.721213
 20
3.443705
 30
0.0
 10
61.669001
 20
3.536274
 30
0.0
 10
61.618709
 20
3.630254
 30
0.0
 10
61.570421
 20
3.725081
 30
0.0
 10
61.524109
 20
3.820754
 30
0.0
 10
61.479828
 20
3.917556
 30
0.0
 10
61.437579
 20
4.015205
 30
0.0
 10
61.397363
 20
4.113701
 30
0.0
 10
61.359234
 20
4.213043
 30
0.0
 10
61.323195
 20
4.312950
 30
0.0
 10
61.289271
 20
4.413985
 30
0.0
 10
61.257437
 20
4.515303
 30
0.0
 10
61.227775
 20
4.617467
 30
0.0
 10
61.200230
 20
4.720478
 30
0.0
 10
61.174859
 20
4.823772
 30
0.0
 10
61.151632
 20
4.927630
 30
0.0
 10
61.130606
 20
5.031770
 30
0.0
 10
61.111782
 20
5.136474
 30
0.0
 10
61.095131
 20
5.241743
 30
0.0
 10
61.080681
 20
5.347012
 30
0.0
 10
61.068461
 20
5.452845
 30
0.0
 10
61.058442
 20
5.558678
 30
0.0
 10
61.050653
 20
5.664794
 30
0.0
 10
61.045093
 20
5.770910
 30
0.0
 10
61.044528
 20
5.786432
 30
0.0
 10
61.059486
 20
5.790101
 30
0.0
 10
62.025251
 20
6.048898
 30
0.0
 10
62.985399
 20
6.328016
 30
0.0
 10
63.939479
 20
6.626890
 30
0.0
 10
64.887069
 20
6.945801
 30
0.0
 10
65.827800
 20
7.284467
 30
0.0
 10
66.761222
 20
7.642890
 30
0.0
 10
67.686939
 20
8.020503
 30
0.0
 10
68.604528
 20
8.417590
 30
0.0
 10
69.513622
 20
8.833867
 30
0.0
 10
70.413798
 20
9.269054
 30
0.0
 10
71.304633
 20
9.722867
 30
0.0
 10
72.185787
 20
10.195307
 30
0.0
 10
73.056866
 20
10.686092
 30
0.0
 10
73.917446
 20
11.195221
 30
0.0
 10
74.767217
 20
11.722130
 30
0.0
 10
75.605727
 20
12.266536
 30
0.0
 10
76.432667
 20
12.828723
 30
0.0
 10
77.247668
 20
13.407843
 30
0.0
 10
78.050365
 20
14.003896
 30
0.0
 10
78.840305
 20
14.616601
 30
0.0
 10
79.617262
 20
15.245968
 30
0.0
 10
80.380956
 20
15.891410
 30
0.0
 10
81.131102
 20
16.552374
 30
0.0
 10
81.867138
 20
17.229143
 30
0.0
 10
82.588780
 20
17.921152
 30
0.0
 10
83.295747
 20
18.628119
 30
0.0
 10
83.987756
 20
19.349761
 30
0.0
 10
84.664525
 20
20.085796
 30
0.0
 10
85.325489
 20
20.835943
 30
0.0
 10
85.970931
 20
21.599636
 30
0.0
 10
86.600287
 20
22.376594
 30
0.0
 10
87.212991
 20
23.166534
 30
0.0
 10
87.809045
 20
23.969231
 30
0.0
 10
88.388165
 20
24.784232
 30
0.0
 10
88.950351
 20
25.611171
 30
0.0
 10
89.494758
 20
26.449682
 30
0.0
 10
90.021667
 20
27.299453
 30
0.0
 10
90.530796
 20
28.160033
 30
0.0
 10
91.021580
 20
29.031112
 30
0.0
 10
91.494020
 20
29.912266
 30
0.0
 10
91.947833
 20
30.803101
 30
0.0
 10
92.383020
 20
31.703277
 30
0.0
 10
92.799298
 20
32.612371
 30
0.0
 10
93.196385
 20
33.529960
 30
0.0
 10
93.573998
 20
34.455677
 30
0.0
 10
93.932420
 20
35.389099
 30
0.0
 10
94.271087
 20
36.329830
 30
0.0
 10
94.589998
 20
37.277420
 30
0.0
 10
94.888871
 20
38.231500
 30
0.0
 10
95.167989
 20
39.191648
 30
0.0
 10
95.426787
 20
40.157413
 30
0.0
 10
95.665265
 20
41.128370
 30
0.0
 10
95.883422
 20
42.104125
 30
0.0
 10
96.080978
 20
43.084226
 30
0.0
 10
96.257931
 20
44.068251
 30
0.0
 10
96.414282
 20
45.055772
 30
0.0
 10
96.550031
 20
46.046372
 30
0.0
 10
96.664896
 20
47.039568
 30
0.0
 10
96.759158
 20
48.034966
 30
0.0
 10
96.832253
 20
49.032113
 30
0.0
 10
96.884747
 20
50.030565
 30
0.0
 10
96.916073
 20
51.029905
 30
0.0
 10
96.926516
 20
52.029680
 30
0.0
 10
96.916073
 20
53.029455
 30
0.0
 10
96.884747
 20
54.028796
 30
0.0
 10
96.832253
 20
55.027247
 30
0.0
 10
96.759158
 20
56.024395
 30
0.0
 10
96.664896
 20
57.019792
 30
0.0
 10
96.550031
 20
58.012989
 30
0.0
 10
96.414282
 20
59.003589
 30
0.0
 10
96.257931
 20
59.991113
 30
0.0
 10
96.080978
 20
60.975137
 30
0.0
 10
95.883422
 20
61.955238
 30
0.0
 10
95.665265
 20
62.930993
 30
0.0
 10
95.426787
 20
63.901951
 30
0.0
 10
95.167989
 20
64.867715
 30
0.0
 10
94.888871
 20
65.827863
 30
0.0
 10
94.589998
 20
66.781944
 30
0.0
 10
94.271087
 20
67.729533
 30
0.0
 10
93.932420
 20
68.670264
 30
0.0
 10
93.573998
 20
69.603686
 30
0.0
 10
93.196385
 20
70.529403
 30
0.0
 10
92.799298
 20
71.446992
 30
0.0
 10
92.383020
 20
72.356087
 30
0.0
 10
91.947833
 20
73.256263
 30
0.0
 10
91.494020
 20
74.147097
 30
0.0
 10
91.021580
 20
75.028251
 30
0.0
 10
90.530796
 20
75.899330
 30
0.0
 10
90.021667
 20
76.759910
 30
0.0
 10
89.494758
 20
77.609682
 30
0.0
 10
88.950351
 20
78.448192
 30
0.0
 10
88.388165
 20
79.275131
 30
0.0
 10
87.809045
 20
80.090133
 30
0.0
 10
87.212991
 20
80.892829
 30
0.0
 10
86.600287
 20
81.682769
 30
0.0
 10
85.970931
 20
82.459727
 30
0.0
 10
85.325489
 20
83.223420
 30
0.0
 10
84.664525
 20
83.973567
 30
0.0
 10
83.987756
 20
84.709602
 30
0.0
 10
83.295747
 20
85.431245
 30
0.0
 10
82.588780
 20
86.138211
 30
0.0
 10
81.867138
 20
86.830220
 30
0.0
 10
81.131102
 20
87.506989
 30
0.0
 10
80.380956
 20
88.167954
 30
0.0
 10
79.617262
 20
88.813396
 30
0.0
 10
78.840305
 20
89.442751
 30
0.0
 10
78.050365
 20
90.055456
 30
0.0
 10
77.247668
 20
90.651509
 30
0.0
 10
76.432667
 20
91.230629
 30
0.0
 10
75.605727
 20
91.792816
 30
0.0
 10
74.767217
 20
92.337222
 30
0.0
 10
73.917446
 20
92.864131
 30
0.0
 10
73.056866
 20
93.373260
 30
0.0
 10
72.185787
 20
93.864045
 30
0.0
 10
71.304633
 20
94.336485
 30
0.0
 10
70.413798
 20
94.790298
 30
0.0
 10
69.513622
 20
95.225485
 30
0.0
 10
68.604528
 20
95.641762
 30
0.0
 10
67.686939
 20
96.038849
 30
0.0
 10
66.761222
 20
96.416462
 30
0.0
 10
65.827800
 20
96.774885
 30
0.0
 10
64.887069
 20
97.113551
 30
0.0
 10
63.939479
 20
97.432462
 30
0.0
 10
62.985399
 20
97.731336
 30
0.0
 10
62.025251
 20
98.010454
 30
0.0
 10
61.059486
 20
98.269251
 30
0.0
 10
60.088529
 20
98.507729
 30
0.0
 10
59.112774
 20
98.725887
 30
0.0
 10
58.132672
 20
98.923442
 30
0.0
 10
57.148648
 20
99.100396
 30
0.0
 10
56.161124
 20
99.256747
 30
0.0
 10
55.170524
 20
99.392496
 30
0.0
 10
54.177328
 20
99.507360
 30
0.0
 10
53.181930
 20
99.601622
 30
0.0
 10
52.184952
 20
99.674718
 30
0.0
 10
51.186501
 20
99.727211
 30
0.0
 10
50.187160
 20
99.758538
 30
0.0
 10
49.187385
 20
99.768980
 30
0.0
 10
48.187610
 20
99.758538
 30
0.0
 10
47.188270
 20
99.727211
 30
0.0
 10
46.189818
 20
99.674718
 30
0.0
 10
45.192671
 20
99.601622
 30
0.0
 10
44.197273
 20
99.507360
 30
0.0
 10
43.204076
 20
99.392496
 30
0.0
 10
42.213476
 20
99.256747
 30
0.0
 10
41.225953
 20
99.100396
 30
0.0
 10
40.241928
 20
98.923442
 30
0.0
 10
39.261827
 20
98.725887
 30
0.0
 10
38.286072
 20
98.507729
 30
0.0
 10
37.315115
 20
98.269251
 30
0.0
 10
36.349350
 20
98.010454
 30
0.0
 10
35.389202
 20
97.731336
 30
0.0
 10
34.435121
 20
97.432462
 30
0.0
 10
33.487532
 20
97.113551
 30
0.0
 10
32.546801
 20
96.774885
 30
0.0
 10
31.613379
 20
96.416462
 30
0.0
 10
30.687662
 20
96.038849
 30
0.0
 10
29.770073
 20
95.641762
 30
0.0
 10
28.860979
 20
95.225485
 30
0.0
 10
27.960804
 20
94.790298
 30
0.0
 10
27.069969
 20
94.336485
 30
0.0
 10
26.188815
 20
93.864045
 30
0.0
 10
25.317736
 20
93.373260
 30
0.0
 10
24.457156
 20
92.864131
 30
0.0
 10
23.607385
 20
92.337222
 30
0.0
 10
22.768874
 20
91.792816
 30
0.0
 10
21.941935
 20
91.230629
 30
0.0
 10
21.126934
 20
90.651509
 30
0.0
 10
20.324237
 20
90.055456
 30
0.0
 10
19.534297
 20
89.442751
 30
0.0
 10
18.757340
 20
88.813396
 30
0.0
 10
17.993646
 20
88.167954
 30
0.0
 10
17.243500
 20
87.506989
 30
0.0
 10
16.507464
 20
86.830220
 30
0.0
 10
15.785822
 20
86.138211
 30
0.0
 10
15.078855
 20
85.431245
 30
0.0
 10
14.386846
 20
84.709602
 30
0.0
 10
13.710077
 20
83.973567
 30
0.0
 10
13.049113
 20
83.223420
 30
0.0
 10
12.403671
 20
82.459727
 30
0.0
 10
11.774315
 20
81.682769
 30
0.0
 10
11.161611
 20
80.892829
 30
0.0
 10
10.565557
 20
80.090133
 30
0.0
 10
9.986437
 20
79.275131
 30
0.0
 10
9.424251
 20
78.448192
 30
0.0
 10
8.879844
 20
77.609682
 30
0.0
 10
8.352935
 20
76.759910
 30
0.0
 10
7.843806
 20
75.899330
 30
0.0
 10
7.353022
 20
75.028251
 30
0.0
 10
6.880582
 20
74.147097
 30
0.0
 10
6.426768
 20
73.256263
 30
0.0
 10
5.991582
 20
72.356087
 30
0.0
 10
5.575304
 20
71.446992
 30
0.0
 10
5.178217
 20
70.529403
 30
0.0
 10
4.800604
 20
69.603686
 30
0.0
 10
4.442182
 20
68.670264
 30
0.0
 10
4.103515
 20
67.729533
 30
0.0
 10
3.784604
 20
66.781944
 30
0.0
 10
3.485731
 20
65.827863
 30
0.0
 10
3.206613
 20
64.867715
 30
0.0
 10
2.947815
 20
63.901951
 30
0.0
 10
2.709337
 20
62.930993
 30
0.0
 10
2.491180
 20
61.955238
 30
0.0
 10
2.293624
 20
60.975137
 30
0.0
 10
2.116671
 20
59.991113
 30
0.0
 10
1.960320
 20
59.003589
 30
0.0
 10
1.824571
 20
58.012989
 30
0.0
 10
1.709706
 20
57.019792
 30
0.0
 10
1.692491
 20
56.839452
 30
0.0
 10
1.610928
 20
56.659254
 30
0.0
 10
1.672453
 20
56.627560
 30
0.0
 10
1.615444
 20
56.024395
 30
0.0
 10
1.542348
 20
55.027247
 30
0.0
 10
1.489855
 20
54.028796
 30
0.0
 10
1.458528
 20
53.029455
 30
0.0
 10
1.448086
 20
52.029680
 30
0.0
  0
LWPOLYLINE
  5
101
100
AcDbEntity
  8
Calque_1
 62
7
100
AcDbPolyline
 90
1855
 70
1
 10
4.274542
 20
51.634363
 30
0.0
 10
4.315746
 20
51.609584
 30
0.0
 10
4.387713
 20
51.568775
 30
0.0
 10
4.460244
 20
51.529676
 30
0.0
 10
4.533057
 20
51.492298
 30
0.0
 10
4.606153
 20
51.456631
 30
0.0
 10
4.680095
 20
51.422688
 30
0.0
 10
4.754037
 20
51.390455
 30
0.0
 10
4.828826
 20
51.359896
 30
0.0
 10
4.904180
 20
51.330949
 30
0.0
 10
4.980097
 20
51.303630
 30
0.0
 10
5.056580
 20
51.277919
 30
0.0
 10
5.133626
 20
51.253846
 30
0.0
 10
5.211520
 20
51.231381
 30
0.0
 10
5.289977
 20
51.210525
 30
0.0
 10
5.369000
 20
51.191305
 30
0.0
 10
5.448586
 20
51.173695
 30
0.0
 10
5.528737
 20
51.157693
 30
0.0
 10
5.609735
 20
51.143299
 30
0.0
 10
5.691015
 20
51.130543
 30
0.0
 10
5.745766
 20
51.122923
 30
0.0
 10
5.669284
 20
50.028183
 30
0.0
 10
6.434953
 20
49.913321
 30
0.0
 10
6.549817
 20
51.100066
 30
0.0
 10
6.640128
 20
51.104581
 30
0.0
 10
6.729311
 20
51.110903
 30
0.0
 10
6.817928
 20
51.119059
 30
0.0
 10
6.905417
 20
51.129022
 30
0.0
 10
6.991777
 20
51.140790
 30
0.0
 10
7.077573
 20
51.154393
 30
0.0
 10
7.162522
 20
51.169803
 30
0.0
 10
7.246342
 20
51.187018
 30
0.0
 10
7.329315
 20
51.206068
 30
0.0
 10
7.411160
 20
51.226925
 30
0.0
 10
7.492440
 20
51.249587
 30
0.0
 10
7.572591
 20
51.274084
 30
0.0
 10
7.651895
 20
51.300387
 30
0.0
 10
7.730353
 20
51.328412
 30
0.0
 10
7.807682
 20
51.358158
 30
0.0
 10
7.884164
 20
51.389626
 30
0.0
 10
7.959517
 20
51.422809
 30
0.0
 10
8.034024
 20
51.457715
 30
0.0
 10
8.107402
 20
51.494330
 30
0.0
 10
8.179651
 20
51.532667
 30
0.0
 10
8.251053
 20
51.572714
 30
0.0
 10
8.321326
 20
51.614483
 30
0.0
 10
8.390753
 20
51.657968
 30
0.0
 10
8.459051
 20
51.703169
 30
0.0
 10
8.526220
 20
51.750091
 30
0.0
 10
8.548515
 20
51.766121
 30
0.0
 10
8.299595
 20
49.224707
 30
0.0
 10
9.145697
 20
49.247567
 30
0.0
 10
9.145697
 20
48.619902
 30
0.0
 10
8.245126
 20
48.520560
 30
0.0
 10
8.183037
 20
47.862136
 30
0.0
 10
9.168840
 20
47.938618
 30
0.0
 10
9.214560
 20
47.310956
 30
0.0
 10
8.105144
 20
47.173231
 30
0.0
 10
8.050957
 20
46.469087
 30
0.0
 10
9.214560
 20
46.668054
 30
0.0
 10
9.214560
 20
46.063251
 30
0.0
 10
7.988586
 20
45.833805
 30
0.0
 10
7.903073
 20
44.922791
 30
0.0
 10
11.154273
 20
45.708498
 30
0.0
 10
10.456620
 20
58.885736
 30
0.0
 10
9.245040
 20
58.740391
 30
0.0
 10
9.099695
 20
57.439911
 30
0.0
 10
9.002611
 20
57.534061
 30
0.0
 10
8.902986
 20
57.624541
 30
0.0
 10
8.800822
 20
57.711353
 30
0.0
 10
8.695835
 20
57.794524
 30
0.0
 10
8.588308
 20
57.874026
 30
0.0
 10
8.494046
 20
57.939275
 30
0.0
 10
8.397244
 20
58.001844
 30
0.0
 10
8.297902
 20
58.061760
 30
0.0
 10
8.195737
 20
58.119023
 30
0.0
 10
8.091033
 20
58.173633
 30
0.0
 10
7.983506
 20
58.225562
 30
0.0
 10
7.891784
 20
58.266822
 30
0.0
 10
8.319915
 20
59.191947
 30
0.0
 10
7.601377
 20
59.429296
 30
0.0
 10
7.249728
 20
58.481029
 30
0.0
 10
7.103820
 20
58.516279
 30
0.0
 10
6.955371
 20
58.544642
 30
0.0
 10
6.804946
 20
58.566176
 30
0.0
 10
6.613600
 20
58.584294
 30
0.0
 10
6.418584
 20
58.594031
 30
0.0
 10
6.269288
 20
58.595724
 30
0.0
 10
6.131846
 20
58.592733
 30
0.0
 10
5.996662
 20
58.585028
 30
0.0
 10
5.863453
 20
58.572554
 30
0.0
 10
5.732220
 20
58.555310
 30
0.0
 10
5.587157
 20
58.530418
 30
0.0
 10
5.446328
 20
58.500982
 30
0.0
 10
5.309733
 20
58.467257
 30
0.0
 10
5.177371
 20
58.429270
 30
0.0
 10
5.077464
 20
58.396786
 30
0.0
 10
4.821488
 20
59.029641
 30
0.0
 10
4.899382
 20
59.520341
 30
0.0
 10
5.065893
 20
60.446199
 30
0.0
 10
5.251877
 20
61.368360
 30
0.0
 10
5.457053
 20
62.286429
 30
0.0
 10
5.681420
 20
63.199982
 30
0.0
 10
5.924977
 20
64.108653
 30
0.0
 10
6.187444
 20
65.012018
 30
0.0
 10
6.468820
 20
65.909711
 30
0.0
 10
6.768822
 20
66.801307
 30
0.0
 10
7.087451
 20
67.686412
 30
0.0
 10
7.424424
 20
68.564660
 30
0.0
 10
7.780024
 20
69.435626
 30
0.0
 10
8.153686
 20
70.299000
 30
0.0
 10
8.545128
 20
71.154331
 30
0.0
 10
8.954633
 20
72.001280
 30
0.0
 10
9.381635
 20
72.839480
 30
0.0
 10
9.826135
 20
73.668536
 30
0.0
 10
10.288133
 20
74.488109
 30
0.0
 10
10.767064
 20
75.297833
 30
0.0
 10
11.262646
 20
76.097340
 30
0.0
 10
11.774880
 20
76.886292
 30
0.0
 10
12.303764
 20
77.664351
 30
0.0
 10
12.848735
 20
78.431149
 30
0.0
 10
13.409511
 20
79.186404
 30
0.0
 10
13.986091
 20
79.929720
 30
0.0
 10
14.578193
 20
80.660732
 30
0.0
 10
15.185253
 20
81.379270
 30
0.0
 10
15.807553
 20
82.084826
 30
0.0
 10
16.444246
 20
82.777399
 30
0.0
 10
17.095333
 20
83.456426
 30
0.0
 10
17.760531
 20
84.121624
 30
0.0
 10
18.439557
 20
84.772710
 30
0.0
 10
19.132131
 20
85.409404
 30
0.0
 10
19.837686
 20
86.031704
 30
0.0
 10
20.556224
 20
86.638764
 30
0.0
 10
21.287236
 20
87.230866
 30
0.0
 10
22.030553
 20
87.807446
 30
0.0
 10
22.785808
 20
88.368221
 30
0.0
 10
23.552606
 20
88.913192
 30
0.0
 10
24.330664
 20
89.442077
 30
0.0
 10
25.119616
 20
89.954310
 30
0.0
 10
25.919124
 20
90.449892
 30
0.0
 10
26.728847
 20
90.928824
 30
0.0
 10
27.548421
 20
91.390821
 30
0.0
 10
28.377475
 20
91.835321
 30
0.0
 10
29.215675
 20
92.262324
 30
0.0
 10
30.062624
 20
92.671828
 30
0.0
 10
30.917955
 20
93.063270
 30
0.0
 10
31.781329
 20
93.436932
 30
0.0
 10
32.652295
 20
93.792532
 30
0.0
 10
33.530543
 20
94.129506
 30
0.0
 10
34.415648
 20
94.448135
 30
0.0
 10
35.307245
 20
94.748137
 30
0.0
 10
36.204937
 20
95.029512
 30
0.0
 10
37.108302
 20
95.291979
 30
0.0
 10
38.016973
 20
95.535537
 30
0.0
 10
38.930526
 20
95.759904
 30
0.0
 10
39.848595
 20
95.965079
 30
0.0
 10
40.770756
 20
96.151064
 30
0.0
 10
41.696615
 20
96.317575
 30
0.0
 10
42.625775
 20
96.464895
 30
0.0
 10
43.357267
 20
96.565084
 30
0.0
 10
44.273642
 20
85.962841
 30
0.0
 10
45.926335
 20
86.188619
 30
0.0
 10
46.413079
 20
96.860288
 30
0.0
 10
47.306453
 20
96.907137
 30
0.0
 10
48.246713
 20
96.936770
 30
0.0
 10
48.429505
 20
96.938746
 30
0.0
 10
48.427812
 20
96.931126
 30
0.0
 10
48.415535
 20
96.866497
 30
0.0
 10
48.404896
 20
96.801021
 30
0.0
 10
48.395893
 20
96.734981
 30
0.0
 10
48.388527
 20
96.668095
 30
0.0
 10
48.382798
 20
96.600644
 30
0.0
 10
48.378705
 20
96.532628
 30
0.0
 10
48.376165
 20
96.463484
 30
0.0
 10
48.375319
 20
96.393775
 30
0.0
 10
48.375601
 20
96.348337
 30
0.0
 10
48.376730
 20
96.303181
 30
0.0
 10
48.378705
 20
96.258590
 30
0.0
 10
48.381245
 20
96.214281
 30
0.0
 10
48.384632
 20
96.170537
 30
0.0
 10
48.388781
 20
96.127075
 30
0.0
 10
48.393663
 20
96.084177
 30
0.0
 10
48.399308
 20
96.041844
 30
0.0
 10
48.405714
 20
95.999792
 30
0.0
 10
48.412854
 20
95.958024
 30
0.0
 10
48.420757
 20
95.916819
 30
0.0
 10
48.429421
 20
95.876179
 30
0.0
 10
48.438819
 20
95.835821
 30
0.0
 10
48.448979
 20
95.796028
 30
0.0
 10
48.459901
 20
95.756517
 30
0.0
 10
48.471557
 20
95.717570
 30
0.0
 10
48.483974
 20
95.678906
 30
0.0
 10
48.497154
 20
95.640806
 30
0.0
 10
48.511096
 20
95.603270
 30
0.0
 10
48.525771
 20
95.566017
 30
0.0
 10
48.541209
 20
95.529046
 30
0.0
 10
48.557380
 20
95.492639
 30
0.0
 10
48.574314
 20
95.456797
 30
0.0
 10
48.592009
 20
95.421237
 30
0.0
 10
48.610466
 20
95.386241
 30
0.0
 10
48.629657
 20
95.351528
 30
0.0
 10
48.649611
 20
95.317379
 30
0.0
 10
48.670326
 20
95.283795
 30
0.0
 10
48.691775
 20
95.250210
 30
0.0
 10
48.713985
 20
95.217472
 30
0.0
 10
48.736958
 20
95.185017
 30
0.0
 10
48.760665
 20
95.153126
 30
0.0
 10
48.785134
 20
95.121517
 30
0.0
 10
48.810364
 20
95.090190
 30
0.0
 10
48.836329
 20
95.059710
 30
0.0
 10
48.863055
 20
95.029230
 30
0.0
 10
48.890544
 20
94.999597
 30
0.0
 10
48.918777
 20
94.969964
 30
0.0
 10
48.947612
 20
94.941459
 30
0.0
 10
48.976904
 20
94.913237
 30
0.0
 10
49.006653
 20
94.886144
 30
0.0
 10
49.036853
 20
94.859615
 30
0.0
 10
49.067514
 20
94.833932
 30
0.0
 10
49.098629
 20
94.809097
 30
0.0
 10
49.130204
 20
94.784826
 30
0.0
 10
49.162231
 20
94.761401
 30
0.0
 10
49.194709
 20
94.738824
 30
0.0
 10
49.227644
 20
94.716810
 30
0.0
 10
49.261039
 20
94.695644
 30
0.0
 10
49.294886
 20
94.675324
 30
0.0
 10
49.329196
 20
94.655850
 30
0.0
 10
49.363957
 20
94.636941
 30
0.0
 10
49.399173
 20
94.619161
 30
0.0
 10
49.434843
 20
94.601664
 30
0.0
 10
49.470973
 20
94.585295
 30
0.0
 10
49.507558
 20
94.569490
 30
0.0
 10
49.544599
 20
94.554532
 30
0.0
 10
49.582095
 20
94.540421
 30
0.0
 10
49.620049
 20
94.526875
 30
0.0
 10
49.658456
 20
94.514175
 30
0.0
 10
49.697318
 20
94.502321
 30
0.0
 10
49.736637
 20
94.491315
 30
0.0
 10
49.776411
 20
94.480872
 30
0.0
 10
49.816642
 20
94.471277
 30
0.0
 10
49.857330
 20
94.462528
 30
0.0
 10
49.898472
 20
94.454344
 30
0.0
 10
49.940072
 20
94.447288
 30
0.0
 10
49.982123
 20
94.440515
 30
0.0
 10
50.024631
 20
94.434870
 30
0.0
 10
50.067599
 20
94.429790
 30
0.0
 10
50.111022
 20
94.425557
 30
0.0
 10
50.154894
 20
94.422170
 30
0.0
 10
50.199228
 20
94.419630
 30
0.0
 10
50.244019
 20
94.417655
 30
0.0
 10
50.289262
 20
94.416526
 30
0.0
 10
50.388241
 20
94.416526
 30
0.0
 10
50.493349
 20
94.420477
 30
0.0
 10
50.596529
 20
94.428097
 30
0.0
 10
50.697782
 20
94.439386
 30
0.0
 10
50.797107
 20
94.454626
 30
0.0
 10
50.878404
 20
94.470430
 30
0.0
 10
50.958363
 20
94.488492
 30
0.0
 10
51.036818
 20
94.509659
 30
0.0
 10
51.113428
 20
94.533084
 30
0.0
 10
51.188177
 20
94.559330
 30
0.0
 10
51.261075
 20
94.588117
 30
0.0
 10
51.332113
 20
94.619726
 30
0.0
 10
51.401297
 20
94.653875
 30
0.0
 10
51.468618
 20
94.690564
 30
0.0
 10
51.536840
 20
94.731768
 30
0.0
 10
51.582653
 20
94.761401
 30
0.0
 10
51.626544
 20
94.792164
 30
0.0
 10
51.668513
 20
94.823490
 30
0.0
 10
51.708564
 20
94.855664
 30
0.0
 10
51.746698
 20
94.888966
 30
0.0
 10
51.782904
 20
94.922832
 30
0.0
 10
51.817191
 20
94.957828
 30
0.0
 10
51.849559
 20
94.993388
 30
0.0
 10
51.880005
 20
95.030077
 30
0.0
 10
51.908529
 20
95.067330
 30
0.0
 10
51.935143
 20
95.105712
 30
0.0
 10
51.959837
 20
95.144941
 30
0.0
 10
51.982641
 20
95.184735
 30
0.0
 10
52.003638
 20
95.225657
 30
0.0
 10
52.022801
 20
95.267426
 30
0.0
 10
52.040158
 20
95.310041
 30
0.0
 10
52.055680
 20
95.353504
 30
0.0
 10
52.069368
 20
95.397812
 30
0.0
 10
52.081249
 20
95.442968
 30
0.0
 10
52.091268
 20
95.488970
 30
0.0
 10
52.099509
 20
95.535819
 30
0.0
 10
52.105887
 20
95.583797
 30
0.0
 10
52.110459
 20
95.632339
 30
0.0
 10
52.113282
 20
95.681728
 30
0.0
 10
52.114128
 20
95.731964
 30
0.0
 10
52.113564
 20
95.775990
 30
0.0
 10
52.111870
 20
95.819170
 30
0.0
 10
52.108822
 20
95.861221
 30
0.0
 10
52.104504
 20
95.902708
 30
0.0
 10
52.098973
 20
95.943348
 30
0.0
 10
52.092228
 20
95.982859
 30
0.0
 10
52.084269
 20
96.021806
 30
0.0
 10
52.075069
 20
96.059906
 30
0.0
 10
52.064626
 20
96.097159
 30
0.0
 10
52.052971
 20
96.133566
 30
0.0
 10
52.040073
 20
96.169408
 30
0.0
 10
52.025962
 20
96.204121
 30
0.0
 10
52.010609
 20
96.237988
 30
0.0
 10
51.994043
 20
96.271290
 30
0.0
 10
51.976234
 20
96.303464
 30
0.0
 10
51.957213
 20
96.334790
 30
0.0
 10
51.936949
 20
96.365552
 30
0.0
 10
51.915472
 20
96.395468
 30
0.0
 10
51.892753
 20
96.424255
 30
0.0
 10
51.868792
 20
96.452477
 30
0.0
 10
51.843562
 20
96.479852
 30
0.0
 10
51.817061
 20
96.506381
 30
0.0
 10
51.789290
 20
96.532064
 30
0.0
 10
51.760247
 20
96.556899
 30
0.0
 10
51.729934
 20
96.580888
 30
0.0
 10
51.698353
 20
96.604312
 30
0.0
 10
51.665499
 20
96.626608
 30
0.0
 10
51.631370
 20
96.648057
 30
0.0
 10
51.595977
 20
96.668941
 30
0.0
 10
51.559308
 20
96.688697
 30
0.0
 10
51.521368
 20
96.707888
 30
0.0
 10
51.482159
 20
96.726232
 30
0.0
 10
51.441680
 20
96.743448
 30
0.0
 10
51.399925
 20
96.760099
 30
0.0
 10
51.356901
 20
96.775904
 30
0.0
 10
51.312603
 20
96.790861
 30
0.0
 10
51.267038
 20
96.804972
 30
0.0
 10
51.220203
 20
96.818237
 30
0.0
 10
51.277576
 20
96.643541
 30
0.0
 10
51.305262
 20
96.526419
 30
0.0
 10
51.317567
 20
96.431875
 30
0.0
 10
51.319825
 20
96.372890
 30
0.0
 10
51.319261
 20
96.332250
 30
0.0
 10
51.317567
 20
96.292739
 30
0.0
 10
51.314632
 20
96.254357
 30
0.0
 10
51.310512
 20
96.216821
 30
0.0
 10
51.305234
 20
96.180415
 30
0.0
 10
51.298771
 20
96.145419
 30
0.0
 10
51.291123
 20
96.111270
 30
0.0
 10
51.282318
 20
96.077968
 30
0.0
 10
51.272327
 20
96.046077
 30
0.0
 10
51.261151
 20
96.015032
 30
0.0
 10
51.248818
 20
95.985399
 30
0.0
 10
51.235300
 20
95.956612
 30
0.0
 10
51.220596
 20
95.928955
 30
0.0
 10
51.204707
 20
95.902426
 30
0.0
 10
51.187660
 20
95.876744
 30
0.0
 10
51.169429
 20
95.852472
 30
0.0
 10
51.150040
 20
95.829048
 30
0.0
 10
51.129466
 20
95.806752
 30
0.0
 10
51.107707
 20
95.785586
 30
0.0
 10
51.084790
 20
95.765548
 30
0.0
 10
51.060689
 20
95.746639
 30
0.0
 10
51.035402
 20
95.728859
 30
0.0
 10
51.008929
 20
95.711926
 30
0.0
 10
50.981271
 20
95.696404
 30
0.0
 10
50.952440
 20
95.681728
 30
0.0
 10
50.922425
 20
95.668181
 30
0.0
 10
50.891234
 20
95.655764
 30
0.0
 10
50.858857
 20
95.644192
 30
0.0
 10
50.825304
 20
95.634032
 30
0.0
 10
50.790568
 20
95.624719
 30
0.0
 10
50.754653
 20
95.616817
 30
0.0
 10
50.717557
 20
95.609761
 30
0.0
 10
50.679279
 20
95.603552
 30
0.0
 10
50.639825
 20
95.598755
 30
0.0
 10
50.599185
 20
95.595086
 30
0.0
 10
50.557365
 20
95.592264
 30
0.0
 10
50.492426
 20
95.590288
 30
0.0
 10
50.438634
 20
95.590852
 30
0.0
 10
50.387002
 20
95.594239
 30
0.0
 10
50.336574
 20
95.601012
 30
0.0
 10
50.287343
 20
95.610608
 30
0.0
 10
50.239318
 20
95.623872
 30
0.0
 10
50.192494
 20
95.639959
 30
0.0
 10
50.146873
 20
95.659432
 30
0.0
 10
50.102454
 20
95.681728
 30
0.0
 10
50.067930
 20
95.702330
 30
0.0
 10
50.034354
 20
95.725472
 30
0.0
 10
50.001718
 20
95.751155
 30
0.0
 10
49.970027
 20
95.779377
 30
0.0
 10
49.939281
 20
95.810139
 30
0.0
 10
49.909482
 20
95.843441
 30
0.0
 10
49.880624
 20
95.879284
 30
0.0
 10
49.852713
 20
95.917666
 30
0.0
 10
49.819148
 20
95.969312
 30
0.0
 10
49.775056
 20
96.049181
 30
0.0
 10
49.732441
 20
96.139210
 30
0.0
 10
49.694629
 20
96.233472
 30
0.0
 10
49.661626
 20
96.331686
 30
0.0
 10
49.642265
 20
96.403088
 30
0.0
 10
49.626828
 20
96.475619
 30
0.0
 10
49.615341
 20
96.550126
 30
0.0
 10
49.607778
 20
96.626044
 30
0.0
 10
49.604137
 20
96.703372
 30
0.0
 10
49.603891
 20
96.759252
 30
0.0
 10
49.605585
 20
96.825010
 30
0.0
 10
49.609367
 20
96.889639
 30
0.0
 10
49.614221
 20
96.942132
 30
0.0
 10
50.128091
 20
96.936770
 30
0.0
 10
51.068351
 20
96.907137
 30
0.0
 10
52.007784
 20
96.858030
 30
0.0
 10
52.945970
 20
96.789168
 30
0.0
 10
53.463481
 20
96.740061
 30
0.0
 10
53.460941
 20
96.698857
 30
0.0
 10
53.457328
 20
96.651726
 30
0.0
 10
53.453095
 20
96.604030
 30
0.0
 10
53.448184
 20
96.556617
 30
0.0
 10
53.442624
 20
96.508921
 30
0.0
 10
53.436416
 20
96.460944
 30
0.0
 10
53.429558
 20
96.412966
 30
0.0
 10
53.422050
 20
96.364988
 30
0.0
 10
53.413866
 20
96.316728
 30
0.0
 10
53.405061
 20
96.268468
 30
0.0
 10
53.395578
 20
96.219926
 30
0.0
 10
53.385446
 20
96.171384
 30
0.0
 10
53.374665
 20
96.122841
 30
0.0
 10
53.363235
 20
96.074017
 30
0.0
 10
53.351128
 20
96.025192
 30
0.0
 10
53.338400
 20
95.976086
 30
0.0
 10
53.324994
 20
95.926979
 30
0.0
 10
53.310940
 20
95.877872
 30
0.0
 10
53.296236
 20
95.828484
 30
0.0
 10
53.280883
 20
95.779095
 30
0.0
 10
53.264853
 20
95.729424
 30
0.0
 10
53.248202
 20
95.679752
 30
0.0
 10
53.230873
 20
95.629799
 30
0.0
 10
53.212896
 20
95.579846
 30
0.0
 10
53.194269
 20
95.529892
 30
0.0
 10
53.174993
 20
95.479657
 30
0.0
 10
53.155068
 20
95.429421
 30
0.0
 10
53.113243
 20
95.328668
 30
0.0
 10
53.068793
 20
95.227068
 30
0.0
 10
53.021746
 20
95.125468
 30
0.0
 10
52.972075
 20
95.023021
 30
0.0
 10
52.919780
 20
94.920292
 30
0.0
 10
52.864831
 20
94.816999
 30
0.0
 10
52.807201
 20
94.713424
 30
0.0
 10
52.746947
 20
94.609284
 30
0.0
 10
52.684011
 20
94.504579
 30
0.0
 10
52.618451
 20
94.399592
 30
0.0
 10
52.550210
 20
94.294041
 30
0.0
 10
52.479315
 20
94.187926
 30
0.0
 10
52.405768
 20
94.081246
 30
0.0
 10
52.329568
 20
93.974284
 30
0.0
 10
52.250687
 20
93.867039
 30
0.0
 10
52.169181
 20
93.758948
 30
0.0
 10
52.084994
 20
93.650575
 30
0.0
 10
51.998163
 20
93.541919
 30
0.0
 10
51.908676
 20
93.432417
 30
0.0
 10
51.816528
 20
93.322632
 30
0.0
 10
51.721729
 20
93.212566
 30
0.0
 10
51.624270
 20
93.101652
 30
0.0
 10
51.380015
 20
92.828179
 30
0.0
 10
51.192131
 20
92.613126
 30
0.0
 10
51.010888
 20
92.401177
 30
0.0
 10
50.836297
 20
92.192332
 30
0.0
 10
50.668346
 20
91.986592
 30
0.0
 10
50.507039
 20
91.783957
 30
0.0
 10
50.352381
 20
91.584144
 30
0.0
 10
50.233442
 20
91.426664
 30
0.0
 10
50.118879
 20
91.270877
 30
0.0
 10
50.008742
 20
91.117348
 30
0.0
 10
49.903019
 20
90.965512
 30
0.0
 10
49.801721
 20
90.815652
 30
0.0
 10
49.704845
 20
90.667768
 30
0.0
 10
49.612392
 20
90.522141
 30
0.0
 10
49.524356
 20
90.378208
 30
0.0
 10
49.440744
 20
90.236250
 30
0.0
 10
49.361553
 20
90.095986
 30
0.0
 10
49.298352
 20
89.979710
 30
0.0
 10
49.233404
 20
89.856097
 30
0.0
 10
49.169896
 20
89.731072
 30
0.0
 10
49.107810
 20
89.604637
 30
0.0
 10
49.047154
 20
89.476790
 30
0.0
 10
48.987933
 20
89.347532
 30
0.0
 10
48.930142
 20
89.216864
 30
0.0
 10
48.873785
 20
89.085066
 30
0.0
 10
48.818859
 20
88.951575
 30
0.0
 10
48.765367
 20
88.816955
 30
0.0
 10
48.713303
 20
88.680924
 30
0.0
 10
48.662672
 20
88.543481
 30
0.0
 10
48.613472
 20
88.404346
 30
0.0
 10
48.565802
 20
88.264364
 30
0.0
 10
48.519659
 20
88.122970
 30
0.0
 10
48.475045
 20
87.980448
 30
0.0
 10
48.431964
 20
87.836797
 30
0.0
 10
48.390412
 20
87.691735
 30
0.0
 10
48.350387
 20
87.545544
 30
0.0
 10
48.311898
 20
87.398224
 30
0.0
 10
48.274935
 20
87.249775
 30
0.0
 10
48.239508
 20
87.100197
 30
0.0
 10
48.205607
 20
86.949208
 30
0.0
 10
48.173236
 20
86.797090
 30
0.0
 10
48.142398
 20
86.643844
 30
0.0
 10
48.122699
 20
86.540832
 30
0.0
 10
56.684184
 20
85.998966
 30
0.0
 10
56.133286
 20
89.214041
 30
0.0
 10
50.010198
 20
88.064268
 30
0.0
 10
50.030377
 20
88.124946
 30
0.0
 10
50.052221
 20
88.185906
 30
0.0
 10
50.075730
 20
88.247430
 30
0.0
 10
50.100933
 20
88.309237
 30
0.0
 10
50.127800
 20
88.371044
 30
0.0
 10
50.156339
 20
88.433697
 30
0.0
 10
50.186559
 20
88.496350
 30
0.0
 10
50.218442
 20
88.559568
 30
0.0
 10
50.252001
 20
88.623068
 30
0.0
 10
50.287236
 20
88.686850
 30
0.0
 10
50.324142
 20
88.751197
 30
0.0
 10
50.362722
 20
88.815826
 30
0.0
 10
50.402975
 20
88.880737
 30
0.0
 10
50.444902
 20
88.945930
 30
0.0
 10
50.488500
 20
89.011688
 30
0.0
 10
50.533768
 20
89.077728
 30
0.0
 10
50.580711
 20
89.144050
 30
0.0
 10
50.629329
 20
89.210937
 30
0.0
 10
50.705402
 20
89.311690
 30
0.0
 10
50.785200
 20
89.413290
 30
0.0
 10
50.868665
 20
89.515737
 30
0.0
 10
50.955809
 20
89.619030
 30
0.0
 10
51.046623
 20
89.723170
 30
0.0
 10
51.141108
 20
89.827875
 30
0.0
 10
51.239268
 20
89.933708
 30
0.0
 10
51.341099
 20
90.040106
 30
0.0
 10
51.446605
 20
90.147632
 30
0.0
 10
51.555780
 20
90.255724
 30
0.0
 10
51.668635
 20
90.364661
 30
0.0
 10
51.785156
 20
90.474446
 30
0.0
 10
51.905352
 20
90.584795
 30
0.0
 10
52.918117
 20
91.482544
 30
0.0
 10
54.586418
 20
92.941915
 30
0.0
 10
54.655590
 20
93.014446
 30
0.0
 10
54.722928
 20
93.086977
 30
0.0
 10
54.788460
 20
93.158944
 30
0.0
 10
54.852158
 20
93.230910
 30
0.0
 10
54.914021
 20
93.302877
 30
0.0
 10
54.974078
 20
93.374561
 30
0.0
 10
55.032329
 20
93.446246
 30
0.0
 10
55.088717
 20
93.517648
 30
0.0
 10
55.143298
 20
93.589050
 30
0.0
 10
55.196074
 20
93.660170
 30
0.0
 10
55.247015
 20
93.731008
 30
0.0
 10
55.296122
 20
93.801846
 30
0.0
 10
55.343422
 20
93.872684
 30
0.0
 10
55.388888
 20
93.943239
 30
0.0
 10
55.432520
 20
94.013512
 30
0.0
 10
55.474345
 20
94.083786
 30
0.0
 10
55.514336
 20
94.153777
 30
0.0
 10
55.552521
 20
94.223768
 30
0.0
 10
55.588871
 20
94.293477
 30
0.0
 10
55.623387
 20
94.363186
 30
0.0
 10
55.656040
 20
94.432895
 30
0.0
 10
55.686802
 20
94.502321
 30
0.0
 10
55.715730
 20
94.571748
 30
0.0
 10
55.742767
 20
94.640892
 30
0.0
 10
55.767941
 20
94.710037
 30
0.0
 10
55.791252
 20
94.779181
 30
0.0
 10
55.812701
 20
94.848044
 30
0.0
 10
55.832316
 20
94.916906
 30
0.0
 10
55.850011
 20
94.985486
 30
0.0
 10
55.865872
 20
95.054066
 30
0.0
 10
55.879870
 20
95.122646
 30
0.0
 10
55.892006
 20
95.190944
 30
0.0
 10
55.902250
 20
95.259241
 30
0.0
 10
55.910632
 20
95.327539
 30
0.0
 10
55.917180
 20
95.395555
 30
0.0
 10
55.921837
 20
95.463570
 30
0.0
 10
55.924659
 20
95.531304
 30
0.0
 10
55.925506
 20
95.599037
 30
0.0
 10
55.924659
 20
95.690477
 30
0.0
 10
55.922401
 20
95.780788
 30
0.0
 10
55.918563
 20
95.870252
 30
0.0
 10
55.913229
 20
95.958306
 30
0.0
 10
55.906343
 20
96.045230
 30
0.0
 10
55.897932
 20
96.131308
 30
0.0
 10
55.887998
 20
96.216257
 30
0.0
 10
55.876512
 20
96.300077
 30
0.0
 10
55.863530
 20
96.382768
 30
0.0
 10
55.851846
 20
96.448526
 30
0.0
 10
56.678108
 20
96.317575
 30
0.0
 10
57.603966
 20
96.151064
 30
0.0
 10
58.526127
 20
95.965079
 30
0.0
 10
59.444196
 20
95.759904
 30
0.0
 10
60.357749
 20
95.535537
 30
0.0
 10
61.266420
 20
95.291979
 30
0.0
 10
62.169785
 20
95.029512
 30
0.0
 10
63.067478
 20
94.748137
 30
0.0
 10
63.959074
 20
94.448135
 30
0.0
 10
64.844179
 20
94.129506
 30
0.0
 10
65.722427
 20
93.792532
 30
0.0
 10
66.593393
 20
93.436932
 30
0.0
 10
67.456767
 20
93.063270
 30
0.0
 10
68.312098
 20
92.671828
 30
0.0
 10
69.159047
 20
92.262324
 30
0.0
 10
69.997247
 20
91.835321
 30
0.0
 10
70.826303
 20
91.390821
 30
0.0
 10
71.645876
 20
90.928824
 30
0.0
 10
72.455600
 20
90.449892
 30
0.0
 10
73.255107
 20
89.954310
 30
0.0
 10
74.044059
 20
89.442077
 30
0.0
 10
74.822118
 20
88.913192
 30
0.0
 10
75.588916
 20
88.368221
 30
0.0
 10
76.344170
 20
87.807446
 30
0.0
 10
77.087487
 20
87.230866
 30
0.0
 10
77.818499
 20
86.638764
 30
0.0
 10
78.537037
 20
86.031704
 30
0.0
 10
79.242593
 20
85.409404
 30
0.0
 10
79.935166
 20
84.772710
 30
0.0
 10
80.614193
 20
84.121624
 30
0.0
 10
81.279390
 20
83.456426
 30
0.0
 10
81.930477
 20
82.777399
 30
0.0
 10
82.567170
 20
82.084826
 30
0.0
 10
83.189470
 20
81.379270
 30
0.0
 10
83.796530
 20
80.660732
 30
0.0
 10
84.388633
 20
79.929720
 30
0.0
 10
84.965213
 20
79.186404
 30
0.0
 10
85.525988
 20
78.431149
 30
0.0
 10
86.070959
 20
77.664351
 30
0.0
 10
86.599844
 20
76.886292
 30
0.0
 10
87.112077
 20
76.097340
 30
0.0
 10
87.607659
 20
75.297833
 30
0.0
 10
88.086590
 20
74.488109
 30
0.0
 10
88.548588
 20
73.668536
 30
0.0
 10
88.993088
 20
72.839480
 30
0.0
 10
89.420090
 20
72.001280
 30
0.0
 10
89.829595
 20
71.154331
 30
0.0
 10
90.221037
 20
70.299000
 30
0.0
 10
90.594699
 20
69.435626
 30
0.0
 10
90.950299
 20
68.564660
 30
0.0
 10
91.287273
 20
67.686412
 30
0.0
 10
91.605902
 20
66.801307
 30
0.0
 10
91.905904
 20
65.909711
 30
0.0
 10
92.187279
 20
65.012018
 30
0.0
 10
92.449746
 20
64.108653
 30
0.0
 10
92.693304
 20
63.199982
 30
0.0
 10
92.917670
 20
62.286429
 30
0.0
 10
93.122846
 20
61.368360
 30
0.0
 10
93.308830
 20
60.446199
 30
0.0
 10
93.475342
 20
59.520341
 30
0.0
 10
93.548719
 20
59.057948
 30
0.0
 10
87.844162
 20
59.338279
 30
0.0
 10
88.422153
 20
56.484448
 30
0.0
 10
93.777037
 20
57.427635
 30
0.0
 10
93.836022
 20
56.918534
 30
0.0
 10
90.354810
 20
53.007470
 30
0.0
 10
90.446250
 20
53.004563
 30
0.0
 10
90.536279
 20
53.000697
 30
0.0
 10
90.625179
 20
52.995843
 30
0.0
 10
90.712950
 20
52.990029
 30
0.0
 10
90.799593
 20
52.983227
 30
0.0
 10
90.884824
 20
52.975466
 30
0.0
 10
90.968644
 20
52.966746
 30
0.0
 10
91.051617
 20
52.957037
 30
0.0
 10
91.133179
 20
52.946369
 30
0.0
 10
91.213613
 20
52.934713
 30
0.0
 10
91.292917
 20
52.922098
 30
0.0
 10
91.370810
 20
52.908523
 30
0.0
 10
91.447575
 20
52.893960
 30
0.0
 10
91.523210
 20
52.878438
 30
0.0
 10
91.597435
 20
52.861956
 30
0.0
 10
91.670530
 20
52.844487
 30
0.0
 10
91.742497
 20
52.826058
 30
0.0
 10
91.813053
 20
52.806641
 30
0.0
 10
91.882479
 20
52.786264
 30
0.0
 10
91.950777
 20
52.764928
 30
0.0
 10
92.017946
 20
52.742605
 30
0.0
 10
92.083704
 20
52.719321
 30
0.0
 10
92.148333
 20
52.695078
 30
0.0
 10
92.211550
 20
52.669848
 30
0.0
 10
92.273922
 20
52.643658
 30
0.0
 10
92.334599
 20
52.616480
 30
0.0
 10
92.394430
 20
52.588342
 30
0.0
 10
92.453133
 20
52.559231
 30
0.0
 10
92.510424
 20
52.529146
 30
0.0
 10
92.566304
 20
52.498093
 30
0.0
 10
92.621337
 20
52.466072
 30
0.0
 10
92.674959
 20
52.433075
 30
0.0
 10
92.727453
 20
52.399112
 30
0.0
 10
92.778535
 20
52.364173
 30
0.0
 10
92.828770
 20
52.328266
 30
0.0
 10
92.877595
 20
52.291391
 30
0.0
 10
92.925008
 20
52.253542
 30
0.0
 10
92.971293
 20
52.214725
 30
0.0
 10
93.016448
 20
52.174946
 30
0.0
 10
93.060475
 20
52.134187
 30
0.0
 10
93.103373
 20
52.092446
 30
0.0
 10
93.144859
 20
52.049721
 30
0.0
 10
93.185217
 20
52.006024
 30
0.0
 10
93.224446
 20
51.961337
 30
0.0
 10
93.262264
 20
51.915674
 30
0.0
 10
93.298953
 20
51.869028
 30
0.0
 10
93.334513
 20
51.821397
 30
0.0
 10
93.368944
 20
51.772787
 30
0.0
 10
93.401964
 20
51.723201
 30
0.0
 10
93.433855
 20
51.672630
 30
0.0
 10
93.464617
 20
51.621076
 30
0.0
 10
93.493968
 20
51.568540
 30
0.0
 10
93.522473
 20
51.515025
 30
0.0
 10
93.549566
 20
51.460534
 30
0.0
 10
93.575248
 20
51.405055
 30
0.0
 10
93.600084
 20
51.348599
 30
0.0
 10
93.623508
 20
51.291158
 30
0.0
 10
93.645804
 20
51.232738
 30
0.0
 10
93.666970
 20
51.173336
 30
0.0
 10
93.686726
 20
51.112955
 30
0.0
 10
93.705353
 20
51.051588
 30
0.0
 10
93.722850
 20
50.989245
 30
0.0
 10
93.739219
 20
50.925920
 30
0.0
 10
93.754177
 20
50.861613
 30
0.0
 10
93.768006
 20
50.796324
 30
0.0
 10
93.780706
 20
50.730053
 30
0.0
 10
93.792277
 20
50.662805
 30
0.0
 10
93.802437
 20
50.594569
 30
0.0
 10
93.811468
 20
50.525357
 30
0.0
 10
93.819370
 20
50.455165
 30
0.0
 10
93.825862
 20
50.383989
 30
0.0
 10
93.831224
 20
50.311830
 30
0.0
 10
93.835457
 20
50.238695
 30
0.0
 10
93.838562
 20
50.164578
 30
0.0
 10
93.840255
 20
50.089476
 30
0.0
 10
93.840819
 20
50.013394
 30
0.0
 10
93.840537
 20
49.961624
 30
0.0
 10
93.839126
 20
49.910279
 30
0.0
 10
93.836586
 20
49.859366
 30
0.0
 10
93.833482
 20
49.808876
 30
0.0
 10
93.829248
 20
49.758819
 30
0.0
 10
93.824168
 20
49.709193
 30
0.0
 10
93.817959
 20
49.659993
 30
0.0
 10
93.810904
 20
49.611222
 30
0.0
 10
93.803002
 20
49.562883
 30
0.0
 10
93.793970
 20
49.514973
 30
0.0
 10
93.784375
 20
49.467489
 30
0.0
 10
93.773368
 20
49.420437
 30
0.0
 10
93.761797
 20
49.373817
 30
0.0
 10
93.749097
 20
49.327623
 30
0.0
 10
93.735550
 20
49.281855
 30
0.0
 10
93.720875
 20
49.236521
 30
0.0
 10
93.705635
 20
49.191620
 30
0.0
 10
93.689266
 20
49.147141
 30
0.0
 10
93.671768
 20
49.103087
 30
0.0
 10
93.653424
 20
49.059483
 30
0.0
 10
93.634233
 20
49.016275
 30
0.0
 10
93.614195
 20
48.973518
 30
0.0
 10
93.593028
 20
48.931185
 30
0.0
 10
93.571015
 20
48.889275
 30
0.0
 10
93.548155
 20
48.847817
 30
0.0
 10
93.524166
 20
48.806781
 30
0.0
 10
93.499330
 20
48.766141
 30
0.0
 10
93.473648
 20
48.725981
 30
0.0
 10
93.446837
 20
48.686216
 30
0.0
 10
93.419179
 20
48.646874
 30
0.0
 10
93.390675
 20
48.607984
 30
0.0
 10
93.361324
 20
48.569517
 30
0.0
 10
93.330844
 20
48.531474
 30
0.0
 10
93.299235
 20
48.493882
 30
0.0
 10
93.267062
 20
48.456685
 30
0.0
 10
93.233759
 20
48.419939
 30
0.0
 10
93.199610
 20
48.383617
 30
0.0
 10
93.164333
 20
48.347719
 30
0.0
 10
93.128773
 20
48.312526
 30
0.0
 10
93.092366
 20
48.278264
 30
0.0
 10
93.055677
 20
48.244962
 30
0.0
 10
93.018706
 20
48.212563
 30
0.0
 10
92.981170
 20
48.181123
 30
0.0
 10
92.943070
 20
48.150643
 30
0.0
 10
92.904688
 20
48.121066
 30
0.0
 10
92.866024
 20
48.092449
 30
0.0
 10
92.826513
 20
48.064763
 30
0.0
 10
92.787002
 20
48.038008
 30
0.0
 10
92.746926
 20
48.012213
 30
0.0
 10
92.706286
 20
47.987321
 30
0.0
 10
92.665364
 20
47.963389
 30
0.0
 10
92.623877
 20
47.940387
 30
0.0
 10
92.582108
 20
47.918346
 30
0.0
 10
92.539775
 20
47.897236
 30
0.0
 10
92.497159
 20
47.877057
 30
0.0
 10
92.453979
 20
47.857809
 30
0.0
 10
92.410517
 20
47.839521
 30
0.0
 10
92.366490
 20
47.822136
 30
0.0
 10
92.322182
 20
47.805711
 30
0.0
 10
92.277308
 20
47.790245
 30
0.0
 10
92.232153
 20
47.775683
 30
0.0
 10
92.186433
 20
47.762079
 30
0.0
 10
92.140430
 20
47.749408
 30
0.0
 10
92.093864
 20
47.737667
 30
0.0
 10
92.046733
 20
47.726886
 30
0.0
 10
91.999319
 20
47.717037
 30
0.0
 10
91.951624
 20
47.708119
 30
0.0
 10
91.903364
 20
47.700132
 30
0.0
 10
91.854539
 20
47.693104
 30
0.0
 10
91.805433
 20
47.687008
 30
0.0
 10
91.756044
 20
47.681844
 30
0.0
 10
91.706090
 20
47.677610
 30
0.0
 10
91.655573
 20
47.674337
 30
0.0
 10
91.604773
 20
47.672079
 30
0.0
 10
91.553690
 20
47.670668
 30
0.0
 10
91.501762
 20
47.670103
 30
0.0
 10
91.442213
 20
47.670668
 30
0.0
 10
91.382664
 20
47.672079
 30
0.0
 10
91.323679
 20
47.674619
 30
0.0
 10
91.264977
 20
47.678118
 30
0.0
 10
91.206275
 20
47.682606
 30
0.0
 10
91.148137
 20
47.688109
 30
0.0
 10
91.090282
 20
47.694600
 30
0.0
 10
91.032990
 20
47.702079
 30
0.0
 10
90.975699
 20
47.710574
 30
0.0
 10
90.918690
 20
47.720057
 30
0.0
 10
90.862246
 20
47.730555
 30
0.0
 10
90.805802
 20
47.742042
 30
0.0
 10
90.749922
 20
47.754516
 30
0.0
 10
90.694324
 20
47.768006
 30
0.0
 10
90.638726
 20
47.782484
 30
0.0
 10
90.583693
 20
47.797978
 30
0.0
 10
90.528942
 20
47.814460
 30
0.0
 10
90.474755
 20
47.831929
 30
0.0
 10
90.420568
 20
47.850415
 30
0.0
 10
90.366664
 20
47.869888
 30
0.0
 10
90.313324
 20
47.890349
 30
0.0
 10
90.259984
 20
47.911827
 30
0.0
 10
90.207208
 20
47.934291
 30
0.0
 10
90.154715
 20
47.957772
 30
0.0
 10
90.102504
 20
47.982241
 30
0.0
 10
90.050575
 20
48.007697
 30
0.0
 10
89.998928
 20
48.034170
 30
0.0
 10
89.947564
 20
48.061630
 30
0.0
 10
89.896764
 20
48.090106
 30
0.0
 10
89.845964
 20
48.119570
 30
0.0
 10
89.795728
 20
48.150022
 30
0.0
 10
89.745493
 20
48.181490
 30
0.0
 10
89.695822
 20
48.213945
 30
0.0
 10
89.646433
 20
48.247389
 30
0.0
 10
89.597326
 20
48.281848
 30
0.0
 10
89.548502
 20
48.317295
 30
0.0
 10
89.499959
 20
48.353758
 30
0.0
 10
89.451699
 20
48.391209
 30
0.0
 10
89.404286
 20
48.429422
 30
0.0
 10
89.357719
 20
48.468171
 30
0.0
 10
89.312282
 20
48.507457
 30
0.0
 10
89.267690
 20
48.547278
 30
0.0
 10
89.223946
 20
48.587608
 30
0.0
 10
89.181613
 20
48.628473
 30
0.0
 10
89.139844
 20
48.669875
 30
0.0
 10
89.099204
 20
48.711814
 30
0.0
 10
89.059693
 20
48.754288
 30
0.0
 10
89.021028
 20
48.797299
 30
0.0
 10
88.983493
 20
48.840817
 30
0.0
 10
88.946804
 20
48.884872
 30
0.0
 10
88.911244
 20
48.929463
 30
0.0
 10
88.876530
 20
48.974591
 30
0.0
 10
88.842664
 20
49.020254
 30
0.0
 10
88.809926
 20
49.066426
 30
0.0
 10
88.778317
 20
49.113134
 30
0.0
 10
88.747555
 20
49.160406
 30
0.0
 10
88.717922
 20
49.208175
 30
0.0
 10
88.689135
 20
49.256483
 30
0.0
 10
88.661477
 20
49.305327
 30
0.0
 10
88.634666
 20
49.354699
 30
0.0
 10
88.608984
 20
49.404602
 30
0.0
 10
88.584148
 20
49.455037
 30
0.0
 10
88.560442
 20
49.506004
 30
0.0
 10
88.537582
 20
49.557498
 30
0.0
 10
88.515568
 20
49.609529
 30
0.0
 10
88.494966
 20
49.662087
 30
0.0
 10
88.474928
 20
49.715181
 30
0.0
 10
88.456302
 20
49.768804
 30
0.0
 10
88.438239
 20
49.822956
 30
0.0
 10
88.421588
 20
49.877643
 30
0.0
 10
88.405502
 20
49.932859
 30
0.0
 10
88.390544
 20
49.988607
 30
0.0
 10
88.376715
 20
50.044885
 30
0.0
 10
88.363733
 20
50.101696
 30
0.0
 10
88.351879
 20
50.159035
 30
0.0
 10
88.340873
 20
50.216908
 30
0.0
 10
87.771913
 20
50.099503
 30
0.0
 10
87.778404
 20
49.904084
 30
0.0
 10
87.796466
 20
49.717549
 30
0.0
 10
87.827793
 20
49.522136
 30
0.0
 10
87.848395
 20
49.424428
 30
0.0
 10
86.868519
 20
49.240416
 30
0.0
 10
87.067486
 20
48.603723
 30
0.0
 10
87.962977
 20
48.787731
 30
0.0
 10
88.030146
 20
48.601860
 30
0.0
 10
88.093082
 20
48.441671
 30
0.0
 10
88.159122
 20
48.286223
 30
0.0
 10
88.227984
 20
48.135544
 30
0.0
 10
88.299950
 20
47.989635
 30
0.0
 10
88.375022
 20
47.848468
 30
0.0
 10
88.453197
 20
47.712041
 30
0.0
 10
88.534195
 20
47.580385
 30
0.0
 10
88.607855
 20
47.469076
 30
0.0
 10
88.650753
 20
47.407100
 30
0.0
 10
87.756673
 20
46.739927
 30
0.0
 10
88.276244
 20
46.195238
 30
0.0
 10
89.101744
 20
46.893174
 30
0.0
 10
89.173428
 20
46.829815
 30
0.0
 10
89.246242
 20
46.768939
 30
0.0
 10
89.320466
 20
46.710519
 30
0.0
 10
89.396102
 20
46.654555
 30
0.0
 10
89.472866
 20
46.601045
 30
0.0
 10
89.551042
 20
46.550020
 30
0.0
 10
89.630628
 20
46.501449
 30
0.0
 10
89.711626
 20
46.455362
 30
0.0
 10
89.794035
 20
46.411703
 30
0.0
 10
89.877573
 20
46.370555
 30
0.0
 10
89.962239
 20
46.332031
 30
0.0
 10
90.048035
 20
46.296104
 30
0.0
 10
90.134677
 20
46.262830
 30
0.0
 10
90.222448
 20
46.232181
 30
0.0
 10
90.311066
 20
46.204185
 30
0.0
 10
90.400813
 20
46.178813
 30
0.0
 10
90.491688
 20
46.156066
 30
0.0
 10
90.583693
 20
46.135943
 30
0.0
 10
90.676262
 20
46.118474
 30
0.0
 10
90.423955
 20
45.153556
 30
0.0
 10
91.241835
 20
45.000591
 30
0.0
 10
91.463379
 20
46.026469
 30
0.0
 10
91.596306
 20
46.027880
 30
0.0
 10
91.727539
 20
46.032198
 30
0.0
 10
91.857362
 20
46.039423
 30
0.0
 10
91.985490
 20
46.049499
 30
0.0
 10
92.080599
 20
46.058981
 30
0.0
 10
92.175144
 20
46.070044
 30
0.0
 10
92.268559
 20
46.082744
 30
0.0
 10
92.361128
 20
46.097081
 30
0.0
 10
92.452850
 20
46.113027
 30
0.0
 10
92.543726
 20
46.130609
 30
0.0
 10
92.633755
 20
46.149800
 30
0.0
 10
92.722937
 20
46.170600
 30
0.0
 10
92.810990
 20
46.193037
 30
0.0
 10
92.898197
 20
46.217082
 30
0.0
 10
92.984557
 20
46.242764
 30
0.0
 10
93.069788
 20
46.270083
 30
0.0
 10
93.154173
 20
46.298983
 30
0.0
 10
93.237710
 20
46.329548
 30
0.0
 10
93.320119
 20
46.361693
 30
0.0
 10
93.401682
 20
46.395503
 30
0.0
 10
93.482115
 20
46.430894
 30
0.0
 10
93.561702
 20
46.467949
 30
0.0
 10
93.640442
 20
46.506586
 30
0.0
 10
93.718053
 20
46.546859
 30
0.0
 10
93.758975
 20
46.476360
 30
0.0
 10
93.750226
 20
46.399990
 30
0.0
 10
93.622662
 20
45.467980
 30
0.0
 10
93.475342
 20
44.538822
 30
0.0
 10
93.308830
 20
43.612964
 30
0.0
 10
93.122846
 20
42.690803
 30
0.0
 10
92.917670
 20
41.772734
 30
0.0
 10
92.693304
 20
40.859181
 30
0.0
 10
92.449746
 20
39.950510
 30
0.0
 10
92.187279
 20
39.047145
 30
0.0
 10
91.905904
 20
38.149452
 30
0.0
 10
91.605902
 20
37.257856
 30
0.0
 10
91.287273
 20
36.372751
 30
0.0
 10
90.950299
 20
35.494503
 30
0.0
 10
90.594699
 20
34.623537
 30
0.0
 10
90.221037
 20
33.760163
 30
0.0
 10
89.829595
 20
32.904832
 30
0.0
 10
89.420090
 20
32.057883
 30
0.0
 10
88.993088
 20
31.219683
 30
0.0
 10
88.548588
 20
30.390627
 30
0.0
 10
88.086590
 20
29.571054
 30
0.0
 10
87.607659
 20
28.761330
 30
0.0
 10
87.112077
 20
27.961823
 30
0.0
 10
86.599844
 20
27.172871
 30
0.0
 10
86.070959
 20
26.394812
 30
0.0
 10
85.525988
 20
25.628014
 30
0.0
 10
84.965213
 20
24.872759
 30
0.0
 10
84.388633
 20
24.129443
 30
0.0
 10
83.796530
 20
23.398431
 30
0.0
 10
83.189470
 20
22.679893
 30
0.0
 10
82.567170
 20
21.974337
 30
0.0
 10
81.930477
 20
21.281764
 30
0.0
 10
81.279390
 20
20.602737
 30
0.0
 10
80.614193
 20
19.937539
 30
0.0
 10
79.935166
 20
19.286453
 30
0.0
 10
79.242593
 20
18.649759
 30
0.0
 10
78.537037
 20
18.027459
 30
0.0
 10
77.818499
 20
17.420399
 30
0.0
 10
77.087487
 20
16.828297
 30
0.0
 10
76.344170
 20
16.251717
 30
0.0
 10
75.588916
 20
15.690942
 30
0.0
 10
74.822118
 20
15.145971
 30
0.0
 10
74.044059
 20
14.617080
 30
0.0
 10
73.255107
 20
14.104847
 30
0.0
 10
72.455600
 20
13.609265
 30
0.0
 10
71.645876
 20
13.130334
 30
0.0
 10
70.826303
 20
12.668336
 30
0.0
 10
69.997247
 20
12.223836
 30
0.0
 10
69.159047
 20
11.796834
 30
0.0
 10
68.312098
 20
11.387329
 30
0.0
 10
67.456767
 20
10.995887
 30
0.0
 10
66.593393
 20
10.622225
 30
0.0
 10
65.722427
 20
10.266625
 30
0.0
 10
64.844179
 20
9.929652
 30
0.0
 10
63.959074
 20
9.611023
 30
0.0
 10
63.067478
 20
9.311020
 30
0.0
 10
62.169785
 20
9.029645
 30
0.0
 10
61.266420
 20
8.767178
 30
0.0
 10
60.357749
 20
8.523620
 30
0.0
 10
59.444196
 20
8.299254
 30
0.0
 10
58.526127
 20
8.094078
 30
0.0
 10
57.603966
 20
7.908094
 30
0.0
 10
56.678108
 20
7.741583
 30
0.0
 10
55.748947
 20
7.594263
 30
0.0
 10
54.816937
 20
7.466698
 30
0.0
 10
53.882442
 20
7.358607
 30
0.0
 10
53.606514
 20
7.332360
 30
0.0
 10
53.618198
 20
7.364252
 30
0.0
 10
53.645799
 20
7.445249
 30
0.0
 10
53.671622
 20
7.527376
 30
0.0
 10
53.695668
 20
7.610632
 30
0.0
 10
53.717935
 20
7.695016
 30
0.0
 10
53.738396
 20
7.780247
 30
0.0
 10
53.757108
 20
7.866607
 30
0.0
 10
53.774013
 20
7.954096
 30
0.0
 10
53.789168
 20
8.042432
 30
0.0
 10
53.802517
 20
8.131896
 30
0.0
 10
53.814088
 20
8.222489
 30
0.0
 10
53.823881
 20
8.314212
 30
0.0
 10
53.831896
 20
8.407063
 30
0.0
 10
53.838134
 20
8.500760
 30
0.0
 10
53.842593
 20
8.595587
 30
0.0
 10
53.845133
 20
8.691543
 30
0.0
 10
53.845979
 20
8.788345
 30
0.0
 10
53.845415
 20
8.865956
 30
0.0
 10
53.843439
 20
8.942720
 30
0.0
 10
53.840335
 20
9.018920
 30
0.0
 10
53.835932
 20
9.094556
 30
0.0
 10
53.830316
 20
9.169345
 30
0.0
 10
53.823430
 20
9.243569
 30
0.0
 10
53.815302
 20
9.317229
 30
0.0
 10
53.805932
 20
9.390043
 30
0.0
 10
53.795292
 20
9.462292
 30
0.0
 10
53.783411
 20
9.533976
 30
0.0
 10
53.770287
 20
9.604814
 30
0.0
 10
53.755894
 20
9.675087
 30
0.0
 10
53.740259
 20
9.744796
 30
0.0
 10
53.723382
 20
9.813940
 30
0.0
 10
53.705235
 20
9.882238
 30
0.0
 10
53.685846
 20
9.949972
 30
0.0
 10
53.665216
 20
10.016858
 30
0.0
 10
53.643316
 20
10.083180
 30
0.0
 10
53.620173
 20
10.148938
 30
0.0
 10
53.595789
 20
10.214132
 30
0.0
 10
53.570135
 20
10.278478
 30
0.0
 10
53.543240
 20
10.342543
 30
0.0
 10
53.515102
 20
10.406043
 30
0.0
 10
53.485694
 20
10.468696
 30
0.0
 10
53.455073
 20
10.531067
 30
0.0
 10
53.423154
 20
10.592592
 30
0.0
 10
53.390021
 20
10.653834
 30
0.0
 10
53.355618
 20
10.714512
 30
0.0
 10
53.319974
 20
10.774343
 30
0.0
 10
53.283059
 20
10.833892
 30
0.0
 10
53.244931
 20
10.892594
 30
0.0
 10
53.205504
 20
10.951014
 30
0.0
 10
53.164864
 20
11.008587
 30
0.0
 10
53.122954
 20
11.065596
 30
0.0
 10
53.079802
 20
11.122323
 30
0.0
 10
53.035409
 20
11.178203
 30
0.0
 10
52.989745
 20
11.233800
 30
0.0
 10
52.942840
 20
11.288552
 30
0.0
 10
52.893338
 20
11.343867
 30
0.0
 10
52.843074
 20
11.397772
 30
0.0
 10
52.792077
 20
11.450265
 30
0.0
 10
52.740346
 20
11.501347
 30
0.0
 10
52.687880
 20
11.550736
 30
0.0
 10
52.634653
 20
11.598714
 30
0.0
 10
52.580692
 20
11.645280
 30
0.0
 10
52.525998
 20
11.690436
 30
0.0
 10
52.470541
 20
11.733898
 30
0.0
 10
52.414351
 20
11.776232
 30
0.0
 10
52.357398
 20
11.816872
 30
0.0
 10
52.299740
 20
11.855818
 30
0.0
 10
52.241320
 20
11.893636
 30
0.0
 10
52.182138
 20
11.929760
 30
0.0
 10
52.122251
 20
11.964474
 30
0.0
 10
52.061601
 20
11.997776
 30
0.0
 10
52.000201
 20
12.029667
 30
0.0
 10
51.938070
 20
12.059865
 30
0.0
 10
51.875193
 20
12.088652
 30
0.0
 10
51.811552
 20
12.116027
 30
0.0
 10
51.747135
 20
12.141992
 30
0.0
 10
51.681928
 20
12.166263
 30
0.0
 10
51.615935
 20
12.189123
 30
0.0
 10
51.549165
 20
12.210572
 30
0.0
 10
51.481606
 20
12.230609
 30
0.0
 10
51.413269
 20
12.249236
 30
0.0
 10
51.344147
 20
12.266169
 30
0.0
 10
51.274243
 20
12.281692
 30
0.0
 10
51.203555
 20
12.295803
 30
0.0
 10
51.132082
 20
12.308220
 30
0.0
 10
51.059825
 20
12.319509
 30
0.0
 10
50.986783
 20
12.329105
 30
0.0
 10
50.912959
 20
12.337289
 30
0.0
 10
50.838357
 20
12.343780
 30
0.0
 10
50.762964
 20
12.348860
 30
0.0
 10
50.686795
 20
12.352812
 30
0.0
 10
50.609839
 20
12.355634
 30
0.0
 10
50.532095
 20
12.355634
 30
0.0
 10
50.433540
 20
12.355634
 30
0.0
 10
50.336083
 20
12.351965
 30
0.0
 10
50.239724
 20
12.346038
 30
0.0
 10
50.144463
 20
12.337572
 30
0.0
 10
50.050296
 20
12.326847
 30
0.0
 10
49.957225
 20
12.313865
 30
0.0
 10
49.895791
 20
12.303705
 30
0.0
 10
49.834842
 20
12.292698
 30
0.0
 10
49.774388
 20
12.280563
 30
0.0
 10
49.714415
 20
12.267298
 30
0.0
 10
49.654931
 20
12.252905
 30
0.0
 10
49.595936
 20
12.237383
 30
0.0
 10
49.537425
 20
12.221014
 30
0.0
 10
49.479403
 20
12.203516
 30
0.0
 10
49.421872
 20
12.185172
 30
0.0
 10
49.364829
 20
12.165416
 30
0.0
 10
49.308354
 20
12.144814
 30
0.0
 10
49.252539
 20
12.123083
 30
0.0
 10
49.197384
 20
12.100223
 30
0.0
 10
49.142896
 20
12.076234
 30
0.0
 10
49.089053
 20
12.051116
 30
0.0
 10
49.035874
 20
12.024869
 30
0.0
 10
48.983352
 20
11.997494
 30
0.0
 10
48.931489
 20
11.969272
 30
0.0
 10
48.880279
 20
11.939638
 30
0.0
 10
48.829736
 20
11.909158
 30
0.0
 10
48.779848
 20
11.877267
 30
0.0
 10
48.730614
 20
11.844529
 30
0.0
 10
48.682041
 20
11.810663
 30
0.0
 10
48.634128
 20
11.775667
 30
0.0
 10
48.586870
 20
11.739543
 30
0.0
 10
48.540275
 20
11.702289
 30
0.0
 10
48.494335
 20
11.663907
 30
0.0
 10
48.449055
 20
11.624678
 30
0.0
 10
48.404430
 20
11.584038
 30
0.0
 10
48.359094
 20
11.541140
 30
0.0
 10
48.314946
 20
11.497396
 30
0.0
 10
48.271983
 20
11.453369
 30
0.0
 10
48.230211
 20
11.408496
 30
0.0
 10
48.189625
 20
11.363058
 30
0.0
 10
48.150221
 20
11.317338
 30
0.0
 10
48.112008
 20
11.270772
 30
0.0
 10
48.074981
 20
11.223640
 30
0.0
 10
48.039139
 20
11.175945
 30
0.0
 10
48.004484
 20
11.127403
 30
0.0
 10
47.971021
 20
11.078578
 30
0.0
 10
47.938741
 20
11.029189
 30
0.0
 10
47.907643
 20
10.978954
 30
0.0
 10
47.877741
 20
10.928436
 30
0.0
 10
47.849017
 20
10.877072
 30
0.0
 10
47.821472
 20
10.825143
 30
0.0
 10
47.795140
 20
10.772649
 30
0.0
 10
47.769966
 20
10.719592
 30
0.0
 10
47.746006
 20
10.665969
 30
0.0
 10
47.723258
 20
10.611783
 30
0.0
 10
47.701753
 20
10.556749
 30
0.0
 10
47.681490
 20
10.501152
 30
0.0
 10
47.662440
 20
10.444707
 30
0.0
 10
47.644631
 20
10.387698
 30
0.0
 10
47.628037
 20
10.330125
 30
0.0
 10
47.612684
 20
10.271705
 30
0.0
 10
47.598544
 20
10.212720
 30
0.0
 10
47.585647
 20
10.152889
 30
0.0
 10
47.573963
 20
10.092494
 30
0.0
 10
47.563521
 20
10.031534
 30
0.0
 10
47.554320
 20
9.969727
 30
0.0
 10
47.546333
 20
9.907356
 30
0.0
 10
47.539560
 20
9.844138
 30
0.0
 10
47.534028
 20
9.780356
 30
0.0
 10
47.529710
 20
9.716009
 30
0.0
 10
47.526634
 20
9.650816
 30
0.0
 10
47.524659
 20
9.585058
 30
0.0
 10
47.524094
 20
9.497569
 30
0.0
 10
47.525788
 20
9.414878
 30
0.0
 10
47.529964
 20
9.333316
 30
0.0
 10
47.536512
 20
9.252883
 30
0.0
 10
47.545458
 20
9.173860
 30
0.0
 10
47.556776
 20
9.096249
 30
0.0
 10
47.570463
 20
9.019767
 30
0.0
 10
47.586550
 20
8.944696
 30
0.0
 10
47.605007
 20
8.870754
 30
0.0
 10
47.625864
 20
8.798223
 30
0.0
 10
47.649232
 20
8.726820
 30
0.0
 10
47.668536
 20
8.674045
 30
0.0
 10
47.696673
 20
8.604900
 30
0.0
 10
47.727531
 20
8.537167
 30
0.0
 10
47.752452
 20
8.487214
 30
0.0
 10
47.788068
 20
8.421456
 30
0.0
 10
47.826411
 20
8.357109
 30
0.0
 10
47.867468
 20
8.294174
 30
0.0
 10
47.911252
 20
8.232085
 30
0.0
 10
47.957751
 20
8.171689
 30
0.0
 10
48.009093
 20
8.109318
 30
0.0
 10
48.049245
 20
8.063880
 30
0.0
 10
48.090255
 20
8.020418
 30
0.0
 10
48.132131
 20
7.978932
 30
0.0
 10
48.174868
 20
7.939420
 30
0.0
 10
48.218465
 20
7.901885
 30
0.0
 10
48.262924
 20
7.866325
 30
0.0
 10
48.308249
 20
7.832458
 30
0.0
 10
48.354429
 20
7.800849
 30
0.0
 10
48.401475
 20
7.770934
 30
0.0
 10
48.449385
 20
7.743276
 30
0.0
 10
48.498153
 20
7.717312
 30
0.0
 10
48.547785
 20
7.693605
 30
0.0
 10
48.598277
 20
7.671592
 30
0.0
 10
48.649630
 20
7.651272
 30
0.0
 10
48.701850
 20
7.633209
 30
0.0
 10
48.754930
 20
7.616840
 30
0.0
 10
48.808871
 20
7.602165
 30
0.0
 10
48.863673
 20
7.589465
 30
0.0
 10
48.919339
 20
7.578740
 30
0.0
 10
48.975865
 20
7.569709
 30
0.0
 10
49.033249
 20
7.562654
 30
0.0
 10
49.091503
 20
7.557292
 30
0.0
 10
49.150617
 20
7.553905
 30
0.0
 10
49.210587
 20
7.551083
 30
0.0
 10
49.300449
 20
7.551083
 30
0.0
 10
49.382141
 20
7.556163
 30
0.0
 10
49.461739
 20
7.564629
 30
0.0
 10
49.539237
 20
7.576765
 30
0.0
 10
49.614641
 20
7.592287
 30
0.0
 10
49.687943
 20
7.611760
 30
0.0
 10
49.747500
 20
7.630669
 30
0.0
 10
49.806073
 20
7.652400
 30
0.0
 10
49.863702
 20
7.676672
 30
0.0
 10
49.920401
 20
7.704047
 30
0.0
 10
49.976157
 20
7.733963
 30
0.0
 10
50.030975
 20
7.766700
 30
0.0
 10
50.084857
 20
7.802260
 30
0.0
 10
50.148273
 20
7.848545
 30
0.0
 10
50.192124
 20
7.884669
 30
0.0
 10
50.233608
 20
7.921640
 30
0.0
 10
50.272719
 20
7.959458
 30
0.0
 10
50.309455
 20
7.998687
 30
0.0
 10
50.343830
 20
8.038763
 30
0.0
 10
50.375826
 20
8.079685
 30
0.0
 10
50.405459
 20
8.121736
 30
0.0
 10
50.432722
 20
8.164916
 30
0.0
 10
50.457614
 20
8.208943
 30
0.0
 10
50.480163
 20
8.254098
 30
0.0
 10
50.500370
 20
8.300100
 30
0.0
 10
50.518207
 20
8.346949
 30
0.0
 10
50.533644
 20
8.394645
 30
0.0
 10
50.546711
 20
8.443469
 30
0.0
 10
50.557407
 20
8.492858
 30
0.0
 10
50.565733
 20
8.543094
 30
0.0
 10
50.571660
 20
8.594176
 30
0.0
 10
50.575216
 20
8.646105
 30
0.0
 10
50.576345
 20
8.698880
 30
0.0
 10
50.575780
 20
8.743472
 30
0.0
 10
50.574087
 20
8.787498
 30
0.0
 10
50.571265
 20
8.830396
 30
0.0
 10
50.567342
 20
8.872447
 30
0.0
 10
50.562290
 20
8.913652
 30
0.0
 10
50.556109
 20
8.954009
 30
0.0
 10
50.548800
 20
8.993520
 30
0.0
 10
50.540361
 20
9.032185
 30
0.0
 10
50.530794
 20
9.069720
 30
0.0
 10
50.520126
 20
9.106692
 30
0.0
 10
50.508329
 20
9.142816
 30
0.0
 10
50.495403
 20
9.177812
 30
0.0
 10
50.481349
 20
9.211960
 30
0.0
 10
50.466165
 20
9.245545
 30
0.0
 10
50.449881
 20
9.278000
 30
0.0
 10
50.432439
 20
9.309609
 30
0.0
 10
50.413897
 20
9.340372
 30
0.0
 10
50.394227
 20
9.370287
 30
0.0
 10
50.373427
 20
9.399356
 30
0.0
 10
50.351526
 20
9.427578
 30
0.0
 10
50.328553
 20
9.454954
 30
0.0
 10
50.304480
 20
9.481200
 30
0.0
 10
50.279334
 20
9.506883
 30
0.0
 10
50.253115
 20
9.531436
 30
0.0
 10
50.225825
 20
9.555425
 30
0.0
 10
50.197441
 20
9.578285
 30
0.0
 10
50.167977
 20
9.600298
 30
0.0
 10
50.137433
 20
9.621747
 30
0.0
 10
50.105812
 20
9.642067
 30
0.0
 10
50.073108
 20
9.661540
 30
0.0
 10
50.039321
 20
9.680167
 30
0.0
 10
50.004458
 20
9.697947
 30
0.0
 10
49.968511
 20
9.714598
 30
0.0
 10
49.931487
 20
9.730685
 30
0.0
 10
49.893378
 20
9.745925
 30
0.0
 10
49.854194
 20
9.760036
 30
0.0
 10
49.813927
 20
9.773583
 30
0.0
 10
49.772581
 20
9.786000
 30
0.0
 10
49.809039
 20
9.740845
 30
0.0
 10
49.835991
 20
9.697947
 30
0.0
 10
49.857045
 20
9.653638
 30
0.0
 10
49.874853
 20
9.598040
 30
0.0
 10
49.888371
 20
9.528614
 30
0.0
 10
49.894778
 20
9.448463
 30
0.0
 10
49.894956
 20
9.412056
 30
0.0
 10
49.892980
 20
9.370569
 30
0.0
 10
49.888944
 20
9.329929
 30
0.0
 10
49.882707
 20
9.289854
 30
0.0
 10
49.874241
 20
9.250907
 30
0.0
 10
49.863573
 20
9.212807
 30
0.0
 10
49.850703
 20
9.175554
 30
0.0
 10
49.835633
 20
9.139147
 30
0.0
 10
49.818361
 20
9.103587
 30
0.0
 10
49.798859
 20
9.068592
 30
0.0
 10
49.777184
 20
9.034725
 30
0.0
 10
49.753280
 20
9.001705
 30
0.0
 10
49.727175
 20
8.969532
 30
0.0
 10
49.699178
 20
8.938769
 30
0.0
 10
49.670157
 20
8.910265
 30
0.0
 10
49.640171
 20
8.884018
 30
0.0
 10
49.619654
 20
8.868214
 30
0.0
 10
49.598713
 20
8.853256
 30
0.0
 10
49.577320
 20
8.839427
 30
0.0
 10
49.555504
 20
8.826727
 30
0.0
 10
49.533265
 20
8.815156
 30
0.0
 10
49.510603
 20
8.804714
 30
0.0
 10
49.487517
 20
8.795400
 30
0.0
 10
49.464008
 20
8.787216
 30
0.0
 10
49.440047
 20
8.779878
 30
0.0
 10
49.415663
 20
8.773952
 30
0.0
 10
49.390856
 20
8.768872
 30
0.0
 10
49.365625
 20
8.765203
 30
0.0
 10
49.339943
 20
8.762380
 30
0.0
 10
49.300641
 20
8.759558
 30
0.0
 10
49.267183
 20
8.759558
 30
0.0
 10
49.227703
 20
8.759558
 30
0.0
 10
49.189287
 20
8.762380
 30
0.0
 10
49.151941
 20
8.766049
 30
0.0
 10
49.115664
 20
8.770847
 30
0.0
 10
49.080451
 20
8.777056
 30
0.0
 10
49.046311
 20
8.784394
 30
0.0
 10
49.013234
 20
8.793143
 30
0.0
 10
48.981227
 20
8.803020
 30
0.0
 10
48.950287
 20
8.814027
 30
0.0
 10
48.920414
 20
8.826445
 30
0.0
 10
48.891613
 20
8.839992
 30
0.0
 10
48.863871
 20
8.854667
 30
0.0
 10
48.837201
 20
8.870754
 30
0.0
 10
48.811603
 20
8.887969
 30
0.0
 10
48.787078
 20
8.906314
 30
0.0
 10
48.763626
 20
8.926069
 30
0.0
 10
48.741217
 20
8.947236
 30
0.0
 10
48.719881
 20
8.969249
 30
0.0
 10
48.699618
 20
8.992674
 30
0.0
 10
48.680426
 20
9.017509
 30
0.0
 10
48.662308
 20
9.043474
 30
0.0
 10
48.645233
 20
9.070567
 30
0.0
 10
48.629231
 20
9.099072
 30
0.0
 10
48.614302
 20
9.128987
 30
0.0
 10
48.600445
 20
9.160032
 30
0.0
 10
48.587660
 20
9.192487
 30
0.0
 10
48.575920
 20
9.226072
 30
0.0
 10
48.565252
 20
9.261067
 30
0.0
 10
48.555656
 20
9.297192
 30
0.0
 10
48.547133
 20
9.334727
 30
0.0
 10
48.539654
 20
9.373392
 30
0.0
 10
48.533248
 20
9.413467
 30
0.0
 10
48.527914
 20
9.454672
 30
0.0
 10
48.523652
 20
9.497287
 30
0.0
 10
48.520463
 20
9.541032
 30
0.0
 10
48.517641
 20
9.609047
 30
0.0
 10
48.517076
 20
9.656178
 30
0.0
 10
48.517358
 20
9.689480
 30
0.0
 10
48.518205
 20
9.722500
 30
0.0
 10
48.519616
 20
9.755238
 30
0.0
 10
48.521592
 20
9.787412
 30
0.0
 10
48.524132
 20
9.819303
 30
0.0
 10
48.527321
 20
9.850912
 30
0.0
 10
48.531074
 20
9.881956
 30
0.0
 10
48.535421
 20
9.913000
 30
0.0
 10
48.540331
 20
9.943480
 30
0.0
 10
48.545806
 20
9.973396
 30
0.0
 10
48.551874
 20
10.003312
 30
0.0
 10
48.558535
 20
10.032663
 30
0.0
 10
48.565760
 20
10.061732
 30
0.0
 10
48.573549
 20
10.090518
 30
0.0
 10
48.581931
 20
10.118740
 30
0.0
 10
48.590877
 20
10.146680
 30
0.0
 10
48.600416
 20
10.174338
 30
0.0
 10
48.610520
 20
10.201714
 30
0.0
 10
48.621216
 20
10.228525
 30
0.0
 10
48.632477
 20
10.255054
 30
0.0
 10
48.644330
 20
10.281300
 30
0.0
 10
48.656748
 20
10.307265
 30
0.0
 10
48.669758
 20
10.332665
 30
0.0
 10
48.683333
 20
10.357783
 30
0.0
 10
48.697473
 20
10.382618
 30
0.0
 10
48.712205
 20
10.407172
 30
0.0
 10
48.727529
 20
10.431160
 30
0.0
 10
48.743418
 20
10.454867
 30
0.0
 10
48.759872
 20
10.478292
 30
0.0
 10
48.776918
 20
10.501152
 30
0.0
 10
48.794529
 20
10.524012
 30
0.0
 10
48.812732
 20
10.546307
 30
0.0
 10
48.831500
 20
10.568038
 30
0.0
 10
48.850860
 20
10.589769
 30
0.0
 10
48.870785
 20
10.610936
 30
0.0
 10
48.891303
 20
10.631820
 30
0.0
 10
48.912385
 20
10.652423
 30
0.0
 10
48.934060
 20
10.672460
 30
0.0
 10
48.956186
 20
10.692216
 30
0.0
 10
48.978622
 20
10.711407
 30
0.0
 10
49.001398
 20
10.730034
 30
0.0
 10
49.024484
 20
10.748096
 30
0.0
 10
49.047908
 20
10.765876
 30
0.0
 10
49.071643
 20
10.783092
 30
0.0
 10
49.095688
 20
10.799460
 30
0.0
 10
49.120072
 20
10.815547
 30
0.0
 10
49.144767
 20
10.831069
 30
0.0
 10
49.169800
 20
10.846027
 30
0.0
 10
49.195143
 20
10.860703
 30
0.0
 10
49.220826
 20
10.874532
 30
0.0
 10
49.246818
 20
10.887796
 30
0.0
 10
49.273150
 20
10.900778
 30
0.0
 10
49.299791
 20
10.913196
 30
0.0
 10
49.326744
 20
10.925049
 30
0.0
 10
49.354034
 20
10.936338
 30
0.0
 10
49.381636
 20
10.947063
 30
0.0
 10
49.409576
 20
10.957505
 30
0.0
 10
49.437835
 20
10.967100
 30
0.0
 10
49.466415
 20
10.976414
 30
0.0
 10
49.495321
 20
10.984880
 30
0.0
 10
49.524547
 20
10.993065
 30
0.0
 10
49.554099
 20
11.000685
 30
0.0
 10
49.583972
 20
11.007740
 30
0.0
 10
49.614173
 20
11.014514
 30
0.0
 10
49.644692
 20
11.020440
 30
0.0
 10
49.675534
 20
11.026085
 30
0.0
 10
49.706702
 20
11.031165
 30
0.0
 10
49.738193
 20
11.035398
 30
0.0
 10
49.802141
 20
11.042736
 30
0.0
 10
49.867388
 20
11.048098
 30
0.0
 10
49.933919
 20
11.051203
 30
0.0
 10
50.001751
 20
11.051203
 30
0.0
 10
50.072521
 20
11.051203
 30
0.0
 10
50.142137
 20
11.048098
 30
0.0
 10
50.210604
 20
11.042454
 30
0.0
 10
50.277923
 20
11.034834
 30
0.0
 10
50.344084
 20
11.024956
 30
0.0
 10
50.409102
 20
11.012820
 30
0.0
 10
50.472967
 20
10.998709
 30
0.0
 10
50.535685
 20
10.982340
 30
0.0
 10
50.597249
 20
10.963714
 30
0.0
 10
50.657661
 20
10.942829
 30
0.0
 10
50.716925
 20
10.919969
 30
0.0
 10
50.775037
 20
10.894852
 30
0.0
 10
50.832012
 20
10.867476
 30
0.0
 10
50.887876
 20
10.837843
 30
0.0
 10
50.942587
 20
10.806234
 30
0.0
 10
50.996156
 20
10.772367
 30
0.0
 10
51.048573
 20
10.736243
 30
0.0
 10
51.099850
 20
10.697860
 30
0.0
 10
51.149975
 20
10.657503
 30
0.0
 10
51.198952
 20
10.614605
 30
0.0
 10
51.246783
 20
10.569732
 30
0.0
 10
51.293468
 20
10.522883
 30
0.0
 10
51.339008
 20
10.473494
 30
0.0
 10
51.383396
 20
10.422129
 30
0.0
 10
51.426641
 20
10.368507
 30
0.0
 10
51.467018
 20
10.314603
 30
0.0
 10
51.504952
 20
10.260980
 30
0.0
 10
51.541212
 20
10.206512
 30
0.0
 10
51.575806
 20
10.151478
 30
0.0
 10
51.608725
 20
10.095880
 30
0.0
 10
51.639975
 20
10.039718
 30
0.0
 10
51.669552
 20
9.982992
 30
0.0
 10
51.697464
 20
9.925418
 30
0.0
 10
51.723711
 20
9.867280
 30
0.0
 10
51.748264
 20
9.808578
 30
0.0
 10
51.771152
 20
9.749312
 30
0.0
 10
51.792375
 20
9.689480
 30
0.0
 10
51.811933
 20
9.628803
 30
0.0
 10
51.835640
 20
9.546958
 30
0.0
 10
51.856694
 20
9.463138
 30
0.0
 10
51.875123
 20
9.378189
 30
0.0
 10
51.890927
 20
9.291265
 30
0.0
 10
51.904079
 20
9.202929
 30
0.0
 10
51.914606
 20
9.112900
 30
0.0
 10
51.922508
 20
9.021178
 30
0.0
 10
51.927785
 20
8.928045
 30
0.0
 10
51.930325
 20
8.833218
 30
0.0
 10
51.930608
 20
8.785240
 30
0.0
 10
51.930043
 20
8.718354
 30
0.0
 10
51.928350
 20
8.652314
 30
0.0
 10
51.925810
 20
8.586838
 30
0.0
 10
51.922169
 20
8.522209
 30
0.0
 10
51.917484
 20
8.458145
 30
0.0
 10
51.911755
 20
8.394645
 30
0.0
 10
51.905010
 20
8.331992
 30
0.0
 10
51.897221
 20
8.269903
 30
0.0
 10
51.888387
 20
8.208378
 30
0.0
 10
51.878509
 20
8.147700
 30
0.0
 10
51.867587
 20
8.087587
 30
0.0
 10
51.855649
 20
8.028038
 30
0.0
 10
51.842667
 20
7.969336
 30
0.0
 10
51.828641
 20
7.911198
 30
0.0
 10
51.813570
 20
7.853625
 30
0.0
 10
51.797455
 20
7.796898
 30
0.0
 10
51.780324
 20
7.741018
 30
0.0
 10
51.762149
 20
7.685420
 30
0.0
 10
51.742930
 20
7.630669
 30
0.0
 10
51.722666
 20
7.576483
 30
0.0
 10
51.701359
 20
7.523143
 30
0.0
 10
51.679007
 20
7.470367
 30
0.0
 10
51.655639
 20
7.418156
 30
0.0
 10
51.631226
 20
7.366792
 30
0.0
 10
51.605770
 20
7.315992
 30
0.0
 10
51.579269
 20
7.266038
 30
0.0
 10
51.551724
 20
7.216367
 30
0.0
 10
51.526353
 20
7.173187
 30
0.0
 10
51.067154
 20
7.149198
 30
0.0
 10
50.126894
 20
7.119565
 30
0.0
 10
49.186222
 20
7.109687
 30
0.0
 10
48.245550
 20
7.119565
 30
0.0
 10
47.305290
 20
7.149198
 30
0.0
 10
47.017401
 20
7.164156
 30
0.0
 10
46.978124
 20
7.224834
 30
0.0
 10
46.931845
 20
7.300752
 30
0.0
 10
46.887768
 20
7.377798
 30
0.0
 10
46.845886
 20
7.455692
 30
0.0
 10
46.806203
 20
7.534714
 30
0.0
 10
46.768721
 20
7.614583
 30
0.0
 10
46.733440
 20
7.695580
 30
0.0
 10
46.700353
 20
7.777425
 30
0.0
 10
46.669469
 20
7.860398
 30
0.0
 10
46.640801
 20
7.944500
 30
0.0
 10
46.614413
 20
8.029167
 30
0.0
 10
46.590339
 20
8.114963
 30
0.0
 10
46.568552
 20
8.201605
 30
0.0
 10
46.549050
 20
8.289094
 30
0.0
 10
46.531835
 20
8.377429
 30
0.0
 10
46.516933
 20
8.466894
 30
0.0
 10
46.504318
 20
8.557205
 30
0.0
 10
46.493989
 20
8.648363
 30
0.0
 10
46.485974
 20
8.740367
 30
0.0
 10
46.480245
 20
8.833218
 30
0.0
 10
46.476801
 20
8.926916
 30
0.0
 10
46.475673
 20
9.021743
 30
0.0
 10
46.475955
 20
9.084678
 30
0.0
 10
46.476801
 20
9.147614
 30
0.0
 10
46.478495
 20
9.210549
 30
0.0
 10
46.480753
 20
9.273203
 30
0.0
 10
46.483631
 20
9.335856
 30
0.0
 10
46.487131
 20
9.398227
 30
0.0
 10
46.491279
 20
9.460598
 30
0.0
 10
46.496049
 20
9.522969
 30
0.0
 10
46.501468
 20
9.585058
 30
0.0
 10
46.507507
 20
9.647147
 30
0.0
 10
46.514196
 20
9.708954
 30
0.0
 10
46.521505
 20
9.770760
 30
0.0
 10
46.529464
 20
9.832567
 30
0.0
 10
46.538044
 20
9.894092
 30
0.0
 10
46.547272
 20
9.955616
 30
0.0
 10
46.557122
 20
10.016858
 30
0.0
 10
46.567621
 20
10.078100
 30
0.0
 10
46.578740
 20
10.139343
 30
0.0
 10
46.590509
 20
10.200303
 30
0.0
 10
46.602927
 20
10.261263
 30
0.0
 10
46.615965
 20
10.321940
 30
0.0
 10
46.629653
 20
10.382618
 30
0.0
 10
46.643962
 20
10.443296
 30
0.0
 10
46.658919
 20
10.503692
 30
0.0
 10
46.674498
 20
10.564087
 30
0.0
 10
46.690726
 20
10.624200
 30
0.0
 10
46.707603
 20
10.684314
 30
0.0
 10
46.725101
 20
10.744427
 30
0.0
 10
46.743247
 20
10.804258
 30
0.0
 10
46.762015
 20
10.864089
 30
0.0
 10
46.781432
 20
10.923920
 30
0.0
 10
46.801470
 20
10.983469
 30
0.0
 10
46.822157
 20
11.042736
 30
0.0
 10
46.843465
 20
11.102285
 30
0.0
 10
46.865421
 20
11.161552
 30
0.0
 10
46.887999
 20
11.220536
 30
0.0
 10
46.911226
 20
11.279520
 30
0.0
 10
46.935102
 20
11.338505
 30
0.0
 10
46.959599
 20
11.397207
 30
0.0
 10
46.984745
 20
11.455909
 30
0.0
 10
47.010512
 20
11.514612
 30
0.0
 10
47.036928
 20
11.573032
 30
0.0
 10
47.063965
 20
11.631452
 30
0.0
 10
47.091651
 20
11.689589
 30
0.0
 10
47.119969
 20
11.747445
 30
0.0
 10
47.148925
 20
11.805583
 30
0.0
 10
47.178513
 20
11.863438
 30
0.0
 10
47.208739
 20
11.921012
 30
0.0
 10
47.239603
 20
11.978585
 30
0.0
 10
47.271105
 20
12.036158
 30
0.0
 10
47.303244
 20
12.093449
 30
0.0
 10
47.336016
 20
12.150740
 30
0.0
 10
47.369425
 20
12.207749
 30
0.0
 10
47.403470
 20
12.264758
 30
0.0
 10
47.438155
 20
12.321485
 30
0.0
 10
47.473469
 20
12.378212
 30
0.0
 10
47.509427
 20
12.434938
 30
0.0
 10
47.546020
 20
12.491383
 30
0.0
 10
47.583245
 20
12.547827
 30
0.0
 10
47.621111
 20
12.603989
 30
0.0
 10
47.659609
 20
12.660152
 30
0.0
 10
47.698745
 20
12.716032
 30
0.0
 10
47.738518
 20
12.771912
 30
0.0
 10
47.778930
 20
12.827792
 30
0.0
 10
47.819973
 20
12.883389
 30
0.0
 10
47.861655
 20
12.938987
 30
0.0
 10
47.903974
 20
12.994303
 30
0.0
 10
47.946931
 20
13.049618
 30
0.0
 10
47.990520
 20
13.104652
 30
0.0
 10
48.034750
 20
13.159685
 30
0.0
 10
48.079612
 20
13.214718
 30
0.0
 10
48.171250
 20
13.324220
 30
0.0
 10
48.265433
 20
13.433158
 30
0.0
 10
48.355527
 20
13.534194
 30
0.0
 10
48.440521
 20
13.627045
 30
0.0
 10
48.526706
 20
13.719049
 30
0.0
 10
48.614073
 20
13.809925
 30
0.0
 10
48.702632
 20
13.899672
 30
0.0
 10
48.792378
 20
13.988289
 30
0.0
 10
48.883316
 20
14.075778
 30
0.0
 10
48.975436
 20
14.162138
 30
0.0
 10
49.068747
 20
14.247652
 30
0.0
 10
49.163247
 20
14.332036
 30
0.0
 10
49.258934
 20
14.415009
 30
0.0
 10
49.355810
 20
14.497418
 30
0.0
 10
49.453873
 20
14.578416
 30
0.0
 10
49.553128
 20
14.658285
 30
0.0
 10
49.653571
 20
14.737307
 30
0.0
 10
49.755199
 20
14.815206
 30
0.0
 10
49.858016
 20
14.891971
 30
0.0
 10
49.962023
 20
14.967606
 30
0.0
 10
50.067218
 20
15.042113
 30
0.0
 10
50.173619
 20
15.115773
 30
0.0
 10
50.281261
 20
15.188304
 30
0.0
 10
50.390131
 20
15.259424
 30
0.0
 10
50.500232
 20
15.329697
 30
0.0
 10
50.611560
 20
15.399124
 30
0.0
 10
50.724116
 20
15.467139
 30
0.0
 10
50.837902
 20
15.534308
 30
0.0
 10
50.952916
 20
15.600066
 30
0.0
 10
51.069164
 20
15.664977
 30
0.0
 10
51.186636
 20
15.729042
 30
0.0
 10
51.305339
 20
15.791695
 30
0.0
 10
51.425269
 20
15.853219
 30
0.0
 10
51.546430
 20
15.913897
 30
0.0
 10
51.668818
 20
15.973446
 30
0.0
 10
51.792434
 20
16.031866
 30
0.0
 10
51.917287
 20
16.089157
 30
0.0
 10
52.043350
 20
16.145319
 30
0.0
 10
52.170660
 20
16.200635
 30
0.0
 10
52.299212
 20
16.254822
 30
0.0
 10
52.363926
 20
16.281351
 30
0.0
 10
51.000228
 20
18.692657
 30
0.0
 10
50.865803
 20
18.622948
 30
0.0
 10
50.732690
 20
18.551546
 30
0.0
 10
50.600884
 20
18.479297
 30
0.0
 10
50.470390
 20
18.405355
 30
0.0
 10
50.341205
 20
18.330284
 30
0.0
 10
50.213328
 20
18.253802
 30
0.0
 10
50.086768
 20
18.175908
 30
0.0
 10
49.961515
 20
18.096604
 30
0.0
 10
49.837569
 20
18.016171
 30
0.0
 10
49.714935
 20
17.934326
 30
0.0
 10
49.593616
 20
17.851071
 30
0.0
 10
49.473604
 20
17.766686
 30
0.0
 10
49.354901
 20
17.680891
 30
0.0
 10
49.237511
 20
17.593684
 30
0.0
 10
49.121433
 20
17.505066
 30
0.0
 10
49.006658
 20
17.415319
 30
0.0
 10
48.893199
 20
17.323879
 30
0.0
 10
48.781047
 20
17.231593
 30
0.0
 10
48.670207
 20
17.137613
 30
0.0
 10
48.560730
 20
17.042504
 30
0.0
 10
48.452600
 20
16.945984
 30
0.0
 10
48.345832
 20
16.848053
 30
0.0
 10
48.240417
 20
16.748711
 30
0.0
 10
48.136353
 20
16.647957
 30
0.0
 10
48.033644
 20
16.545793
 30
0.0
 10
47.932289
 20
16.442499
 30
0.0
 10
47.832289
 20
16.337513
 30
0.0
 10
47.733644
 20
16.231397
 30
0.0
 10
47.636351
 20
16.123871
 30
0.0
 10
47.540412
 20
16.014933
 30
0.0
 10
47.445828
 20
15.904584
 30
0.0
 10
47.352599
 20
15.792824
 30
0.0
 10
47.260722
 20
15.679653
 30
0.0
 10
47.170199
 20
15.565353
 30
0.0
 10
47.081031
 20
15.449642
 30
0.0
 10
46.993215
 20
15.332237
 30
0.0
 10
46.906756
 20
15.213704
 30
0.0
 10
46.821649
 20
15.093759
 30
0.0
 10
46.732780
 20
14.964219
 30
0.0
 10
46.646256
 20
14.834115
 30
0.0
 10
46.562078
 20
14.703723
 30
0.0
 10
46.480250
 20
14.572772
 30
0.0
 10
46.400765
 20
14.441820
 30
0.0
 10
46.323637
 20
14.310305
 30
0.0
 10
46.248848
 20
14.178507
 30
0.0
 10
46.176401
 20
14.046145
 30
0.0
 10
46.106297
 20
13.913783
 30
0.0
 10
46.072148
 20
13.847178
 30
0.0
 10
46.005572
 20
13.714252
 30
0.0
 10
45.973145
 20
13.647365
 30
0.0
 10
45.941338
 20
13.580760
 30
0.0
 10
45.910096
 20
13.513874
 30
0.0
 10
45.879447
 20
13.446987
 30
0.0
 10
45.849390
 20
13.379818
 30
0.0
 10
45.819926
 20
13.312649
 30
0.0
 10
45.791027
 20
13.245480
 30
0.0
 10
45.762748
 20
13.178029
 30
0.0
 10
45.735006
 20
13.110578
 30
0.0
 10
45.707884
 20
13.043127
 30
0.0
 10
45.681355
 20
12.975676
 30
0.0
 10
45.655391
 20
12.907943
 30
0.0
 10
45.630047
 20
12.840209
 30
0.0
 10
45.605268
 20
12.772194
 30
0.0
 10
45.581054
 20
12.704460
 30
0.0
 10
45.557460
 20
12.636163
 30
0.0
 10
45.534430
 20
12.568147
 30
0.0
 10
45.512022
 20
12.499849
 30
0.0
 10
45.490206
 20
12.431552
 30
0.0
 10
45.468983
 20
12.363254
 30
0.0
 10
45.448381
 20
12.294674
 30
0.0
 10
45.428343
 20
12.226094
 30
0.0
 10
45.408926
 20
12.157232
 30
0.0
 10
45.390102
 20
12.088652
 30
0.0
 10
45.371870
 20
12.019507
 30
0.0
 10
45.354232
 20
11.950645
 30
0.0
 10
45.337214
 20
11.881500
 30
0.0
 10
45.320760
 20
11.812356
 30
0.0
 10
45.304927
 20
11.742929
 30
0.0
 10
45.289687
 20
11.673503
 30
0.0
 10
45.275040
 20
11.604076
 30
0.0
 10
45.261014
 20
11.534367
 30
0.0
 10
45.247552
 20
11.464658
 30
0.0
 10
45.234710
 20
11.394949
 30
0.0
 10
45.222462
 20
11.324958
 30
0.0
 10
45.210806
 20
11.254967
 30
0.0
 10
45.199743
 20
11.184694
 30
0.0
 10
45.189273
 20
11.114420
 30
0.0
 10
45.179423
 20
11.044147
 30
0.0
 10
45.170166
 20
10.973874
 30
0.0
 10
45.161502
 20
10.903318
 30
0.0
 10
45.153430
 20
10.832763
 30
0.0
 10
45.145952
 20
10.761925
 30
0.0
 10
45.139065
 20
10.691087
 30
0.0
 10
45.132800
 20
10.620249
 30
0.0
 10
45.127127
 20
10.549129
 30
0.0
 10
45.122047
 20
10.478009
 30
0.0
 10
45.117560
 20
10.406889
 30
0.0
 10
45.113665
 20
10.335487
 30
0.0
 10
45.110392
 20
10.264085
 30
0.0
 10
45.107569
 20
10.192400
 30
0.0
 10
45.105594
 20
10.120998
 30
0.0
 10
45.104183
 20
10.049032
 30
0.0
 10
45.103336
 20
9.977347
 30
0.0
 10
45.103223
 20
9.850629
 30
0.0
 10
45.104634
 20
9.741974
 30
0.0
 10
45.107654
 20
9.634165
 30
0.0
 10
45.112170
 20
9.527203
 30
0.0
 10
45.118181
 20
9.421087
 30
0.0
 10
45.125716
 20
9.315818
 30
0.0
 10
45.134747
 20
9.211678
 30
0.0
 10
45.145302
 20
9.108385
 30
0.0
 10
45.157325
 20
9.005656
 30
0.0
 10
45.170900
 20
8.904056
 30
0.0
 10
45.185942
 20
8.803303
 30
0.0
 10
45.202509
 20
8.703678
 30
0.0
 10
45.220571
 20
8.604618
 30
0.0
 10
45.240157
 20
8.506687
 30
0.0
 10
45.261239
 20
8.409320
 30
0.0
 10
45.283817
 20
8.313083
 30
0.0
 10
45.307919
 20
8.217692
 30
0.0
 10
45.333516
 20
8.123147
 30
0.0
 10
45.360610
 20
8.029732
 30
0.0
 10
45.389227
 20
7.936880
 30
0.0
 10
45.419425
 20
7.845158
 30
0.0
 10
45.451231
 20
7.754283
 30
0.0
 10
45.484618
 20
7.664536
 30
0.0
 10
45.519586
 20
7.575636
 30
0.0
 10
45.556162
 20
7.487583
 30
0.0
 10
45.594318
 20
7.400376
 30
0.0
 10
45.634055
 20
7.314298
 30
0.0
 10
45.665353
 20
7.249669
 30
0.0
 10
45.427694
 20
7.267167
 30
0.0
 10
44.491140
 20
7.355785
 30
0.0
 10
43.556645
 20
7.463876
 30
0.0
 10
42.624635
 20
7.591440
 30
0.0
 10
41.695474
 20
7.738760
 30
0.0
 10
40.769616
 20
7.905272
 30
0.0
 10
39.847455
 20
8.091256
 30
0.0
 10
38.929386
 20
8.296432
 30
0.0
 10
38.015833
 20
8.520798
 30
0.0
 10
37.107162
 20
8.764356
 30
0.0
 10
36.203797
 20
9.026823
 30
0.0
 10
35.306104
 20
9.308198
 30
0.0
 10
34.414508
 20
9.608200
 30
0.0
 10
33.529403
 20
9.926829
 30
0.0
 10
32.651155
 20
10.263803
 30
0.0
 10
31.780189
 20
10.619403
 30
0.0
 10
30.916815
 20
10.993065
 30
0.0
 10
30.061484
 20
11.384507
 30
0.0
 10
29.214535
 20
11.794012
 30
0.0
 10
28.376335
 20
12.221014
 30
0.0
 10
27.547280
 20
12.665514
 30
0.0
 10
26.727707
 20
13.127512
 30
0.0
 10
25.917983
 20
13.606443
 30
0.0
 10
25.118476
 20
14.102025
 30
0.0
 10
24.329524
 20
14.614258
 30
0.0
 10
23.551465
 20
15.143148
 30
0.0
 10
22.784668
 20
15.688119
 30
0.0
 10
22.029413
 20
16.248895
 30
0.0
 10
21.286096
 20
16.825475
 30
0.0
 10
20.555084
 20
17.417577
 30
0.0
 10
19.836546
 20
18.024637
 30
0.0
 10
19.130990
 20
18.646937
 30
0.0
 10
18.438417
 20
19.283631
 30
0.0
 10
17.759390
 20
19.934717
 30
0.0
 10
17.094193
 20
20.599915
 30
0.0
 10
16.443106
 20
21.278942
 30
0.0
 10
15.806413
 20
21.971515
 30
0.0
 10
15.184113
 20
22.677071
 30
0.0
 10
14.577053
 20
23.395608
 30
0.0
 10
13.984950
 20
24.126620
 30
0.0
 10
13.408370
 20
24.869937
 30
0.0
 10
12.847595
 20
25.625192
 30
0.0
 10
12.302624
 20
26.391990
 30
0.0
 10
11.773739
 20
27.170048
 30
0.0
 10
11.261506
 20
27.959001
 30
0.0
 10
10.765924
 20
28.758508
 30
0.0
 10
10.286993
 20
29.568232
 30
0.0
 10
9.824995
 20
30.387805
 30
0.0
 10
9.380495
 20
31.216861
 30
0.0
 10
8.953493
 20
32.055061
 30
0.0
 10
8.543988
 20
32.902010
 30
0.0
 10
8.152546
 20
33.757341
 30
0.0
 10
7.778884
 20
34.620715
 30
0.0
 10
7.423284
 20
35.491681
 30
0.0
 10
7.086310
 20
36.369928
 30
0.0
 10
6.767682
 20
37.255034
 30
0.0
 10
6.467679
 20
38.146630
 30
0.0
 10
6.186304
 20
39.044323
 30
0.0
 10
5.923837
 20
39.947688
 30
0.0
 10
5.680279
 20
40.856359
 30
0.0
 10
5.455913
 20
41.769912
 30
0.0
 10
5.250737
 20
42.687981
 30
0.0
 10
5.064753
 20
43.610142
 30
0.0
 10
4.898242
 20
44.536000
 30
0.0
 10
4.750922
 20
45.465157
 30
0.0
 10
4.623357
 20
46.397168
 30
0.0
 10
4.515266
 20
47.331662
 30
0.0
 10
4.426648
 20
48.268217
 30
0.0
 10
4.357786
 20
49.206403
 30
0.0
 10
4.308679
 20
50.145836
 30
0.0
 10
4.279046
 20
51.086096
 30
0.0
 10
4.274542
 20
51.634363
 30
0.0
  0
LWPOLYLINE
  5
102
100
AcDbEntity
  8
Calque_1
 62
7
100
AcDbPolyline
 90
259
 70
1
 10
4.292604
 20
53.363028
 30
0.0
 10
4.309820
 20
53.910612
 30
0.0
 10
4.358926
 20
54.850045
 30
0.0
 10
4.427788
 20
55.788231
 30
0.0
 10
4.429764
 20
55.808749
 30
0.0
 10
4.441900
 20
55.827178
 30
0.0
 10
4.470404
 20
55.868156
 30
0.0
 10
4.499755
 20
55.908768
 30
0.0
 10
4.529953
 20
55.948957
 30
0.0
 10
4.561280
 20
55.988778
 30
0.0
 10
4.593453
 20
56.028205
 30
0.0
 10
4.626473
 20
56.067264
 30
0.0
 10
4.660622
 20
56.105900
 30
0.0
 10
4.695617
 20
56.144142
 30
0.0
 10
4.731742
 20
56.182016
 30
0.0
 10
4.768431
 20
56.219213
 30
0.0
 10
4.805684
 20
56.255394
 30
0.0
 10
4.843220
 20
56.290615
 30
0.0
 10
4.881320
 20
56.324820
 30
0.0
 10
4.919984
 20
56.358038
 30
0.0
 10
4.958648
 20
56.390268
 30
0.0
 10
4.998160
 20
56.421510
 30
0.0
 10
5.037953
 20
56.451764
 30
0.0
 10
5.078028
 20
56.481002
 30
0.0
 10
5.118668
 20
56.509281
 30
0.0
 10
5.159873
 20
56.536543
 30
0.0
 10
5.201360
 20
56.562818
 30
0.0
 10
5.243128
 20
56.588105
 30
0.0
 10
5.285462
 20
56.612405
 30
0.0
 10
5.328360
 20
56.635716
 30
0.0
 10
5.371540
 20
56.658012
 30
0.0
 10
5.415284
 20
56.679348
 30
0.0
 10
5.459311
 20
56.699668
 30
0.0
 10
5.503620
 20
56.719000
 30
0.0
 10
5.548775
 20
56.737373
 30
0.0
 10
5.593931
 20
56.754701
 30
0.0
 10
5.639933
 20
56.771070
 30
0.0
 10
5.685935
 20
56.786451
 30
0.0
 10
5.732784
 20
56.800816
 30
0.0
 10
5.779915
 20
56.814222
 30
0.0
 10
5.827328
 20
56.826611
 30
0.0
 10
5.875306
 20
56.838013
 30
0.0
 10
5.923566
 20
56.848427
 30
0.0
 10
5.972391
 20
56.857853
 30
0.0
 10
6.021780
 20
56.866264
 30
0.0
 10
6.071451
 20
56.873714
 30
0.0
 10
6.121404
 20
56.880149
 30
0.0
 10
6.171922
 20
56.885624
 30
0.0
 10
6.223004
 20
56.890083
 30
0.0
 10
6.274368
 20
56.893554
 30
0.0
 10
6.326015
 20
56.896094
 30
0.0
 10
6.378226
 20
56.897506
 30
0.0
 10
6.431002
 20
56.898070
 30
0.0
 10
6.482931
 20
56.897506
 30
0.0
 10
6.534577
 20
56.896094
 30
0.0
 10
6.585660
 20
56.893554
 30
0.0
 10
6.636460
 20
56.890083
 30
0.0
 10
6.686695
 20
56.885624
 30
0.0
 10
6.736648
 20
56.880149
 30
0.0
 10
6.786320
 20
56.873714
 30
0.0
 10
6.835426
 20
56.866264
 30
0.0
 10
6.884251
 20
56.857853
 30
0.0
 10
6.932511
 20
56.848427
 30
0.0
 10
6.980488
 20
56.838013
 30
0.0
 10
7.027902
 20
56.826611
 30
0.0
 10
7.075033
 20
56.814222
 30
0.0
 10
7.121882
 20
56.800816
 30
0.0
 10
7.168166
 20
56.786451
 30
0.0
 10
7.214168
 20
56.771070
 30
0.0
 10
7.259606
 20
56.754701
 30
0.0
 10
7.304762
 20
56.737373
 30
0.0
 10
7.349353
 20
56.719000
 30
0.0
 10
7.393662
 20
56.699668
 30
0.0
 10
7.437688
 20
56.679348
 30
0.0
 10
7.481151
 20
56.658012
 30
0.0
 10
7.524331
 20
56.635716
 30
0.0
 10
7.566946
 20
56.612405
 30
0.0
 10
7.609280
 20
56.588105
 30
0.0
 10
7.651331
 20
56.562818
 30
0.0
 10
7.692817
 20
56.536543
 30
0.0
 10
7.734022
 20
56.509281
 30
0.0
 10
7.774662
 20
56.481002
 30
0.0
 10
7.815020
 20
56.451764
 30
0.0
 10
7.854813
 20
56.421510
 30
0.0
 10
7.894324
 20
56.390268
 30
0.0
 10
7.933553
 20
56.358038
 30
0.0
 10
7.972217
 20
56.324820
 30
0.0
 10
8.010317
 20
56.290615
 30
0.0
 10
8.048417
 20
56.255394
 30
0.0
 10
8.085953
 20
56.219213
 30
0.0
 10
8.122924
 20
56.182016
 30
0.0
 10
8.159331
 20
56.144142
 30
0.0
 10
8.194891
 20
56.105900
 30
0.0
 10
8.229322
 20
56.067264
 30
0.0
 10
8.262906
 20
56.028205
 30
0.0
 10
8.295362
 20
55.988778
 30
0.0
 10
8.326971
 20
55.948957
 30
0.0
 10
8.357451
 20
55.908768
 30
0.0
 10
8.387084
 20
55.868156
 30
0.0
 10
8.415871
 20
55.827178
 30
0.0
 10
8.443528
 20
55.785804
 30
0.0
 10
8.470340
 20
55.744035
 30
0.0
 10
8.496022
 20
55.701871
 30
0.0
 10
8.520857
 20
55.659312
 30
0.0
 10
8.544564
 20
55.616386
 30
0.0
 10
8.567424
 20
55.573037
 30
0.0
 10
8.589155
 20
55.529320
 30
0.0
 10
8.610040
 20
55.485209
 30
0.0
 10
8.630077
 20
55.440703
 30
0.0
 10
8.648986
 20
55.395801
 30
0.0
 10
8.667048
 20
55.350533
 30
0.0
 10
8.683982
 20
55.304841
 30
0.0
 10
8.700068
 20
55.258782
 30
0.0
 10
8.715026
 20
55.212328
 30
0.0
 10
8.729137
 20
55.165480
 30
0.0
 10
8.742120
 20
55.118264
 30
0.0
 10
8.754255
 20
55.070625
 30
0.0
 10
8.765544
 20
55.022619
 30
0.0
 10
8.775704
 20
54.974189
 30
0.0
 10
8.785017
 20
54.925393
 30
0.0
 10
8.793202
 20
54.876202
 30
0.0
 10
8.800540
 20
54.826632
 30
0.0
 10
8.806748
 20
54.776662
 30
0.0
 10
8.812111
 20
54.726302
 30
0.0
 10
8.816626
 20
54.675553
 30
0.0
 10
8.820013
 20
54.624409
 30
0.0
 10
8.822271
 20
54.572881
 30
0.0
 10
8.823682
 20
54.520955
 30
0.0
 10
8.824246
 20
54.468645
 30
0.0
 10
8.823682
 20
54.416730
 30
0.0
 10
8.822271
 20
54.365179
 30
0.0
 10
8.820013
 20
54.313990
 30
0.0
 10
8.816344
 20
54.263162
 30
0.0
 10
8.812111
 20
54.212695
 30
0.0
 10
8.806748
 20
54.162592
 30
0.0
 10
8.800257
 20
54.112847
 30
0.0
 10
8.792920
 20
54.063461
 30
0.0
 10
8.784735
 20
54.014439
 30
0.0
 10
8.775422
 20
53.965781
 30
0.0
 10
8.765262
 20
53.917482
 30
0.0
 10
8.753973
 20
53.869543
 30
0.0
 10
8.741837
 20
53.821961
 30
0.0
 10
8.728573
 20
53.774745
 30
0.0
 10
8.714462
 20
53.727893
 30
0.0
 10
8.699222
 20
53.681397
 30
0.0
 10
8.683135
 20
53.635262
 30
0.0
 10
8.666202
 20
53.589494
 30
0.0
 10
8.648140
 20
53.544085
 30
0.0
 10
8.628948
 20
53.499036
 30
0.0
 10
8.608911
 20
53.454344
 30
0.0
 10
8.588026
 20
53.410018
 30
0.0
 10
8.566013
 20
53.366053
 30
0.0
 10
8.543153
 20
53.322447
 30
0.0
 10
8.519164
 20
53.279202
 30
0.0
 10
8.494328
 20
53.236321
 30
0.0
 10
8.468364
 20
53.193805
 30
0.0
 10
8.441553
 20
53.151641
 30
0.0
 10
8.413613
 20
53.109843
 30
0.0
 10
8.384826
 20
53.068408
 30
0.0
 10
8.355193
 20
53.027327
 30
0.0
 10
8.324431
 20
52.986617
 30
0.0
 10
8.292540
 20
52.946262
 30
0.0
 10
8.259802
 20
52.906268
 30
0.0
 10
8.226217
 20
52.866636
 30
0.0
 10
8.191504
 20
52.827367
 30
0.0
 10
8.155944
 20
52.788457
 30
0.0
 10
8.119255
 20
52.749909
 30
0.0
 10
8.082002
 20
52.712063
 30
0.0
 10
8.044184
 20
52.675221
 30
0.0
 10
8.006366
 20
52.639393
 30
0.0
 10
7.967702
 20
52.604573
 30
0.0
 10
7.929037
 20
52.570762
 30
0.0
 10
7.889808
 20
52.537960
 30
0.0
 10
7.850015
 20
52.506167
 30
0.0
 10
7.810222
 20
52.475385
 30
0.0
 10
7.769864
 20
52.445611
 30
0.0
 10
7.728942
 20
52.416850
 30
0.0
 10
7.687737
 20
52.389079
 30
0.0
 10
7.646251
 20
52.362324
 30
0.0
 10
7.604482
 20
52.336586
 30
0.0
 10
7.562148
 20
52.311863
 30
0.0
 10
7.519251
 20
52.288128
 30
0.0
 10
7.476353
 20
52.265409
 30
0.0
 10
7.432891
 20
52.243706
 30
0.0
 10
7.388864
 20
52.223019
 30
0.0
 10
7.344837
 20
52.203349
 30
0.0
 10
7.299964
 20
52.184665
 30
0.0
 10
7.255091
 20
52.166998
 30
0.0
 10
7.209653
 20
52.150347
 30
0.0
 10
7.163933
 20
52.134712
 30
0.0
 10
7.117648
 20
52.120093
 30
0.0
 10
7.071082
 20
52.106462
 30
0.0
 10
7.024233
 20
52.093846
 30
0.0
 10
6.977102
 20
52.082247
 30
0.0
 10
6.929406
 20
52.071635
 30
0.0
 10
6.881146
 20
52.062040
 30
0.0
 10
6.832604
 20
52.053460
 30
0.0
 10
6.783780
 20
52.045897
 30
0.0
 10
6.734673
 20
52.039349
 30
0.0
 10
6.685002
 20
52.033789
 30
0.0
 10
6.635048
 20
52.029246
 30
0.0
 10
6.584531
 20
52.025718
 30
0.0
 10
6.533731
 20
52.023178
 30
0.0
 10
6.482648
 20
52.021767
 30
0.0
 10
6.431002
 20
52.021202
 30
0.0
 10
6.378791
 20
52.021767
 30
0.0
 10
6.326862
 20
52.023178
 30
0.0
 10
6.275497
 20
52.025718
 30
0.0
 10
6.224415
 20
52.029246
 30
0.0
 10
6.173897
 20
52.033761
 30
0.0
 10
6.123662
 20
52.039293
 30
0.0
 10
6.073708
 20
52.045812
 30
0.0
 10
6.024320
 20
52.053347
 30
0.0
 10
5.975495
 20
52.061899
 30
0.0
 10
5.926953
 20
52.071438
 30
0.0
 10
5.878693
 20
52.081993
 30
0.0
 10
5.830997
 20
52.093536
 30
0.0
 10
5.783866
 20
52.106095
 30
0.0
 10
5.737017
 20
52.119641
 30
0.0
 10
5.690451
 20
52.134204
 30
0.0
 10
5.644448
 20
52.149783
 30
0.0
 10
5.598728
 20
52.166349
 30
0.0
 10
5.553573
 20
52.183932
 30
0.0
 10
5.508700
 20
52.202502
 30
0.0
 10
5.464391
 20
52.222088
 30
0.0
 10
5.420364
 20
52.242662
 30
0.0
 10
5.376620
 20
52.264252
 30
0.0
 10
5.333440
 20
52.286858
 30
0.0
 10
5.290824
 20
52.310452
 30
0.0
 10
5.248491
 20
52.335062
 30
0.0
 10
5.206440
 20
52.360659
 30
0.0
 10
5.164953
 20
52.387273
 30
0.0
 10
5.124031
 20
52.414874
 30
0.0
 10
5.083108
 20
52.443494
 30
0.0
 10
5.043033
 20
52.473119
 30
0.0
 10
5.003240
 20
52.503746
 30
0.0
 10
4.963728
 20
52.535380
 30
0.0
 10
4.924782
 20
52.568013
 30
0.0
 10
4.886117
 20
52.601654
 30
0.0
 10
4.847735
 20
52.636300
 30
0.0
 10
4.809917
 20
52.671947
 30
0.0
 10
4.772664
 20
52.708602
 30
0.0
 10
4.735693
 20
52.746259
 30
0.0
 10
4.699568
 20
52.784608
 30
0.0
 10
4.664291
 20
52.823334
 30
0.0
 10
4.629860
 20
52.862436
 30
0.0
 10
4.596557
 20
52.901916
 30
0.0
 10
4.564102
 20
52.941772
 30
0.0
 10
4.532775
 20
52.982005
 30
0.0
 10
4.502295
 20
53.022620
 30
0.0
 10
4.472662
 20
53.063607
 30
0.0
 10
4.444157
 20
53.104969
 30
0.0
 10
4.416782
 20
53.146716
 30
0.0
 10
4.390253
 20
53.188837
 30
0.0
 10
4.364571
 20
53.231332
 30
0.0
 10
4.340017
 20
53.274207
 30
0.0
 10
4.316311
 20
53.317460
 30
0.0
 10
4.293451
 20
53.361086
 30
0.0
 10
4.292604
 20
53.363028
 30
0.0
  0
LWPOLYLINE
  5
103
100
AcDbEntity
  8
Calque_1
 62
7
100
AcDbPolyline
 90
52
 70
1
 10
44.336747
 20
92.022545
 30
0.0
 10
44.337876
 20
92.157447
 30
0.0
 10
44.341065
 20
92.294889
 30
0.0
 10
44.346230
 20
92.434589
 30
0.0
 10
44.353342
 20
92.576547
 30
0.0
 10
44.362486
 20
92.720480
 30
0.0
 10
44.373577
 20
92.866954
 30
0.0
 10
44.386672
 20
93.015685
 30
0.0
 10
44.401743
 20
93.166674
 30
0.0
 10
44.418817
 20
93.319638
 30
0.0
 10
44.437867
 20
93.475142
 30
0.0
 10
44.466343
 20
93.685680
 30
0.0
 10
44.498319
 20
93.900451
 30
0.0
 10
44.533653
 20
94.118609
 30
0.0
 10
44.572346
 20
94.340436
 30
0.0
 10
44.614425
 20
94.565931
 30
0.0
 10
44.659835
 20
94.795096
 30
0.0
 10
44.708603
 20
95.027929
 30
0.0
 10
44.760729
 20
95.264431
 30
0.0
 10
44.816214
 20
95.504602
 30
0.0
 10
44.875086
 20
95.748442
 30
0.0
 10
44.905763
 20
95.871491
 30
0.0
 10
45.671150
 20
95.779769
 30
0.0
 10
45.611658
 20
95.624265
 30
0.0
 10
45.554084
 20
95.467914
 30
0.0
 10
45.498402
 20
95.310434
 30
0.0
 10
45.444639
 20
95.152671
 30
0.0
 10
45.392766
 20
94.993780
 30
0.0
 10
45.342785
 20
94.834325
 30
0.0
 10
45.294694
 20
94.674022
 30
0.0
 10
45.248522
 20
94.512874
 30
0.0
 10
45.204242
 20
94.351160
 30
0.0
 10
45.161880
 20
94.188600
 30
0.0
 10
45.121409
 20
94.025194
 30
0.0
 10
45.082830
 20
93.861222
 30
0.0
 10
45.046141
 20
93.696122
 30
0.0
 10
45.011540
 20
93.530740
 30
0.0
 10
44.979028
 20
93.364511
 30
0.0
 10
44.948605
 20
93.197436
 30
0.0
 10
44.920270
 20
93.030078
 30
0.0
 10
44.894051
 20
92.861591
 30
0.0
 10
44.869921
 20
92.692822
 30
0.0
 10
44.847880
 20
92.523207
 30
0.0
 10
44.827927
 20
92.353027
 30
0.0
 10
44.810090
 20
92.182000
 30
0.0
 10
44.794342
 20
92.010409
 30
0.0
 10
44.780711
 20
91.838254
 30
0.0
 10
44.769168
 20
91.665251
 30
0.0
 10
44.765781
 20
91.607396
 30
0.0
 10
44.345835
 20
91.446529
 30
0.0
 10
44.337509
 20
91.889618
 30
0.0
 10
44.336747
 20
92.022545
 30
0.0
  0
LWPOLYLINE
  5
104
100
AcDbEntity
  8
Calque_1
 62
7
100
AcDbPolyline
 90
102
 70
1
 10
52.501125
 20
93.102891
 30
0.0
 10
52.502537
 20
93.145225
 30
0.0
 10
52.505782
 20
93.185300
 30
0.0
 10
52.510777
 20
93.223965
 30
0.0
 10
52.517551
 20
93.260936
 30
0.0
 10
52.526074
 20
93.296214
 30
0.0
 10
52.536375
 20
93.329516
 30
0.0
 10
52.548454
 20
93.361407
 30
0.0
 10
52.562283
 20
93.391322
 30
0.0
 10
52.577890
 20
93.419827
 30
0.0
 10
52.595247
 20
93.446356
 30
0.0
 10
52.614381
 20
93.471191
 30
0.0
 10
52.635266
 20
93.494334
 30
0.0
 10
52.657872
 20
93.516065
 30
0.0
 10
52.681973
 20
93.535820
 30
0.0
 10
52.707543
 20
93.553882
 30
0.0
 10
52.734580
 20
93.570251
 30
0.0
 10
52.763112
 20
93.584645
 30
0.0
 10
52.793113
 20
93.597627
 30
0.0
 10
52.824609
 20
93.608916
 30
0.0
 10
52.857572
 20
93.618229
 30
0.0
 10
52.892003
 20
93.626131
 30
0.0
 10
52.927902
 20
93.632058
 30
0.0
 10
52.965296
 20
93.636291
 30
0.0
 10
53.004187
 20
93.638831
 30
0.0
 10
53.044516
 20
93.639678
 30
0.0
 10
53.088345
 20
93.638831
 30
0.0
 10
53.130368
 20
93.636291
 30
0.0
 10
53.170557
 20
93.632058
 30
0.0
 10
53.208967
 20
93.626131
 30
0.0
 10
53.245543
 20
93.618229
 30
0.0
 10
53.280285
 20
93.608916
 30
0.0
 10
53.313220
 20
93.597627
 30
0.0
 10
53.344349
 20
93.584645
 30
0.0
 10
53.373672
 20
93.570251
 30
0.0
 10
53.401160
 20
93.553882
 30
0.0
 10
53.426843
 20
93.535820
 30
0.0
 10
53.450690
 20
93.516065
 30
0.0
 10
53.472760
 20
93.494334
 30
0.0
 10
53.493052
 20
93.471191
 30
0.0
 10
53.511650
 20
93.446356
 30
0.0
 10
53.528555
 20
93.419827
 30
0.0
 10
53.543711
 20
93.391322
 30
0.0
 10
53.557173
 20
93.361407
 30
0.0
 10
53.568885
 20
93.329516
 30
0.0
 10
53.578904
 20
93.296214
 30
0.0
 10
53.587201
 20
93.260936
 30
0.0
 10
53.593777
 20
93.223965
 30
0.0
 10
53.598659
 20
93.185300
 30
0.0
 10
53.601792
 20
93.145225
 30
0.0
 10
53.603203
 20
93.102891
 30
0.0
 10
53.602921
 20
93.059994
 30
0.0
 10
53.600945
 20
93.018507
 30
0.0
 10
53.597220
 20
92.978714
 30
0.0
 10
53.591773
 20
92.940896
 30
0.0
 10
53.584633
 20
92.904771
 30
0.0
 10
53.575743
 20
92.870340
 30
0.0
 10
53.565160
 20
92.837602
 30
0.0
 10
53.552855
 20
92.806840
 30
0.0
 10
53.538857
 20
92.777771
 30
0.0
 10
53.523109
 20
92.750396
 30
0.0
 10
53.505667
 20
92.724714
 30
0.0
 10
53.486476
 20
92.701007
 30
0.0
 10
53.465592
 20
92.678711
 30
0.0
 10
53.442929
 20
92.658674
 30
0.0
 10
53.418461
 20
92.640047
 30
0.0
 10
53.392186
 20
92.623114
 30
0.0
 10
53.364076
 20
92.607591
 30
0.0
 10
53.334189
 20
92.594045
 30
0.0
 10
53.302439
 20
92.582191
 30
0.0
 10
53.268911
 20
92.571749
 30
0.0
 10
53.233549
 20
92.563282
 30
0.0
 10
53.196352
 20
92.556227
 30
0.0
 10
53.157377
 20
92.550865
 30
0.0
 10
53.116567
 20
92.547478
 30
0.0
 10
53.073952
 20
92.545502
 30
0.0
 10
53.017451
 20
92.545502
 30
0.0
 10
52.978109
 20
92.547478
 30
0.0
 10
52.940207
 20
92.550865
 30
0.0
 10
52.903800
 20
92.556227
 30
0.0
 10
52.868889
 20
92.563282
 30
0.0
 10
52.835418
 20
92.571749
 30
0.0
 10
52.803442
 20
92.582191
 30
0.0
 10
52.772962
 20
92.594045
 30
0.0
 10
52.743949
 20
92.607591
 30
0.0
 10
52.716405
 20
92.623114
 30
0.0
 10
52.690327
 20
92.640047
 30
0.0
 10
52.665746
 20
92.658674
 30
0.0
 10
52.642632
 20
92.678711
 30
0.0
 10
52.621155
 20
92.701007
 30
0.0
 10
52.601427
 20
92.724714
 30
0.0
 10
52.583478
 20
92.750396
 30
0.0
 10
52.567278
 20
92.777771
 30
0.0
 10
52.552857
 20
92.806840
 30
0.0
 10
52.540213
 20
92.837602
 30
0.0
 10
52.529319
 20
92.870340
 30
0.0
 10
52.520204
 20
92.904771
 30
0.0
 10
52.512838
 20
92.940896
 30
0.0
 10
52.507250
 20
92.978714
 30
0.0
 10
52.503411
 20
93.018507
 30
0.0
 10
52.501436
 20
93.059994
 30
0.0
 10
52.501125
 20
93.102891
 30
0.0
  0
LWPOLYLINE
  5
105
100
AcDbEntity
  8
Calque_1
 62
7
100
AcDbPolyline
 90
152
 70
1
 10
53.496269
 20
94.482111
 30
0.0
 10
53.496269
 20
94.512874
 30
0.0
 10
53.497398
 20
94.542789
 30
0.0
 10
53.499656
 20
94.572705
 30
0.0
 10
53.503155
 20
94.601774
 30
0.0
 10
53.507840
 20
94.630560
 30
0.0
 10
53.513654
 20
94.658782
 30
0.0
 10
53.520653
 20
94.686722
 30
0.0
 10
53.528838
 20
94.714098
 30
0.0
 10
53.538151
 20
94.740909
 30
0.0
 10
53.548650
 20
94.767438
 30
0.0
 10
53.560334
 20
94.793402
 30
0.0
 10
53.573147
 20
94.818802
 30
0.0
 10
53.587145
 20
94.843920
 30
0.0
 10
53.602300
 20
94.868474
 30
0.0
 10
53.618641
 20
94.892462
 30
0.0
 10
53.636139
 20
94.916169
 30
0.0
 10
53.654793
 20
94.939311
 30
0.0
 10
53.674634
 20
94.961889
 30
0.0
 10
53.695631
 20
94.984185
 30
0.0
 10
53.728933
 20
95.016076
 30
0.0
 10
53.751680
 20
95.036114
 30
0.0
 10
53.774851
 20
95.055022
 30
0.0
 10
53.798445
 20
95.072802
 30
0.0
 10
53.822405
 20
95.089454
 30
0.0
 10
53.846789
 20
95.104976
 30
0.0
 10
53.871568
 20
95.119087
 30
0.0
 10
53.896771
 20
95.132351
 30
0.0
 10
53.922340
 20
95.144487
 30
0.0
 10
53.948333
 20
95.155211
 30
0.0
 10
53.974749
 20
95.165089
 30
0.0
 10
54.001560
 20
95.173556
 30
0.0
 10
54.028738
 20
95.180894
 30
0.0
 10
54.056367
 20
95.187385
 30
0.0
 10
54.084364
 20
95.192465
 30
0.0
 10
54.112784
 20
95.196416
 30
0.0
 10
54.141599
 20
95.199238
 30
0.0
 10
54.170809
 20
95.200931
 30
0.0
 10
54.200442
 20
95.201496
 30
0.0
 10
54.231599
 20
95.200931
 30
0.0
 10
54.262249
 20
95.199238
 30
0.0
 10
54.292362
 20
95.196416
 30
0.0
 10
54.321910
 20
95.192465
 30
0.0
 10
54.350951
 20
95.187385
 30
0.0
 10
54.379455
 20
95.180894
 30
0.0
 10
54.407424
 20
95.173556
 30
0.0
 10
54.434884
 20
95.165089
 30
0.0
 10
54.461780
 20
95.155211
 30
0.0
 10
54.488167
 20
95.144487
 30
0.0
 10
54.514019
 20
95.132351
 30
0.0
 10
54.539334
 20
95.119087
 30
0.0
 10
54.564113
 20
95.104976
 30
0.0
 10
54.588385
 20
95.089454
 30
0.0
 10
54.612091
 20
95.072802
 30
0.0
 10
54.635290
 20
95.055022
 30
0.0
 10
54.657952
 20
95.036114
 30
0.0
 10
54.680079
 20
95.016076
 30
0.0
 10
54.701669
 20
94.994909
 30
0.0
 10
54.722468
 20
94.973178
 30
0.0
 10
54.742139
 20
94.950600
 30
0.0
 10
54.760709
 20
94.927740
 30
0.0
 10
54.778123
 20
94.904316
 30
0.0
 10
54.794407
 20
94.880609
 30
0.0
 10
54.809590
 20
94.856056
 30
0.0
 10
54.823645
 20
94.831502
 30
0.0
 10
54.836571
 20
94.806102
 30
0.0
 10
54.848396
 20
94.780420
 30
0.0
 10
54.859064
 20
94.754174
 30
0.0
 10
54.868631
 20
94.727645
 30
0.0
 10
54.877041
 20
94.700551
 30
0.0
 10
54.884351
 20
94.672894
 30
0.0
 10
54.890532
 20
94.644671
 30
0.0
 10
54.895583
 20
94.616167
 30
0.0
 10
54.899535
 20
94.587380
 30
0.0
 10
54.902357
 20
94.557747
 30
0.0
 10
54.904050
 20
94.527831
 30
0.0
 10
54.904615
 20
94.497351
 30
0.0
 10
54.904050
 20
94.467154
 30
0.0
 10
54.902357
 20
94.437238
 30
0.0
 10
54.899535
 20
94.407605
 30
0.0
 10
54.895583
 20
94.378818
 30
0.0
 10
54.890532
 20
94.350031
 30
0.0
 10
54.884351
 20
94.322091
 30
0.0
 10
54.877041
 20
94.294434
 30
0.0
 10
54.868631
 20
94.267340
 30
0.0
 10
54.859064
 20
94.240811
 30
0.0
 10
54.848396
 20
94.214565
 30
0.0
 10
54.836571
 20
94.188882
 30
0.0
 10
54.823645
 20
94.163482
 30
0.0
 10
54.809590
 20
94.138647
 30
0.0
 10
54.794407
 20
94.114376
 30
0.0
 10
54.778123
 20
94.090387
 30
0.0
 10
54.760709
 20
94.066962
 30
0.0
 10
54.742139
 20
94.044102
 30
0.0
 10
54.722468
 20
94.021525
 30
0.0
 10
54.701669
 20
93.999511
 30
0.0
 10
54.680079
 20
93.978345
 30
0.0
 10
54.657952
 20
93.958307
 30
0.0
 10
54.635290
 20
93.939680
 30
0.0
 10
54.612091
 20
93.921900
 30
0.0
 10
54.588385
 20
93.905249
 30
0.0
 10
54.564113
 20
93.889727
 30
0.0
 10
54.539334
 20
93.875334
 30
0.0
 10
54.514019
 20
93.862351
 30
0.0
 10
54.488167
 20
93.850216
 30
0.0
 10
54.461780
 20
93.839491
 30
0.0
 10
54.434884
 20
93.829614
 30
0.0
 10
54.407424
 20
93.821147
 30
0.0
 10
54.379455
 20
93.813527
 30
0.0
 10
54.350951
 20
93.807318
 30
0.0
 10
54.321910
 20
93.802238
 30
0.0
 10
54.292362
 20
93.798287
 30
0.0
 10
54.262249
 20
93.795465
 30
0.0
 10
54.231599
 20
93.793771
 30
0.0
 10
54.200442
 20
93.792925
 30
0.0
 10
54.170809
 20
93.793771
 30
0.0
 10
54.141599
 20
93.795465
 30
0.0
 10
54.112784
 20
93.798287
 30
0.0
 10
54.084364
 20
93.802238
 30
0.0
 10
54.056367
 20
93.807318
 30
0.0
 10
54.028738
 20
93.813527
 30
0.0
 10
54.001560
 20
93.821147
 30
0.0
 10
53.974749
 20
93.829614
 30
0.0
 10
53.948333
 20
93.839491
 30
0.0
 10
53.922340
 20
93.850216
 30
0.0
 10
53.896771
 20
93.862351
 30
0.0
 10
53.871568
 20
93.875334
 30
0.0
 10
53.846789
 20
93.889727
 30
0.0
 10
53.822405
 20
93.905249
 30
0.0
 10
53.798445
 20
93.921900
 30
0.0
 10
53.774851
 20
93.939680
 30
0.0
 10
53.751680
 20
93.958307
 30
0.0
 10
53.717701
 20
93.988787
 30
0.0
 10
53.695631
 20
94.010518
 30
0.0
 10
53.674634
 20
94.032814
 30
0.0
 10
53.654793
 20
94.055674
 30
0.0
 10
53.636139
 20
94.078816
 30
0.0
 10
53.618641
 20
94.102240
 30
0.0
 10
53.602300
 20
94.126511
 30
0.0
 10
53.587145
 20
94.151065
 30
0.0
 10
53.573147
 20
94.176182
 30
0.0
 10
53.560334
 20
94.201582
 30
0.0
 10
53.548650
 20
94.227547
 30
0.0
 10
53.538151
 20
94.254076
 30
0.0
 10
53.528838
 20
94.280887
 30
0.0
 10
53.520653
 20
94.308262
 30
0.0
 10
53.513654
 20
94.336202
 30
0.0
 10
53.507840
 20
94.364425
 30
0.0
 10
53.503155
 20
94.393211
 30
0.0
 10
53.499656
 20
94.422280
 30
0.0
 10
53.497398
 20
94.452196
 30
0.0
 10
53.496269
 20
94.482111
 30
0.0
  0
LWPOLYLINE
  5
106
100
AcDbEntity
  8
Calque_1
 62
7
100
AcDbPolyline
 90
80
 70
1
 10
54.162850
 20
96.198587
 30
0.0
 10
54.163132
 20
96.240356
 30
0.0
 10
54.165108
 20
96.279867
 30
0.0
 10
54.168805
 20
96.317685
 30
0.0
 10
54.174252
 20
96.354091
 30
0.0
 10
54.181392
 20
96.389087
 30
0.0
 10
54.190282
 20
96.422389
 30
0.0
 10
54.200865
 20
96.454562
 30
0.0
 10
54.213170
 20
96.485042
 30
0.0
 10
54.227197
 20
96.514111
 30
0.0
 10
54.242916
 20
96.541487
 30
0.0
 10
54.260386
 20
96.567451
 30
0.0
 10
54.279549
 20
96.592287
 30
0.0
 10
54.300433
 20
96.615147
 30
0.0
 10
54.323039
 20
96.636878
 30
0.0
 10
54.336953
 20
96.648167
 30
0.0
 10
54.816956
 20
96.592569
 30
0.0
 10
55.181587
 20
96.542616
 30
0.0
 10
55.193554
 20
96.523425
 30
0.0
 10
55.208568
 20
96.494920
 30
0.0
 10
55.221804
 20
96.464722
 30
0.0
 10
55.233291
 20
96.433396
 30
0.0
 10
55.242999
 20
96.400376
 30
0.0
 10
55.250958
 20
96.365945
 30
0.0
 10
55.257138
 20
96.330102
 30
0.0
 10
55.261541
 20
96.292567
 30
0.0
 10
55.264081
 20
96.253620
 30
0.0
 10
55.264928
 20
96.213262
 30
0.0
 10
55.264081
 20
96.169518
 30
0.0
 10
55.261541
 20
96.127749
 30
0.0
 10
55.257138
 20
96.087674
 30
0.0
 10
55.250958
 20
96.049856
 30
0.0
 10
55.242999
 20
96.013449
 30
0.0
 10
55.233291
 20
95.979300
 30
0.0
 10
55.221804
 20
95.947127
 30
0.0
 10
55.208568
 20
95.916647
 30
0.0
 10
55.193554
 20
95.888142
 30
0.0
 10
55.176761
 20
95.861614
 30
0.0
 10
55.164598
 20
95.844962
 30
0.0
 10
55.151644
 20
95.829158
 30
0.0
 10
55.137928
 20
95.814200
 30
0.0
 10
55.115858
 20
95.793316
 30
0.0
 10
55.092151
 20
95.774125
 30
0.0
 10
55.066751
 20
95.756345
 30
0.0
 10
55.039686
 20
95.740540
 30
0.0
 10
55.010928
 20
95.726147
 30
0.0
 10
54.980504
 20
95.713447
 30
0.0
 10
54.948415
 20
95.702440
 30
0.0
 10
54.914662
 20
95.692845
 30
0.0
 10
54.879215
 20
95.684942
 30
0.0
 10
54.842102
 20
95.678734
 30
0.0
 10
54.803297
 20
95.674218
 30
0.0
 10
54.762826
 20
95.671396
 30
0.0
 10
54.734914
 20
95.670267
 30
0.0
 10
54.678442
 20
95.670267
 30
0.0
 10
54.638027
 20
95.671960
 30
0.0
 10
54.599250
 20
95.675629
 30
0.0
 10
54.562081
 20
95.680709
 30
0.0
 10
54.526550
 20
95.687482
 30
0.0
 10
54.492627
 20
95.695949
 30
0.0
 10
54.460312
 20
95.705827
 30
0.0
 10
54.429635
 20
95.717398
 30
0.0
 10
54.400537
 20
95.730662
 30
0.0
 10
54.373077
 20
95.745620
 30
0.0
 10
54.347254
 20
95.761989
 30
0.0
 10
54.323039
 20
95.780334
 30
0.0
 10
54.300433
 20
95.799807
 30
0.0
 10
54.286322
 20
95.814200
 30
0.0
 10
54.272973
 20
95.829158
 30
0.0
 10
54.254375
 20
95.853147
 30
0.0
 10
54.237498
 20
95.879111
 30
0.0
 10
54.222314
 20
95.906769
 30
0.0
 10
54.208880
 20
95.936685
 30
0.0
 10
54.197140
 20
95.968294
 30
0.0
 10
54.187121
 20
96.001878
 30
0.0
 10
54.178824
 20
96.037438
 30
0.0
 10
54.172248
 20
96.074974
 30
0.0
 10
54.167394
 20
96.114202
 30
0.0
 10
54.164233
 20
96.155407
 30
0.0
 10
54.162850
 20
96.198587
 30
0.0
  0
LWPOLYLINE
  5
107
100
AcDbEntity
  8
Calque_1
 62
7
100
AcDbPolyline
 90
12
 70
1
 10
92.720445
 20
53.688865
 30
0.0
 10
93.993832
 20
55.148913
 30
0.0
 10
94.015845
 20
54.850045
 30
0.0
 10
94.059307
 20
54.020575
 30
0.0
 10
93.677178
 20
53.573995
 30
0.0
 10
93.587149
 20
53.600608
 30
0.0
 10
93.475107
 20
53.626177
 30
0.0
 10
93.337383
 20
53.649658
 30
0.0
 10
93.184136
 20
53.668370
 30
0.0
 10
93.016214
 20
53.681154
 30
0.0
 10
92.817812
 20
53.688069
 30
0.0
 10
92.720445
 20
53.688865
 30
0.0
  0
LWPOLYLINE
  5
108
100
AcDbEntity
  8
Calque_1
 62
7
100
AcDbPolyline
 90
182
 70
1
 10
62.087444
 20
13.894112
 30
0.0
 10
62.644345
 20
14.707448
 30
0.0
 10
63.191816
 20
15.544107
 30
0.0
 10
63.721691
 20
16.391863
 30
0.0
 10
64.233569
 20
17.250863
 30
0.0
 10
64.727463
 20
18.120150
 30
0.0
 10
65.203056
 20
18.999605
 30
0.0
 10
65.660036
 20
19.888743
 30
0.0
 10
66.098220
 20
20.787486
 30
0.0
 10
66.517579
 20
21.695217
 30
0.0
 10
66.918112
 20
22.611268
 30
0.0
 10
67.299182
 20
23.535689
 30
0.0
 10
67.660746
 20
24.467844
 30
0.0
 10
68.002700
 20
25.407345
 30
0.0
 10
68.324880
 20
26.353836
 30
0.0
 10
68.627176
 20
27.306949
 30
0.0
 10
68.909170
 20
28.266129
 30
0.0
 10
69.171399
 20
29.231047
 30
0.0
 10
69.413439
 20
30.201191
 30
0.0
 10
69.634899
 20
31.176054
 30
0.0
 10
69.835875
 20
32.155450
 30
0.0
 10
70.016297
 20
33.138839
 30
0.0
 10
70.176325
 20
34.125883
 30
0.0
 10
70.315368
 20
35.115916
 30
0.0
 10
70.433768
 20
36.108743
 30
0.0
 10
70.531510
 20
37.103873
 30
0.0
 10
70.608187
 20
38.100749
 30
0.0
 10
70.663971
 20
39.099006
 30
0.0
 10
70.698786
 20
40.098171
 30
0.0
 10
70.712756
 20
41.097907
 30
0.0
 10
70.705842
 20
42.097772
 30
0.0
 10
70.677930
 20
43.097195
 30
0.0
 10
70.628936
 20
44.095759
 30
0.0
 10
70.559289
 20
45.093203
 30
0.0
 10
70.468665
 20
46.088931
 30
0.0
 10
70.357235
 20
47.082511
 30
0.0
 10
70.224898
 20
48.073509
 30
0.0
 10
70.072083
 20
49.061670
 30
0.0
 10
69.898491
 20
50.046321
 30
0.0
 10
69.895951
 20
50.061561
 30
0.0
 10
69.910542
 20
50.067347
 30
0.0
 10
70.009044
 20
50.107202
 30
0.0
 10
70.108547
 20
50.144904
 30
0.0
 10
70.208750
 20
50.180461
 30
0.0
 10
70.309799
 20
50.214162
 30
0.0
 10
70.411300
 20
50.245593
 30
0.0
 10
70.513710
 20
50.275099
 30
0.0
 10
70.616558
 20
50.302333
 30
0.0
 10
70.719792
 20
50.327367
 30
0.0
 10
70.823763
 20
50.350170
 30
0.0
 10
70.928089
 20
50.370857
 30
0.0
 10
71.033107
 20
50.389371
 30
0.0
 10
71.138240
 20
50.405627
 30
0.0
 10
71.243500
 20
50.419653
 30
0.0
 10
71.349387
 20
50.431761
 30
0.0
 10
71.455178
 20
50.441300
 30
0.0
 10
71.561342
 20
50.448637
 30
0.0
 10
71.667601
 20
50.453802
 30
0.0
 10
71.773968
 20
50.456794
 30
0.0
 10
71.880417
 20
50.457640
 30
0.0
 10
71.986688
 20
50.456229
 30
0.0
 10
72.093034
 20
50.452532
 30
0.0
 10
72.199469
 20
50.446662
 30
0.0
 10
72.305426
 20
50.438534
 30
0.0
 10
72.305426
 20
50.438534
 30
0.0
 10
61.711295
 20
73.157697
 30
0.0
 10
61.711295
 20
73.157697
 30
0.0
 10
61.649424
 20
73.071300
 30
0.0
 10
61.585495
 20
72.986012
 30
0.0
 10
61.520011
 20
72.902144
 30
0.0
 10
61.453006
 20
72.819620
 30
0.0
 10
61.383920
 20
72.738622
 30
0.0
 10
61.313238
 20
72.659100
 30
0.0
 10
61.240932
 20
72.581052
 30
0.0
 10
61.167097
 20
72.504414
 30
0.0
 10
61.091823
 20
72.429515
 30
0.0
 10
61.014491
 20
72.356180
 30
0.0
 10
60.936189
 20
72.284450
 30
0.0
 10
60.856139
 20
72.214363
 30
0.0
 10
60.774366
 20
72.145905
 30
0.0
 10
60.691457
 20
72.079275
 30
0.0
 10
60.607104
 20
72.014406
 30
0.0
 10
60.521565
 20
71.951400
 30
0.0
 10
60.434593
 20
71.890166
 30
0.0
 10
60.346161
 20
71.830674
 30
0.0
 10
60.256838
 20
71.773123
 30
0.0
 10
60.166103
 20
71.717308
 30
0.0
 10
60.074477
 20
71.663400
 30
0.0
 10
59.981651
 20
71.611412
 30
0.0
 10
59.887874
 20
71.561465
 30
0.0
 10
59.873735
 20
71.555002
 30
0.0
 10
59.864817
 20
71.567448
 30
0.0
 10
59.222107
 20
72.333359
 30
0.0
 10
58.563369
 20
73.085575
 30
0.0
 10
57.889281
 20
73.823956
 30
0.0
 10
57.199781
 20
74.547983
 30
0.0
 10
56.495261
 20
75.257455
 30
0.0
 10
55.775953
 20
75.951928
 30
0.0
 10
55.042486
 20
76.631330
 30
0.0
 10
54.294817
 20
77.295131
 30
0.0
 10
53.533325
 20
77.943121
 30
0.0
 10
52.758501
 20
78.575045
 30
0.0
 10
51.970709
 20
79.190631
 30
0.0
 10
51.170149
 20
79.789560
 30
0.0
 10
50.368556
 20
80.363313
 30
0.0
 10
48.749850
 20
78.051517
 30
0.0
 10
49.503336
 20
77.512140
 30
0.0
 10
50.256564
 20
76.948613
 30
0.0
 10
50.997804
 20
76.369397
 30
0.0
 10
51.726874
 20
75.774873
 30
0.0
 10
52.443109
 20
75.165121
 30
0.0
 10
53.146638
 20
74.540566
 30
0.0
 10
53.837019
 20
73.901476
 30
0.0
 10
54.513596
 20
73.247934
 30
0.0
 10
55.176437
 20
72.580417
 30
0.0
 10
55.825159
 20
71.899175
 30
0.0
 10
56.459546
 20
71.204496
 30
0.0
 10
57.079190
 20
70.496683
 30
0.0
 10
57.683942
 20
69.776079
 30
0.0
 10
58.273380
 20
69.042930
 30
0.0
 10
58.847324
 20
68.297590
 30
0.0
 10
59.405613
 20
67.540430
 30
0.0
 10
59.947810
 20
66.771699
 30
0.0
 10
60.474016
 20
65.991863
 30
0.0
 10
60.983506
 20
65.201079
 30
0.0
 10
61.476422
 20
64.399819
 30
0.0
 10
61.952545
 20
63.588467
 30
0.0
 10
62.411441
 20
62.767282
 30
0.0
 10
62.852958
 20
61.936617
 30
0.0
 10
63.277188
 20
61.096981
 30
0.0
 10
63.683679
 20
60.248607
 30
0.0
 10
64.072270
 20
59.391910
 30
0.0
 10
64.442783
 20
58.527212
 30
0.0
 10
64.795307
 20
57.655035
 30
0.0
 10
65.129393
 20
56.775650
 30
0.0
 10
65.444878
 20
55.889391
 30
0.0
 10
65.741863
 20
54.996784
 30
0.0
 10
66.020132
 20
54.098174
 30
0.0
 10
66.279291
 20
53.193816
 30
0.0
 10
66.519656
 20
52.284318
 30
0.0
 10
66.740811
 20
51.369972
 30
0.0
 10
66.942854
 20
50.451197
 30
0.0
 10
67.125593
 20
49.528424
 30
0.0
 10
67.288881
 20
48.601950
 30
0.0
 10
67.432801
 20
47.672307
 30
0.0
 10
67.557167
 20
46.739800
 30
0.0
 10
67.662072
 20
45.804950
 30
0.0
 10
67.747343
 20
44.868105
 30
0.0
 10
67.813095
 20
43.929750
 30
0.0
 10
67.858897
 20
42.990100
 30
0.0
 10
67.885143
 20
42.049704
 30
0.0
 10
67.891860
 20
41.109066
 30
0.0
 10
67.878652
 20
40.168422
 30
0.0
 10
67.845889
 20
39.228278
 30
0.0
 10
67.793413
 20
38.289051
 30
0.0
 10
67.721062
 20
37.351026
 30
0.0
 10
67.629205
 20
36.414745
 30
0.0
 10
67.517944
 20
35.480711
 30
0.0
 10
67.387129
 20
34.549197
 30
0.0
 10
67.236617
 20
33.620522
 30
0.0
 10
67.066758
 20
32.695251
 30
0.0
 10
66.877712
 20
31.773764
 30
0.0
 10
66.669293
 20
30.856427
 30
0.0
 10
66.441608
 20
29.943658
 30
0.0
 10
66.195098
 20
29.035893
 30
0.0
 10
65.929273
 20
28.133453
 30
0.0
 10
65.644928
 20
27.236678
 30
0.0
 10
65.341813
 20
26.346112
 30
0.0
 10
65.020063
 20
25.462118
 30
0.0
 10
64.679824
 20
24.585068
 30
0.0
 10
64.321210
 20
23.715329
 30
0.0
 10
63.944762
 20
22.853146
 30
0.0
 10
63.550092
 20
21.999303
 30
0.0
 10
63.137802
 20
21.153734
 30
0.0
 10
62.707808
 20
20.317046
 30
0.0
 10
62.260297
 20
19.489619
 30
0.0
 10
61.795668
 20
18.671640
 30
0.0
 10
61.314025
 20
17.863488
 30
0.0
 10
60.815474
 20
17.065818
 30
0.0
 10
60.300322
 20
16.278794
 30
0.0
 10
59.776893
 20
15.514042
 30
0.0
 10
62.087444
 20
13.894112
 30
0.0
  0
LWPOLYLINE
  5
109
100
AcDbEntity
  8
Calque_1
 62
7
100
AcDbPolyline
 90
182
 70
1
 10
67.308324
 20
16.494967
 30
0.0
 10
67.865219
 20
17.308304
 30
0.0
 10
68.412699
 20
18.144980
 30
0.0
 10
68.942560
 20
18.992750
 30
0.0
 10
69.454432
 20
19.851744
 30
0.0
 10
69.948338
 20
20.721036
 30
0.0
 10
70.423916
 20
21.600475
 30
0.0
 10
70.880896
 20
22.489624
 30
0.0
 10
71.319077
 20
23.388372
 30
0.0
 10
71.738434
 20
24.296098
 30
0.0
 10
72.138952
 20
25.212174
 30
0.0
 10
72.520008
 20
26.136596
 30
0.0
 10
72.881569
 20
27.068750
 30
0.0
 10
73.223526
 20
28.008257
 30
0.0
 10
73.545731
 20
28.954734
 30
0.0
 10
73.848031
 20
29.907830
 30
0.0
 10
74.130027
 20
30.867030
 30
0.0
 10
74.392257
 20
31.831936
 30
0.0
 10
74.634293
 20
32.802081
 30
0.0
 10
74.855745
 20
33.776961
 30
0.0
 10
75.056723
 20
34.756348
 30
0.0
 10
75.237142
 20
35.739740
 30
0.0
 10
75.397171
 20
36.726790
 30
0.0
 10
75.536199
 20
37.716814
 30
0.0
 10
75.654614
 20
38.709649
 30
0.0
 10
75.752328
 20
39.704765
 30
0.0
 10
75.829005
 20
40.701647
 30
0.0
 10
75.884797
 20
41.699907
 30
0.0
 10
75.919609
 20
42.699061
 30
0.0
 10
75.933579
 20
43.698830
 30
0.0
 10
75.926665
 20
44.698665
 30
0.0
 10
75.898753
 20
45.698107
 30
0.0
 10
75.849762
 20
46.696662
 30
0.0
 10
75.780118
 20
47.694120
 30
0.0
 10
75.689488
 20
48.689834
 30
0.0
 10
75.578061
 20
49.683423
 30
0.0
 10
75.445716
 20
50.674412
 30
0.0
 10
75.292915
 20
51.662577
 30
0.0
 10
75.119312
 20
52.647225
 30
0.0
 10
75.115728
 20
52.662183
 30
0.0
 10
75.130008
 20
52.668335
 30
0.0
 10
75.228543
 20
52.708120
 30
0.0
 10
75.328026
 20
52.745811
 30
0.0
 10
75.428224
 20
52.781342
 30
0.0
 10
75.529305
 20
52.814947
 30
0.0
 10
75.630842
 20
52.846299
 30
0.0
 10
75.733258
 20
52.875799
 30
0.0
 10
75.836083
 20
52.903062
 30
0.0
 10
75.939331
 20
52.928095
 30
0.0
 10
76.043251
 20
52.950983
 30
0.0
 10
76.147600
 20
52.971670
 30
0.0
 10
76.252578
 20
52.990297
 30
0.0
 10
76.357720
 20
53.006553
 30
0.0
 10
76.463009
 20
53.020467
 30
0.0
 10
76.568895
 20
53.032574
 30
0.0
 10
76.674672
 20
53.042085
 30
0.0
 10
76.780819
 20
53.049394
 30
0.0
 10
76.887093
 20
53.054615
 30
0.0
 10
76.993454
 20
53.057607
 30
0.0
 10
77.099899
 20
53.058454
 30
0.0
 10
77.206179
 20
53.056760
 30
0.0
 10
77.312520
 20
53.053035
 30
0.0
 10
77.418946
 20
53.047165
 30
0.0
 10
77.524912
 20
53.039037
 30
0.0
 10
77.524912
 20
53.039037
 30
0.0
 10
66.930789
 20
75.758202
 30
0.0
 10
66.930789
 20
75.758202
 30
0.0
 10
66.868892
 20
75.671808
 30
0.0
 10
66.804980
 20
75.586501
 30
0.0
 10
66.739448
 20
75.502667
 30
0.0
 10
66.672195
 20
75.420354
 30
0.0
 10
66.603115
 20
75.339359
 30
0.0
 10
66.532475
 20
75.259798
 30
0.0
 10
66.460218
 20
75.181721
 30
0.0
 10
66.386363
 20
75.105109
 30
0.0
 10
66.311077
 20
75.030187
 30
0.0
 10
66.233731
 20
74.956860
 30
0.0
 10
66.155353
 20
74.885199
 30
0.0
 10
66.075312
 20
74.815109
 30
0.0
 10
65.993622
 20
74.746594
 30
0.0
 10
65.910700
 20
74.679964
 30
0.0
 10
65.826392
 20
74.615024
 30
0.0
 10
65.740850
 20
74.551987
 30
0.0
 10
65.653875
 20
74.490725
 30
0.0
 10
65.565452
 20
74.431241
 30
0.0
 10
65.476128
 20
74.373685
 30
0.0
 10
65.385352
 20
74.317938
 30
0.0
 10
65.293708
 20
74.264044
 30
0.0
 10
65.200866
 20
74.212051
 30
0.0
 10
65.107041
 20
74.162162
 30
0.0
 10
65.093382
 20
74.154824
 30
0.0
 10
65.083588
 20
74.166706
 30
0.0
 10
64.440881
 20
74.932598
 30
0.0
 10
63.782138
 20
75.684824
 30
0.0
 10
63.108050
 20
76.423200
 30
0.0
 10
62.418539
 20
77.147224
 30
0.0
 10
61.714036
 20
77.856688
 30
0.0
 10
60.994711
 20
78.551192
 30
0.0
 10
60.261249
 20
79.230571
 30
0.0
 10
59.513583
 20
79.894386
 30
0.0
 10
58.752094
 20
80.542366
 30
0.0
 10
57.977267
 20
81.174303
 30
0.0
 10
57.189483
 20
81.789872
 30
0.0
 10
56.388912
 20
82.388804
 30
0.0
 10
55.587313
 20
82.962565
 30
0.0
 10
53.968625
 20
80.650767
 30
0.0
 10
54.722099
 20
80.111398
 30
0.0
 10
55.475336
 20
79.547877
 30
0.0
 10
56.216567
 20
78.968663
 30
0.0
 10
56.945640
 20
78.374131
 30
0.0
 10
57.661892
 20
77.764373
 30
0.0
 10
58.365424
 20
77.139813
 30
0.0
 10
59.055796
 20
76.500735
 30
0.0
 10
59.732370
 20
75.847193
 30
0.0
 10
60.395186
 20
75.179664
 30
0.0
 10
61.043891
 20
74.498390
 30
0.0
 10
61.678298
 20
73.803720
 30
0.0
 10
62.297956
 20
73.095921
 30
0.0
 10
62.902711
 20
72.375314
 30
0.0
 10
63.492140
 20
71.642180
 30
0.0
 10
64.066079
 20
70.896828
 30
0.0
 10
64.624356
 20
70.139671
 30
0.0
 10
65.166559
 20
69.370935
 30
0.0
 10
65.692774
 20
68.591084
 30
0.0
 10
66.202266
 20
67.800312
 30
0.0
 10
66.695173
 20
66.999057
 30
0.0
 10
67.171299
 20
66.187716
 30
0.0
 10
67.630195
 20
65.366520
 30
0.0
 10
68.071723
 20
64.535870
 30
0.0
 10
68.495946
 20
63.696225
 30
0.0
 10
68.902439
 20
62.847859
 30
0.0
 10
69.291045
 20
61.991131
 30
0.0
 10
69.661563
 20
61.126462
 30
0.0
 10
70.014070
 20
60.254279
 30
0.0
 10
70.348134
 20
59.374886
 30
0.0
 10
70.663627
 20
58.488626
 30
0.0
 10
70.960584
 20
57.596003
 30
0.0
 10
71.238864
 20
56.697407
 30
0.0
 10
71.498014
 20
55.793037
 30
0.0
 10
71.738380
 20
54.883551
 30
0.0
 10
71.959541
 20
53.969190
 30
0.0
 10
72.161586
 20
53.050424
 30
0.0
 10
72.344331
 20
52.127645
 30
0.0
 10
72.507599
 20
51.201183
 30
0.0
 10
72.651493
 20
50.271526
 30
0.0
 10
72.775860
 20
49.339016
 30
0.0
 10
72.880765
 20
48.404172
 30
0.0
 10
72.966044
 20
47.467341
 30
0.0
 10
73.031821
 20
46.528974
 30
0.0
 10
73.077626
 20
45.589321
 30
0.0
 10
73.103844
 20
44.648920
 30
0.0
 10
73.110561
 20
43.708296
 30
0.0
 10
73.097353
 20
42.767638
 30
0.0
 10
73.064601
 20
41.827511
 30
0.0
 10
73.012119
 20
40.888269
 30
0.0
 10
72.939772
 20
39.950247
 30
0.0
 10
72.847914
 20
39.013984
 30
0.0
 10
72.736656
 20
38.079947
 30
0.0
 10
72.605844
 20
37.148421
 30
0.0
 10
72.455329
 20
36.219744
 30
0.0
 10
72.285479
 20
35.294489
 30
0.0
 10
72.096427
 20
34.373000
 30
0.0
 10
71.888006
 20
33.455651
 30
0.0
 10
71.660317
 20
32.542882
 30
0.0
 10
71.413785
 20
31.635134
 30
0.0
 10
71.147957
 20
30.732683
 30
0.0
 10
70.863610
 20
29.835919
 30
0.0
 10
70.560492
 20
28.945350
 30
0.0
 10
70.238741
 20
28.061357
 30
0.0
 10
69.898497
 20
27.184309
 30
0.0
 10
69.539886
 20
26.314562
 30
0.0
 10
69.163449
 20
25.452393
 30
0.0
 10
68.768778
 20
24.598535
 30
0.0
 10
68.356488
 20
23.752975
 30
0.0
 10
67.926478
 20
22.916276
 30
0.0
 10
67.478981
 20
22.088855
 30
0.0
 10
67.014347
 20
21.270884
 30
0.0
 10
66.532698
 20
20.462730
 30
0.0
 10
66.034150
 20
19.665060
 30
0.0
 10
65.519004
 20
18.878026
 30
0.0
 10
64.995555
 20
18.113278
 30
0.0
 10
67.308324
 20
16.494967
 30
0.0
  0
LWPOLYLINE
  5
10a
100
AcDbEntity
  8
Calque_1
 62
7
100
AcDbPolyline
 90
182
 70
1
 10
75.106939
 20
22.678239
 30
0.0
 10
75.590806
 20
23.537027
 30
0.0
 10
76.063277
 20
24.418232
 30
0.0
 10
76.517254
 20
25.308959
 30
0.0
 10
76.952308
 20
26.209296
 30
0.0
 10
77.368569
 20
27.118320
 30
0.0
 10
77.765690
 20
28.035864
 30
0.0
 10
78.143450
 20
28.961460
 30
0.0
 10
78.501632
 20
29.894969
 30
0.0
 10
78.840299
 20
30.835782
 30
0.0
 10
79.159453
 20
31.783278
 30
0.0
 10
79.458493
 20
32.737395
 30
0.0
 10
79.737435
 20
33.697518
 30
0.0
 10
79.996202
 20
34.663246
 30
0.0
 10
80.234666
 20
35.634223
 30
0.0
 10
80.452745
 20
36.610023
 30
0.0
 10
80.650077
 20
37.590161
 30
0.0
 10
80.827203
 20
38.574259
 30
0.0
 10
80.983771
 20
39.561797
 30
0.0
 10
81.119418
 20
40.552264
 30
0.0
 10
81.234272
 20
41.545444
 30
0.0
 10
81.328297
 20
42.540816
 30
0.0
 10
81.401691
 20
43.538065
 30
0.0
 10
81.453919
 20
44.536435
 30
0.0
 10
81.485336
 20
45.535815
 30
0.0
 10
81.495948
 20
46.535669
 30
0.0
 10
81.485449
 20
47.535432
 30
0.0
 10
81.454013
 20
48.534756
 30
0.0
 10
81.401618
 20
49.533140
 30
0.0
 10
81.328401
 20
50.530310
 30
0.0
 10
81.234370
 20
51.525744
 30
0.0
 10
81.119461
 20
52.518946
 30
0.0
 10
80.983622
 20
53.509450
 30
0.0
 10
80.827310
 20
54.497011
 30
0.0
 10
80.650247
 20
55.481058
 30
0.0
 10
80.452640
 20
56.461148
 30
0.0
 10
80.234432
 20
57.436838
 30
0.0
 10
79.996084
 20
58.407925
 30
0.0
 10
79.737328
 20
59.373704
 30
0.0
 10
79.732446
 20
59.388294
 30
0.0
 10
79.746134
 20
59.395660
 30
0.0
 10
79.840828
 20
59.443915
 30
0.0
 10
79.936650
 20
59.490132
 30
0.0
 10
80.033354
 20
59.534260
 30
0.0
 10
80.131127
 20
59.576579
 30
0.0
 10
80.229515
 20
59.616711
 30
0.0
 10
80.328962
 20
59.655023
 30
0.0
 10
80.429027
 20
59.691142
 30
0.0
 10
80.529695
 20
59.725076
 30
0.0
 10
80.631236
 20
59.756939
 30
0.0
 10
80.733378
 20
59.786637
 30
0.0
 10
80.836349
 20
59.814351
 30
0.0
 10
80.939665
 20
59.839723
 30
0.0
 10
81.043345
 20
59.862752
 30
0.0
 10
81.147770
 20
59.884032
 30
0.0
 10
81.252303
 20
59.902743
 30
0.0
 10
81.357425
 20
59.919281
 30
0.0
 10
81.462835
 20
59.933731
 30
0.0
 10
81.568524
 20
59.945980
 30
0.0
 10
81.674499
 20
59.956111
 30
0.0
 10
81.780496
 20
59.963957
 30
0.0
 10
81.886764
 20
59.969517
 30
0.0
 10
81.993288
 20
59.972960
 30
0.0
 10
82.099559
 20
59.974089
 30
0.0
 10
82.099559
 20
59.974089
 30
0.0
 10
69.565644
 20
81.683458
 30
0.0
 10
69.565644
 20
81.683458
 30
0.0
 10
69.511514
 20
81.592009
 30
0.0
 10
69.455281
 20
81.501453
 30
0.0
 10
69.397285
 20
81.412242
 30
0.0
 10
69.337468
 20
81.324369
 30
0.0
 10
69.275712
 20
81.237665
 30
0.0
 10
69.212262
 20
81.152259
 30
0.0
 10
69.147066
 20
81.068194
 30
0.0
 10
69.079957
 20
80.985610
 30
0.0
 10
69.011475
 20
80.904412
 30
0.0
 10
68.940832
 20
80.824630
 30
0.0
 10
68.868987
 20
80.746418
 30
0.0
 10
68.795372
 20
80.669622
 30
0.0
 10
68.719957
 20
80.594238
 30
0.0
 10
68.643161
 20
80.520637
 30
0.0
 10
68.564859
 20
80.448572
 30
0.0
 10
68.485137
 20
80.378335
 30
0.0
 10
68.403817
 20
80.309741
 30
0.0
 10
68.320897
 20
80.242770
 30
0.0
 10
68.236945
 20
80.177658
 30
0.0
 10
68.151378
 20
80.114184
 30
0.0
 10
68.064784
 20
80.052535
 30
0.0
 10
67.976840
 20
79.992653
 30
0.0
 10
67.887706
 20
79.934800
 30
0.0
 10
67.874696
 20
79.926277
 30
0.0
 10
67.863971
 20
79.937256
 30
0.0
 10
67.156959
 20
80.644220
 30
0.0
 10
66.435173
 20
81.336197
 30
0.0
 10
65.699301
 20
82.013017
 30
0.0
 10
64.949318
 20
82.674190
 30
0.0
 10
64.185650
 20
83.319548
 30
0.0
 10
63.408546
 20
83.948703
 30
0.0
 10
62.618651
 20
84.561594
 30
0.0
 10
61.815974
 20
85.157704
 30
0.0
 10
61.000917
 20
85.736860
 30
0.0
 10
60.173952
 20
86.298852
 30
0.0
 10
59.335518
 20
86.843423
 30
0.0
 10
58.485800
 20
87.370312
 30
0.0
 10
57.637245
 20
87.872018
 30
0.0
 10
56.226208
 20
85.427943
 30
0.0
 10
57.023824
 20
84.956299
 30
0.0
 10
57.823295
 20
84.460558
 30
0.0
 10
58.612193
 20
83.948156
 30
0.0
 10
59.390317
 20
83.419435
 30
0.0
 10
60.156973
 20
82.874419
 30
0.0
 10
60.912262
 20
82.313561
 30
0.0
 10
61.655700
 20
81.737069
 30
0.0
 10
62.386656
 20
81.144981
 30
0.0
 10
63.105171
 20
80.537774
 30
0.0
 10
63.810772
 20
79.915635
 30
0.0
 10
64.503292
 20
79.278893
 30
0.0
 10
65.182287
 20
78.627801
 30
0.0
 10
65.847550
 20
77.962643
 30
0.0
 10
66.498628
 20
77.283661
 30
0.0
 10
67.135344
 20
76.591184
 30
0.0
 10
67.757497
 20
75.885555
 30
0.0
 10
68.364633
 20
75.167003
 30
0.0
 10
68.956812
 20
74.435994
 30
0.0
 10
69.533279
 20
73.692629
 30
0.0
 10
70.094119
 20
72.937371
 30
0.0
 10
70.639147
 20
72.170599
 30
0.0
 10
71.167873
 20
71.392529
 30
0.0
 10
71.680115
 20
70.603506
 30
0.0
 10
72.175906
 20
69.804039
 30
0.0
 10
72.654801
 20
68.994335
 30
0.0
 10
73.116590
 20
68.174736
 30
0.0
 10
73.561047
 20
67.345643
 30
0.0
 10
73.988233
 20
66.507519
 30
0.0
 10
74.397695
 20
65.660593
 30
0.0
 10
74.789225
 20
64.805197
 30
0.0
 10
75.162850
 20
63.941857
 30
0.0
 10
75.518388
 20
63.070936
 30
0.0
 10
75.855378
 20
62.192581
 30
0.0
 10
76.174095
 20
61.307510
 30
0.0
 10
76.474106
 20
60.415902
 30
0.0
 10
76.755458
 20
59.518249
 30
0.0
 10
77.017934
 20
58.614910
 30
0.0
 10
77.261342
 20
57.706196
 30
0.0
 10
77.485711
 20
56.792629
 30
0.0
 10
77.690887
 20
55.874518
 30
0.0
 10
77.876871
 20
54.952365
 30
0.0
 10
78.043470
 20
54.026524
 30
0.0
 10
78.190756
 20
53.097448
 30
0.0
 10
78.318281
 20
52.165378
 30
0.0
 10
78.426361
 20
51.230836
 30
0.0
 10
78.515032
 20
50.294383
 30
0.0
 10
78.583861
 20
49.356152
 30
0.0
 10
78.633162
 20
48.416750
 30
0.0
 10
78.662736
 20
47.476516
 30
0.0
 10
78.672416
 20
46.535739
 30
0.0
 10
78.662510
 20
45.595039
 30
0.0
 10
78.633083
 20
44.654847
 30
0.0
 10
78.583951
 20
43.715484
 30
0.0
 10
78.514953
 20
42.777225
 30
0.0
 10
78.426386
 20
41.840668
 30
0.0
 10
78.318368
 20
40.906219
 30
0.0
 10
78.190702
 20
39.974194
 30
0.0
 10
78.043442
 20
39.045068
 30
0.0
 10
77.876984
 20
38.119260
 30
0.0
 10
77.690819
 20
37.197088
 30
0.0
 10
77.485708
 20
36.278948
 30
0.0
 10
77.261364
 20
35.365350
 30
0.0
 10
77.017888
 20
34.456679
 30
0.0
 10
76.755377
 20
33.553311
 30
0.0
 10
76.473947
 20
32.655621
 30
0.0
 10
76.174047
 20
31.763926
 30
0.0
 10
75.855302
 20
30.878928
 30
0.0
 10
75.518267
 20
30.000644
 30
0.0
 10
75.162828
 20
29.129653
 30
0.0
 10
74.789140
 20
28.266377
 30
0.0
 10
74.397571
 20
27.411018
 30
0.0
 10
73.988193
 20
26.563968
 30
0.0
 10
73.561064
 20
25.725883
 30
0.0
 10
73.116454
 20
24.896946
 30
0.0
 10
72.661656
 20
24.089500
 30
0.0
 10
75.106939
 20
22.678239
 30
0.0
  0
LWPOLYLINE
  5
10b
100
AcDbEntity
  8
Calque_1
 62
7
100
AcDbPolyline
 90
153
 70
1
 10
62.051161
 20
60.632192
 30
0.0
 10
61.619178
 20
61.533883
 30
0.0
 10
61.168441
 20
62.426363
 30
0.0
 10
60.698908
 20
63.309084
 30
0.0
 10
60.211250
 20
64.181909
 30
0.0
 10
59.705158
 20
65.044208
 30
0.0
 10
59.181309
 20
65.895820
 30
0.0
 10
58.639642
 20
66.736249
 30
0.0
 10
58.080594
 20
67.565158
 30
0.0
 10
57.504358
 20
68.382203
 30
0.0
 10
56.911113
 20
69.186982
 30
0.0
 10
56.301019
 20
69.979132
 30
0.0
 10
55.674537
 20
70.758319
 30
0.0
 10
55.031829
 20
71.524225
 30
0.0
 10
54.373066
 20
72.276461
 30
0.0
 10
53.699006
 20
73.014844
 30
0.0
 10
53.009504
 20
73.738866
 30
0.0
 10
52.304992
 20
74.448330
 30
0.0
 10
51.585670
 20
75.142822
 30
0.0
 10
50.852200
 20
75.822227
 30
0.0
 10
50.104534
 20
76.486039
 30
0.0
 10
49.343067
 20
77.134007
 30
0.0
 10
48.568215
 20
77.765948
 30
0.0
 10
47.780434
 20
78.381520
 30
0.0
 10
46.979871
 20
78.980469
 30
0.0
 10
46.178267
 20
79.554224
 30
0.0
 10
44.559570
 20
77.242403
 30
0.0
 10
45.313033
 20
76.703029
 30
0.0
 10
46.066281
 20
76.139504
 30
0.0
 10
46.807512
 20
75.560300
 30
0.0
 10
47.536591
 20
74.965776
 30
0.0
 10
48.252840
 20
74.355995
 30
0.0
 10
48.956364
 20
73.731446
 30
0.0
 10
49.646736
 20
73.092354
 30
0.0
 10
50.323315
 20
72.438809
 30
0.0
 10
50.986151
 20
71.771294
 30
0.0
 10
51.634847
 20
71.090035
 30
0.0
 10
52.269243
 20
70.395362
 30
0.0
 10
52.888913
 20
69.687568
 30
0.0
 10
53.493681
 20
68.966968
 30
0.0
 10
54.083105
 20
68.233833
 30
0.0
 10
54.657046
 20
67.488490
 30
0.0
 10
55.215344
 20
66.731322
 30
0.0
 10
55.757513
 20
65.962579
 30
0.0
 10
56.283719
 20
65.182732
 30
0.0
 10
56.793234
 20
64.391962
 30
0.0
 10
57.286113
 20
63.590702
 30
0.0
 10
57.762247
 20
62.779347
 30
0.0
 10
58.221163
 20
61.958173
 30
0.0
 10
58.662691
 20
61.127528
 30
0.0
 10
59.086928
 20
60.287881
 30
0.0
 10
59.493421
 20
59.439509
 30
0.0
 10
59.882021
 20
58.582790
 30
0.0
 10
60.252528
 20
57.718112
 30
0.0
 10
60.605043
 20
56.845935
 30
0.0
 10
60.939141
 20
55.966553
 30
0.0
 10
61.254623
 20
55.080299
 30
0.0
 10
61.551606
 20
54.187676
 30
0.0
 10
61.829899
 20
53.289094
 30
0.0
 10
62.089047
 20
52.384721
 30
0.0
 10
62.329413
 20
51.475232
 30
0.0
 10
62.550576
 20
50.560874
 30
0.0
 10
62.752619
 20
49.642111
 30
0.0
 10
62.935361
 20
48.719329
 30
0.0
 10
63.098657
 20
47.792864
 30
0.0
 10
63.242537
 20
46.863210
 30
0.0
 10
63.366921
 20
45.930708
 30
0.0
 10
63.471826
 20
44.995867
 30
0.0
 10
63.557105
 20
44.059025
 30
0.0
 10
63.622860
 20
43.120650
 30
0.0
 10
63.668642
 20
42.181005
 30
0.0
 10
63.694889
 20
41.240610
 30
0.0
 10
63.701605
 20
40.299986
 30
0.0
 10
63.688397
 20
39.359325
 30
0.0
 10
63.655646
 20
38.419195
 30
0.0
 10
63.603161
 20
37.479956
 30
0.0
 10
63.530813
 20
36.541931
 30
0.0
 10
63.438955
 20
35.605671
 30
0.0
 10
63.327695
 20
34.671625
 30
0.0
 10
63.196876
 20
33.740114
 30
0.0
 10
63.046362
 20
32.811425
 30
0.0
 10
62.876506
 20
31.886159
 30
0.0
 10
62.687460
 20
30.964681
 30
0.0
 10
62.479024
 20
30.047338
 30
0.0
 10
62.251336
 20
29.134572
 30
0.0
 10
62.004835
 20
28.226824
 30
0.0
 10
61.739004
 20
27.324365
 30
0.0
 10
61.454668
 20
26.427587
 30
0.0
 10
61.151553
 20
25.537029
 30
0.0
 10
60.829800
 20
24.653024
 30
0.0
 10
60.489558
 20
23.775973
 30
0.0
 10
60.130947
 20
22.906255
 30
0.0
 10
59.754502
 20
22.044063
 30
0.0
 10
59.359837
 20
21.190222
 30
0.0
 10
58.947535
 20
20.344653
 30
0.0
 10
58.517547
 20
19.507952
 30
0.0
 10
58.070047
 20
18.680536
 30
0.0
 10
57.605391
 20
17.862574
 30
0.0
 10
57.123739
 20
17.054408
 30
0.0
 10
56.625188
 20
16.256749
 30
0.0
 10
56.110037
 20
15.469696
 30
0.0
 10
55.586596
 20
14.704964
 30
0.0
 10
57.898394
 20
13.086279
 30
0.0
 10
58.455283
 20
13.899615
 30
0.0
 10
59.002761
 20
14.736291
 30
0.0
 10
59.532639
 20
15.584056
 30
0.0
 10
60.044505
 20
16.443038
 30
0.0
 10
60.538414
 20
17.312339
 30
0.0
 10
61.013989
 20
18.191775
 30
0.0
 10
61.470972
 20
19.080910
 30
0.0
 10
61.909158
 20
19.979670
 30
0.0
 10
62.328518
 20
20.887406
 30
0.0
 10
62.729056
 20
21.803454
 30
0.0
 10
63.110124
 20
22.727876
 30
0.0
 10
63.471707
 20
23.660011
 30
0.0
 10
63.813650
 20
24.599532
 30
0.0
 10
64.135835
 20
25.546029
 30
0.0
 10
64.438141
 20
26.499113
 30
0.0
 10
64.720165
 20
27.458299
 30
0.0
 10
64.982395
 20
28.423214
 30
0.0
 10
65.224431
 20
29.393350
 30
0.0
 10
65.445877
 20
30.368230
 30
0.0
 10
65.646853
 20
31.347617
 30
0.0
 10
65.827275
 20
32.331004
 30
0.0
 10
65.987306
 20
33.318056
 30
0.0
 10
66.126349
 20
34.308095
 30
0.0
 10
66.244764
 20
35.300919
 30
0.0
 10
66.342506
 20
36.296037
 30
0.0
 10
66.419182
 20
37.292919
 30
0.0
 10
66.474975
 20
38.291176
 30
0.0
 10
66.509776
 20
39.290333
 30
0.0
 10
66.523746
 20
40.290094
 30
0.0
 10
66.516831
 20
41.289925
 30
0.0
 10
66.488920
 20
42.289370
 30
0.0
 10
66.439929
 20
43.287940
 30
0.0
 10
66.370282
 20
44.285384
 30
0.0
 10
66.279657
 20
45.281098
 30
0.0
 10
66.168225
 20
46.274695
 30
0.0
 10
66.035863
 20
47.265693
 30
0.0
 10
65.883073
 20
48.253838
 30
0.0
 10
65.709495
 20
49.238477
 30
0.0
 10
65.515281
 20
50.219267
 30
0.0
 10
65.300631
 20
51.195790
 30
0.0
 10
65.065456
 20
52.167557
 30
0.0
 10
64.809963
 20
53.134157
 30
0.0
 10
64.534316
 20
54.095251
 30
0.0
 10
64.238711
 20
55.050418
 30
0.0
 10
63.923060
 20
55.999096
 30
0.0
 10
63.587813
 20
56.941064
 30
0.0
 10
63.232654
 20
57.875682
 30
0.0
 10
62.858255
 20
58.802768
 30
0.0
 10
62.464321
 20
59.721712
 30
0.0
 10
62.051161
 20
60.632192
 30
0.0
  0
LWPOLYLINE
  5
10c
100
AcDbEntity
  8
Calque_1
 62
7
100
AcDbPolyline
 90
153
 70
1
 10
15.663401
 20
33.657022
 30
0.0
 10
16.095392
 20
32.755331
 30
0.0
 10
16.546130
 20
31.862856
 30
0.0
 10
17.015653
 20
30.980130
 30
0.0
 10
17.503325
 20
30.107307
 30
0.0
 10
18.009422
 20
29.245003
 30
0.0
 10
18.533251
 20
28.393374
 30
0.0
 10
19.074915
 20
27.552967
 30
0.0
 10
19.633977
 20
26.724061
 30
0.0
 10
20.210223
 20
25.906997
 30
0.0
 10
20.803475
 20
25.102260
 30
0.0
 10
21.413552
 20
24.310085
 30
0.0
 10
22.040010
 20
23.530844
 30
0.0
 10
22.682745
 20
22.765003
 30
0.0
 10
23.341494
 20
22.012756
 30
0.0
 10
24.015572
 20
21.274370
 30
0.0
 10
24.705064
 20
20.550348
 30
0.0
 10
25.409579
 20
19.840884
 30
0.0
 10
26.128908
 20
19.146414
 30
0.0
 10
26.862370
 20
18.466998
 30
0.0
 10
27.610036
 20
17.803211
 30
0.0
 10
28.371602
 20
17.155305
 30
0.0
 10
29.146345
 20
16.523263
 30
0.0
 10
29.934126
 20
15.907688
 30
0.0
 10
30.734694
 20
15.308759
 30
0.0
 10
31.536335
 20
14.735049
 30
0.0
 10
33.155032
 20
17.046859
 30
0.0
 10
32.401502
 20
17.586140
 30
0.0
 10
31.648284
 20
18.149712
 30
0.0
 10
30.907039
 20
18.728889
 30
0.0
 10
30.177971
 20
19.323446
 30
0.0
 10
29.461722
 20
19.933207
 30
0.0
 10
28.758190
 20
20.557737
 30
0.0
 10
28.067823
 20
21.196849
 30
0.0
 10
27.391240
 20
21.850388
 30
0.0
 10
26.728416
 20
22.517914
 30
0.0
 10
26.079712
 20
23.199187
 30
0.0
 10
25.445326
 20
23.893866
 30
0.0
 10
24.825653
 20
24.601662
 30
0.0
 10
24.220885
 20
25.322238
 30
0.0
 10
23.631461
 20
26.055383
 30
0.0
 10
23.057508
 20
26.800718
 30
0.0
 10
22.499225
 20
27.557892
 30
0.0
 10
21.957048
 20
28.326637
 30
0.0
 10
21.430850
 20
29.106474
 30
0.0
 10
20.921340
 20
29.897249
 30
0.0
 10
20.428456
 20
30.698512
 30
0.0
 10
19.952328
 20
31.509870
 30
0.0
 10
19.493417
 20
32.331040
 30
0.0
 10
19.051882
 20
33.161697
 30
0.0
 10
18.627647
 20
34.001342
 30
0.0
 10
18.221155
 20
34.849710
 30
0.0
 10
17.832556
 20
35.706427
 30
0.0
 10
17.462048
 20
36.571102
 30
0.0
 10
17.109529
 20
37.443273
 30
0.0
 10
16.775439
 20
38.322661
 30
0.0
 10
16.459953
 20
39.208929
 30
0.0
 10
16.162968
 20
40.101535
 30
0.0
 10
15.884692
 20
41.000134
 30
0.0
 10
15.625542
 20
41.904495
 30
0.0
 10
15.385171
 20
42.813990
 30
0.0
 10
15.164008
 20
43.728345
 30
0.0
 10
14.961974
 20
44.647117
 30
0.0
 10
14.779236
 20
45.569896
 30
0.0
 10
14.615949
 20
46.496364
 30
0.0
 10
14.472053
 20
47.426018
 30
0.0
 10
14.347679
 20
48.358517
 30
0.0
 10
14.242769
 20
49.293358
 30
0.0
 10
14.157481
 20
50.230197
 30
0.0
 10
14.091721
 20
51.168575
 30
0.0
 10
14.045926
 20
52.108220
 30
0.0
 10
14.019697
 20
53.048613
 30
0.0
 10
14.012985
 20
53.989237
 30
0.0
 10
14.026193
 20
54.929900
 30
0.0
 10
14.058945
 20
55.870025
 30
0.0
 10
14.111421
 20
56.809266
 30
0.0
 10
14.183779
 20
57.747291
 30
0.0
 10
14.275635
 20
58.683552
 30
0.0
 10
14.386892
 20
59.617589
 30
0.0
 10
14.517711
 20
60.549106
 30
0.0
 10
14.668221
 20
61.477792
 30
0.0
 10
14.838083
 20
62.403057
 30
0.0
 10
15.027124
 20
63.324541
 30
0.0
 10
15.235556
 20
64.241882
 30
0.0
 10
15.463242
 20
65.154645
 30
0.0
 10
15.709748
 20
66.062407
 30
0.0
 10
15.975578
 20
66.964860
 30
0.0
 10
16.259926
 20
67.861627
 30
0.0
 10
16.563039
 20
68.752185
 30
0.0
 10
16.884786
 20
69.636193
 30
0.0
 10
17.225032
 20
70.513249
 30
0.0
 10
17.583638
 20
71.382973
 30
0.0
 10
17.960082
 20
72.245156
 30
0.0
 10
18.354755
 20
73.099000
 30
0.0
 10
18.767044
 20
73.944566
 30
0.0
 10
19.197054
 20
74.781270
 30
0.0
 10
19.644560
 20
75.608684
 30
0.0
 10
20.109211
 20
76.426654
 30
0.0
 10
20.590859
 20
77.234809
 30
0.0
 10
21.089410
 20
78.032470
 30
0.0
 10
21.604568
 20
78.819509
 30
0.0
 10
22.128016
 20
79.584241
 30
0.0
 10
19.816213
 20
81.202929
 30
0.0
 10
19.259320
 20
80.389599
 30
0.0
 10
18.711853
 20
79.552926
 30
0.0
 10
18.181979
 20
78.705158
 30
0.0
 10
17.670105
 20
77.846164
 30
0.0
 10
17.176203
 20
76.976872
 30
0.0
 10
16.700617
 20
76.097428
 30
0.0
 10
16.243626
 20
75.208289
 30
0.0
 10
15.805442
 20
74.309536
 30
0.0
 10
15.386090
 20
73.401810
 30
0.0
 10
14.985549
 20
72.485754
 30
0.0
 10
14.604486
 20
71.561332
 30
0.0
 10
14.242894
 20
70.629183
 30
0.0
 10
13.900946
 20
69.689674
 30
0.0
 10
13.578772
 20
68.743182
 30
0.0
 10
13.276464
 20
67.790104
 30
0.0
 10
12.994443
 20
66.830904
 30
0.0
 10
12.732215
 20
65.865997
 30
0.0
 10
12.490179
 20
64.895850
 30
0.0
 10
12.268730
 20
63.920987
 30
0.0
 10
12.067742
 20
62.941591
 30
0.0
 10
11.887331
 20
61.958199
 30
0.0
 10
11.727307
 20
60.971149
 30
0.0
 10
11.588263
 20
59.981116
 30
0.0
 10
11.469857
 20
58.988284
 30
0.0
 10
11.372109
 20
57.993163
 30
0.0
 10
11.295439
 20
56.996292
 30
0.0
 10
11.239652
 20
55.998029
 30
0.0
 10
11.204844
 20
54.998870
 30
0.0
 10
11.190868
 20
53.999120
 30
0.0
 10
11.197786
 20
52.999274
 30
0.0
 10
11.225700
 20
51.999832
 30
0.0
 10
11.274683
 20
51.001265
 30
0.0
 10
11.344330
 20
50.003824
 30
0.0
 10
11.434964
 20
49.008102
 30
0.0
 10
11.546403
 20
48.014519
 30
0.0
 10
11.678735
 20
47.023515
 30
0.0
 10
11.831550
 20
46.035368
 30
0.0
 10
12.005145
 20
45.050717
 30
0.0
 10
12.199354
 20
44.069938
 30
0.0
 10
12.414008
 20
43.093421
 30
0.0
 10
12.649176
 20
42.121657
 30
0.0
 10
12.904682
 20
41.155037
 30
0.0
 10
13.180314
 20
40.193960
 30
0.0
 10
13.475934
 20
39.238796
 30
0.0
 10
13.791578
 20
38.290120
 30
0.0
 10
14.126831
 20
37.348147
 30
0.0
 10
14.481991
 20
36.413523
 30
0.0
 10
14.856380
 20
35.486440
 30
0.0
 10
15.250323
 20
34.567494
 30
0.0
 10
15.663401
 20
33.657022
 30
0.0
  0
LWPOLYLINE
  5
10d
100
AcDbEntity
  8
Calque_1
 62
7
100
AcDbPolyline
 90
153
 70
1
 10
20.082257
 20
34.654827
 30
0.0
 10
20.514248
 20
33.753136
 30
0.0
 10
20.964986
 20
32.860661
 30
0.0
 10
21.434509
 20
31.977935
 30
0.0
 10
21.922181
 20
31.105112
 30
0.0
 10
22.428278
 20
30.242808
 30
0.0
 10
22.952107
 20
29.391180
 30
0.0
 10
23.493771
 20
28.550773
 30
0.0
 10
24.052833
 20
27.721866
 30
0.0
 10
24.629079
 20
26.904802
 30
0.0
 10
25.222331
 20
26.100065
 30
0.0
 10
25.832408
 20
25.307890
 30
0.0
 10
26.458866
 20
24.528649
 30
0.0
 10
27.101601
 20
23.762808
 30
0.0
 10
27.760350
 20
23.010561
 30
0.0
 10
28.434428
 20
22.272175
 30
0.0
 10
29.123919
 20
21.548153
 30
0.0
 10
29.828436
 20
20.838689
 30
0.0
 10
30.547764
 20
20.144219
 30
0.0
 10
31.281226
 20
19.464803
 30
0.0
 10
32.028892
 20
18.801016
 30
0.0
 10
32.790457
 20
18.153110
 30
0.0
 10
33.565200
 20
17.521068
 30
0.0
 10
34.352981
 20
16.905493
 30
0.0
 10
35.153549
 20
16.306564
 30
0.0
 10
35.955190
 20
15.732852
 30
0.0
 10
37.573887
 20
18.044664
 30
0.0
 10
36.820356
 20
18.583945
 30
0.0
 10
36.067139
 20
19.147518
 30
0.0
 10
35.325894
 20
19.726694
 30
0.0
 10
34.596826
 20
20.321252
 30
0.0
 10
33.880577
 20
20.931012
 30
0.0
 10
33.177045
 20
21.555542
 30
0.0
 10
32.486679
 20
22.194654
 30
0.0
 10
31.810096
 20
22.848193
 30
0.0
 10
31.147272
 20
23.515719
 30
0.0
 10
30.498567
 20
24.196992
 30
0.0
 10
29.864183
 20
24.891671
 30
0.0
 10
29.244510
 20
25.599468
 30
0.0
 10
28.639742
 20
26.320043
 30
0.0
 10
28.050317
 20
27.053189
 30
0.0
 10
27.476364
 20
27.798523
 30
0.0
 10
26.918081
 20
28.555697
 30
0.0
 10
26.375904
 20
29.324442
 30
0.0
 10
25.849706
 20
30.104279
 30
0.0
 10
25.340196
 20
30.895054
 30
0.0
 10
24.847312
 20
31.696317
 30
0.0
 10
24.371184
 20
32.507675
 30
0.0
 10
23.912273
 20
33.328846
 30
0.0
 10
23.470738
 20
34.159502
 30
0.0
 10
23.046503
 20
34.999147
 30
0.0
 10
22.640011
 20
35.847515
 30
0.0
 10
22.251412
 20
36.704232
 30
0.0
 10
21.880904
 20
37.568907
 30
0.0
 10
21.528386
 20
38.441078
 30
0.0
 10
21.194295
 20
39.320466
 30
0.0
 10
20.878809
 20
40.206734
 30
0.0
 10
20.581824
 20
41.099341
 30
0.0
 10
20.303548
 20
41.997939
 30
0.0
 10
20.044398
 20
42.902300
 30
0.0
 10
19.804027
 20
43.811795
 30
0.0
 10
19.582864
 20
44.726150
 30
0.0
 10
19.380830
 20
45.644922
 30
0.0
 10
19.198092
 20
46.567701
 30
0.0
 10
19.034805
 20
47.494169
 30
0.0
 10
18.890909
 20
48.423823
 30
0.0
 10
18.766535
 20
49.356322
 30
0.0
 10
18.661625
 20
50.291163
 30
0.0
 10
18.576337
 20
51.228003
 30
0.0
 10
18.510577
 20
52.166380
 30
0.0
 10
18.464782
 20
53.106025
 30
0.0
 10
18.438553
 20
54.046418
 30
0.0
 10
18.431841
 20
54.987042
 30
0.0
 10
18.445049
 20
55.927705
 30
0.0
 10
18.477801
 20
56.867830
 30
0.0
 10
18.530277
 20
57.807071
 30
0.0
 10
18.602635
 20
58.745096
 30
0.0
 10
18.694491
 20
59.681357
 30
0.0
 10
18.805748
 20
60.615394
 30
0.0
 10
18.936568
 20
61.546911
 30
0.0
 10
19.087078
 20
62.475597
 30
0.0
 10
19.256939
 20
63.400862
 30
0.0
 10
19.445980
 20
64.322346
 30
0.0
 10
19.654412
 20
65.239687
 30
0.0
 10
19.882098
 20
66.152450
 30
0.0
 10
20.128604
 20
67.060212
 30
0.0
 10
20.394434
 20
67.962666
 30
0.0
 10
20.678782
 20
68.859432
 30
0.0
 10
20.981895
 20
69.749990
 30
0.0
 10
21.303642
 20
70.633998
 30
0.0
 10
21.643888
 20
71.511054
 30
0.0
 10
22.002494
 20
72.380778
 30
0.0
 10
22.378938
 20
73.242962
 30
0.0
 10
22.773611
 20
74.096805
 30
0.0
 10
23.185900
 20
74.942371
 30
0.0
 10
23.615910
 20
75.779075
 30
0.0
 10
24.063416
 20
76.606489
 30
0.0
 10
24.528067
 20
77.424459
 30
0.0
 10
25.009715
 20
78.232614
 30
0.0
 10
25.508266
 20
79.030275
 30
0.0
 10
26.023424
 20
79.817314
 30
0.0
 10
26.546872
 20
80.582046
 30
0.0
 10
24.235069
 20
82.200734
 30
0.0
 10
23.678176
 20
81.387404
 30
0.0
 10
23.130710
 20
80.550731
 30
0.0
 10
22.600835
 20
79.702963
 30
0.0
 10
22.088962
 20
78.843969
 30
0.0
 10
21.595059
 20
77.974677
 30
0.0
 10
21.119473
 20
77.095233
 30
0.0
 10
20.662482
 20
76.206095
 30
0.0
 10
20.224298
 20
75.307341
 30
0.0
 10
19.804946
 20
74.399615
 30
0.0
 10
19.404405
 20
73.483559
 30
0.0
 10
19.023342
 20
72.559137
 30
0.0
 10
18.661750
 20
71.626988
 30
0.0
 10
18.319802
 20
70.687479
 30
0.0
 10
17.997628
 20
69.740987
 30
0.0
 10
17.695320
 20
68.787909
 30
0.0
 10
17.413299
 20
67.828709
 30
0.0
 10
17.151071
 20
66.863802
 30
0.0
 10
16.909035
 20
65.893655
 30
0.0
 10
16.687586
 20
64.918792
 30
0.0
 10
16.486598
 20
63.939396
 30
0.0
 10
16.306187
 20
62.956004
 30
0.0
 10
16.146163
 20
61.968954
 30
0.0
 10
16.007119
 20
60.978922
 30
0.0
 10
15.888713
 20
59.986089
 30
0.0
 10
15.790965
 20
58.990968
 30
0.0
 10
15.714295
 20
57.994097
 30
0.0
 10
15.658508
 20
56.995835
 30
0.0
 10
15.623700
 20
55.996675
 30
0.0
 10
15.609724
 20
54.996925
 30
0.0
 10
15.616642
 20
53.997080
 30
0.0
 10
15.644556
 20
52.997638
 30
0.0
 10
15.693539
 20
51.999070
 30
0.0
 10
15.763186
 20
51.001629
 30
0.0
 10
15.853820
 20
50.005907
 30
0.0
 10
15.965259
 20
49.012324
 30
0.0
 10
16.097591
 20
48.021320
 30
0.0
 10
16.250406
 20
47.033173
 30
0.0
 10
16.424002
 20
46.048522
 30
0.0
 10
16.618210
 20
45.067743
 30
0.0
 10
16.832864
 20
44.091226
 30
0.0
 10
17.068032
 20
43.119462
 30
0.0
 10
17.323538
 20
42.152842
 30
0.0
 10
17.599170
 20
41.191766
 30
0.0
 10
17.894791
 20
40.236601
 30
0.0
 10
18.210434
 20
39.287925
 30
0.0
 10
18.545687
 20
38.345952
 30
0.0
 10
18.900847
 20
37.411328
 30
0.0
 10
19.275236
 20
36.484245
 30
0.0
 10
19.669179
 20
35.565299
 30
0.0
 10
20.082257
 20
34.654827
 30
0.0
  0
LWPOLYLINE
  5
10e
100
AcDbEntity
  8
Calque_1
 62
7
100
AcDbPolyline
 90
153
 70
1
 10
24.501113
 20
35.652632
 30
0.0
 10
24.933104
 20
34.750941
 30
0.0
 10
25.383842
 20
33.858467
 30
0.0
 10
25.853365
 20
32.975740
 30
0.0
 10
26.341037
 20
32.102917
 30
0.0
 10
26.847134
 20
31.240613
 30
0.0
 10
27.370963
 20
30.388985
 30
0.0
 10
27.912628
 20
29.548578
 30
0.0
 10
28.471690
 20
28.719671
 30
0.0
 10
29.047934
 20
27.902607
 30
0.0
 10
29.641188
 20
27.097870
 30
0.0
 10
30.251265
 20
26.305695
 30
0.0
 10
30.877722
 20
25.526454
 30
0.0
 10
31.520457
 20
24.760613
 30
0.0
 10
32.179206
 20
24.008366
 30
0.0
 10
32.853283
 20
23.269980
 30
0.0
 10
33.542774
 20
22.545959
 30
0.0
 10
34.247291
 20
21.836494
 30
0.0
 10
34.966619
 20
21.142024
 30
0.0
 10
35.700081
 20
20.462608
 30
0.0
 10
36.447747
 20
19.798822
 30
0.0
 10
37.209312
 20
19.150916
 30
0.0
 10
37.984055
 20
18.518873
 30
0.0
 10
38.771836
 20
17.903299
 30
0.0
 10
39.572404
 20
17.304369
 30
0.0
 10
40.374045
 20
16.730657
 30
0.0
 10
41.992742
 20
19.042469
 30
0.0
 10
41.239211
 20
19.581750
 30
0.0
 10
40.485994
 20
20.145323
 30
0.0
 10
39.744749
 20
20.724499
 30
0.0
 10
39.015681
 20
21.319057
 30
0.0
 10
38.299432
 20
21.928818
 30
0.0
 10
37.595900
 20
22.553347
 30
0.0
 10
36.905534
 20
23.192459
 30
0.0
 10
36.228951
 20
23.845998
 30
0.0
 10
35.566127
 20
24.513524
 30
0.0
 10
34.917422
 20
25.194798
 30
0.0
 10
34.283038
 20
25.889476
 30
0.0
 10
33.663365
 20
26.597273
 30
0.0
 10
33.058597
 20
27.317848
 30
0.0
 10
32.469173
 20
28.050994
 30
0.0
 10
31.895220
 20
28.796328
 30
0.0
 10
31.336937
 20
29.553502
 30
0.0
 10
30.794760
 20
30.322248
 30
0.0
 10
30.268562
 20
31.102084
 30
0.0
 10
29.759052
 20
31.892859
 30
0.0
 10
29.266168
 20
32.694122
 30
0.0
 10
28.790039
 20
33.505480
 30
0.0
 10
28.331129
 20
34.326651
 30
0.0
 10
27.889594
 20
35.157307
 30
0.0
 10
27.465360
 20
35.996952
 30
0.0
 10
27.058867
 20
36.845320
 30
0.0
 10
26.670268
 20
37.702037
 30
0.0
 10
26.299760
 20
38.566712
 30
0.0
 10
25.947242
 20
39.438883
 30
0.0
 10
25.613151
 20
40.318271
 30
0.0
 10
25.297665
 20
41.204539
 30
0.0
 10
25.000680
 20
42.097146
 30
0.0
 10
24.722404
 20
42.995744
 30
0.0
 10
24.463254
 20
43.900105
 30
0.0
 10
24.222883
 20
44.809600
 30
0.0
 10
24.001720
 20
45.723955
 30
0.0
 10
23.799686
 20
46.642727
 30
0.0
 10
23.616949
 20
47.565506
 30
0.0
 10
23.453661
 20
48.491974
 30
0.0
 10
23.309765
 20
49.421628
 30
0.0
 10
23.185391
 20
50.354127
 30
0.0
 10
23.080481
 20
51.288968
 30
0.0
 10
22.995193
 20
52.225808
 30
0.0
 10
22.929433
 20
53.164185
 30
0.0
 10
22.883638
 20
54.103830
 30
0.0
 10
22.857409
 20
55.044223
 30
0.0
 10
22.850697
 20
55.984847
 30
0.0
 10
22.863905
 20
56.925510
 30
0.0
 10
22.896658
 20
57.865635
 30
0.0
 10
22.949133
 20
58.804876
 30
0.0
 10
23.021491
 20
59.742901
 30
0.0
 10
23.113347
 20
60.679162
 30
0.0
 10
23.224604
 20
61.613199
 30
0.0
 10
23.355424
 20
62.544716
 30
0.0
 10
23.505934
 20
63.473402
 30
0.0
 10
23.675795
 20
64.398667
 30
0.0
 10
23.864836
 20
65.320151
 30
0.0
 10
24.073268
 20
66.237492
 30
0.0
 10
24.300954
 20
67.150255
 30
0.0
 10
24.547460
 20
68.058017
 30
0.0
 10
24.813290
 20
68.960471
 30
0.0
 10
25.097638
 20
69.857238
 30
0.0
 10
25.400751
 20
70.747795
 30
0.0
 10
25.722498
 20
71.631803
 30
0.0
 10
26.062744
 20
72.508859
 30
0.0
 10
26.421350
 20
73.378583
 30
0.0
 10
26.797794
 20
74.240767
 30
0.0
 10
27.192468
 20
75.094610
 30
0.0
 10
27.604756
 20
75.940176
 30
0.0
 10
28.034766
 20
76.776880
 30
0.0
 10
28.482273
 20
77.604294
 30
0.0
 10
28.946924
 20
78.422264
 30
0.0
 10
29.428573
 20
79.230419
 30
0.0
 10
29.927124
 20
80.028080
 30
0.0
 10
30.442281
 20
80.815119
 30
0.0
 10
30.965727
 20
81.579851
 30
0.0
 10
28.653926
 20
83.198540
 30
0.0
 10
28.097032
 20
82.385209
 30
0.0
 10
27.549566
 20
81.548536
 30
0.0
 10
27.019691
 20
80.700768
 30
0.0
 10
26.507818
 20
79.841774
 30
0.0
 10
26.013915
 20
78.972482
 30
0.0
 10
25.538329
 20
78.093038
 30
0.0
 10
25.081338
 20
77.203900
 30
0.0
 10
24.643155
 20
76.305146
 30
0.0
 10
24.223802
 20
75.397421
 30
0.0
 10
23.823261
 20
74.481364
 30
0.0
 10
23.442198
 20
73.556942
 30
0.0
 10
23.080606
 20
72.624793
 30
0.0
 10
22.738658
 20
71.685284
 30
0.0
 10
22.416484
 20
70.738792
 30
0.0
 10
22.114176
 20
69.785714
 30
0.0
 10
21.832155
 20
68.826514
 30
0.0
 10
21.569928
 20
67.861607
 30
0.0
 10
21.327891
 20
66.891460
 30
0.0
 10
21.106442
 20
65.916597
 30
0.0
 10
20.905454
 20
64.937201
 30
0.0
 10
20.725043
 20
63.953809
 30
0.0
 10
20.565019
 20
62.966759
 30
0.0
 10
20.425975
 20
61.976727
 30
0.0
 10
20.307569
 20
60.983894
 30
0.0
 10
20.209821
 20
59.988773
 30
0.0
 10
20.133151
 20
58.991902
 30
0.0
 10
20.077365
 20
57.993640
 30
0.0
 10
20.042556
 20
56.994480
 30
0.0
 10
20.028580
 20
55.994730
 30
0.0
 10
20.035498
 20
54.994885
 30
0.0
 10
20.063412
 20
53.995443
 30
0.0
 10
20.112395
 20
52.996876
 30
0.0
 10
20.182042
 20
51.999434
 30
0.0
 10
20.272676
 20
51.003712
 30
0.0
 10
20.384115
 20
50.010129
 30
0.0
 10
20.516447
 20
49.019125
 30
0.0
 10
20.669262
 20
48.030978
 30
0.0
 10
20.842858
 20
47.046327
 30
0.0
 10
21.037066
 20
46.065549
 30
0.0
 10
21.251720
 20
45.089031
 30
0.0
 10
21.486888
 20
44.117267
 30
0.0
 10
21.742394
 20
43.150647
 30
0.0
 10
22.018026
 20
42.189571
 30
0.0
 10
22.313647
 20
41.234406
 30
0.0
 10
22.629290
 20
40.285731
 30
0.0
 10
22.964543
 20
39.343757
 30
0.0
 10
23.319703
 20
38.409133
 30
0.0
 10
23.694093
 20
37.482050
 30
0.0
 10
24.088035
 20
36.563104
 30
0.0
 10
24.501113
 20
35.652632
 30
0.0
  0
LWPOLYLINE
  5
10f
100
AcDbEntity
  8
Calque_1
 62
7
100
AcDbPolyline
 90
153
 70
1
 10
28.777427
 20
36.579168
 30
0.0
 10
29.209419
 20
35.677476
 30
0.0
 10
29.660156
 20
34.785002
 30
0.0
 10
30.129678
 20
33.902276
 30
0.0
 10
30.617349
 20
33.029453
 30
0.0
 10
31.123447
 20
32.167148
 30
0.0
 10
31.647277
 20
31.315520
 30
0.0
 10
32.188940
 20
30.475113
 30
0.0
 10
32.748003
 20
29.646207
 30
0.0
 10
33.324247
 20
28.829142
 30
0.0
 10
33.917501
 20
28.024406
 30
0.0
 10
34.527577
 20
27.232230
 30
0.0
 10
35.154035
 20
26.452989
 30
0.0
 10
35.796770
 20
25.687148
 30
0.0
 10
36.455519
 20
24.934902
 30
0.0
 10
37.129596
 20
24.196515
 30
0.0
 10
37.819087
 20
23.472494
 30
0.0
 10
38.523604
 20
22.763030
 30
0.0
 10
39.242932
 20
22.068560
 30
0.0
 10
39.976394
 20
21.389144
 30
0.0
 10
40.724060
 20
20.725357
 30
0.0
 10
41.485625
 20
20.077451
 30
0.0
 10
42.260368
 20
19.445409
 30
0.0
 10
43.048149
 20
18.829834
 30
0.0
 10
43.848717
 20
18.230905
 30
0.0
 10
44.650358
 20
17.657192
 30
0.0
 10
46.269055
 20
19.969004
 30
0.0
 10
45.515524
 20
20.508286
 30
0.0
 10
44.762307
 20
21.071858
 30
0.0
 10
44.021062
 20
21.651035
 30
0.0
 10
43.291994
 20
22.245592
 30
0.0
 10
42.575745
 20
22.855353
 30
0.0
 10
41.872213
 20
23.479883
 30
0.0
 10
41.181847
 20
24.118995
 30
0.0
 10
40.505264
 20
24.772534
 30
0.0
 10
39.842440
 20
25.440060
 30
0.0
 10
39.193735
 20
26.121333
 30
0.0
 10
38.559351
 20
26.816012
 30
0.0
 10
37.939678
 20
27.523808
 30
0.0
 10
37.334910
 20
28.244384
 30
0.0
 10
36.745486
 20
28.977529
 30
0.0
 10
36.171533
 20
29.722864
 30
0.0
 10
35.613250
 20
30.480038
 30
0.0
 10
35.071073
 20
31.248783
 30
0.0
 10
34.544875
 20
32.028620
 30
0.0
 10
34.035365
 20
32.819395
 30
0.0
 10
33.542481
 20
33.620658
 30
0.0
 10
33.066352
 20
34.432016
 30
0.0
 10
32.607442
 20
35.253186
 30
0.0
 10
32.165908
 20
36.083842
 30
0.0
 10
31.741672
 20
36.923487
 30
0.0
 10
31.335178
 20
37.771856
 30
0.0
 10
30.946581
 20
38.628573
 30
0.0
 10
30.576074
 20
39.493248
 30
0.0
 10
30.223556
 20
40.365419
 30
0.0
 10
29.889464
 20
41.244806
 30
0.0
 10
29.573979
 20
42.131074
 30
0.0
 10
29.276994
 20
43.023681
 30
0.0
 10
28.998717
 20
43.922280
 30
0.0
 10
28.739567
 20
44.826641
 30
0.0
 10
28.499195
 20
45.736136
 30
0.0
 10
28.278034
 20
46.650491
 30
0.0
 10
28.075999
 20
47.569262
 30
0.0
 10
27.893261
 20
48.492042
 30
0.0
 10
27.729974
 20
49.418509
 30
0.0
 10
27.586078
 20
50.348164
 30
0.0
 10
27.461704
 20
51.280662
 30
0.0
 10
27.356794
 20
52.215504
 30
0.0
 10
27.271505
 20
53.152343
 30
0.0
 10
27.205746
 20
54.090721
 30
0.0
 10
27.159951
 20
55.030366
 30
0.0
 10
27.133721
 20
55.970758
 30
0.0
 10
27.127010
 20
56.911382
 30
0.0
 10
27.140218
 20
57.852046
 30
0.0
 10
27.172970
 20
58.792171
 30
0.0
 10
27.225446
 20
59.731412
 30
0.0
 10
27.297804
 20
60.669437
 30
0.0
 10
27.389660
 20
61.605698
 30
0.0
 10
27.500916
 20
62.539735
 30
0.0
 10
27.631736
 20
63.471251
 30
0.0
 10
27.782246
 20
64.399937
 30
0.0
 10
27.952106
 20
65.325203
 30
0.0
 10
28.141147
 20
66.246687
 30
0.0
 10
28.349581
 20
67.164028
 30
0.0
 10
28.577266
 20
68.076791
 30
0.0
 10
28.823773
 20
68.984553
 30
0.0
 10
29.089604
 20
69.887006
 30
0.0
 10
29.373951
 20
70.783773
 30
0.0
 10
29.677064
 20
71.674331
 30
0.0
 10
29.998811
 20
72.558338
 30
0.0
 10
30.339058
 20
73.435395
 30
0.0
 10
30.697664
 20
74.305119
 30
0.0
 10
31.074106
 20
75.167302
 30
0.0
 10
31.468780
 20
76.021146
 30
0.0
 10
31.881070
 20
76.866712
 30
0.0
 10
32.311080
 20
77.703416
 30
0.0
 10
32.758586
 20
78.530830
 30
0.0
 10
33.223237
 20
79.348800
 30
0.0
 10
33.704886
 20
80.156954
 30
0.0
 10
34.203437
 20
80.954616
 30
0.0
 10
34.718594
 20
81.741655
 30
0.0
 10
35.242040
 20
82.506387
 30
0.0
 10
32.930239
 20
84.125075
 30
0.0
 10
32.373344
 20
83.311745
 30
0.0
 10
31.825878
 20
82.475071
 30
0.0
 10
31.296003
 20
81.627304
 30
0.0
 10
30.784131
 20
80.768310
 30
0.0
 10
30.290228
 20
79.899017
 30
0.0
 10
29.814641
 20
79.019573
 30
0.0
 10
29.357650
 20
78.130435
 30
0.0
 10
28.919466
 20
77.231682
 30
0.0
 10
28.500115
 20
76.323956
 30
0.0
 10
28.099573
 20
75.407900
 30
0.0
 10
27.718510
 20
74.483478
 30
0.0
 10
27.356918
 20
73.551329
 30
0.0
 10
27.014970
 20
72.611820
 30
0.0
 10
26.692797
 20
71.665328
 30
0.0
 10
26.390489
 20
70.712249
 30
0.0
 10
26.108468
 20
69.753050
 30
0.0
 10
25.846240
 20
68.788143
 30
0.0
 10
25.604204
 20
67.817996
 30
0.0
 10
25.382754
 20
66.843132
 30
0.0
 10
25.181767
 20
65.863737
 30
0.0
 10
25.001355
 20
64.880345
 30
0.0
 10
24.841332
 20
63.893295
 30
0.0
 10
24.702288
 20
62.903262
 30
0.0
 10
24.583882
 20
61.910430
 30
0.0
 10
24.486134
 20
60.915309
 30
0.0
 10
24.409463
 20
59.918438
 30
0.0
 10
24.353677
 20
58.920175
 30
0.0
 10
24.318868
 20
57.921016
 30
0.0
 10
24.304893
 20
56.921266
 30
0.0
 10
24.311810
 20
55.921420
 30
0.0
 10
24.339725
 20
54.921978
 30
0.0
 10
24.388708
 20
53.923411
 30
0.0
 10
24.458355
 20
52.925970
 30
0.0
 10
24.548988
 20
51.930248
 30
0.0
 10
24.660427
 20
50.936665
 30
0.0
 10
24.792759
 20
49.945661
 30
0.0
 10
24.945575
 20
48.957514
 30
0.0
 10
25.119170
 20
47.972863
 30
0.0
 10
25.313378
 20
46.992084
 30
0.0
 10
25.528032
 20
46.015567
 30
0.0
 10
25.763201
 20
45.043803
 30
0.0
 10
26.018706
 20
44.077183
 30
0.0
 10
26.294338
 20
43.116106
 30
0.0
 10
26.589959
 20
42.160942
 30
0.0
 10
26.905602
 20
41.212266
 30
0.0
 10
27.240856
 20
40.270293
 30
0.0
 10
27.596015
 20
39.335669
 30
0.0
 10
27.970406
 20
38.408586
 30
0.0
 10
28.364349
 20
37.489639
 30
0.0
 10
28.777427
 20
36.579168
 30
0.0
  0
LWPOLYLINE
  5
110
100
AcDbEntity
  8
Calque_1
 62
7
100
AcDbPolyline
 90
153
 70
1
 10
33.125009
 20
37.648245
 30
0.0
 10
33.557001
 20
36.746554
 30
0.0
 10
34.007738
 20
35.854080
 30
0.0
 10
34.477260
 20
34.971354
 30
0.0
 10
34.964932
 20
34.098530
 30
0.0
 10
35.471029
 20
33.236226
 30
0.0
 10
35.994859
 20
32.384598
 30
0.0
 10
36.536523
 20
31.544191
 30
0.0
 10
37.095585
 20
30.715284
 30
0.0
 10
37.671829
 20
29.898220
 30
0.0
 10
38.265083
 20
29.093483
 30
0.0
 10
38.875160
 20
28.301308
 30
0.0
 10
39.501617
 20
27.522067
 30
0.0
 10
40.144353
 20
26.756226
 30
0.0
 10
40.803102
 20
26.003979
 30
0.0
 10
41.477178
 20
25.265593
 30
0.0
 10
42.166670
 20
24.541572
 30
0.0
 10
42.871187
 20
23.832107
 30
0.0
 10
43.590515
 20
23.137637
 30
0.0
 10
44.323976
 20
22.458221
 30
0.0
 10
45.071642
 20
21.794435
 30
0.0
 10
45.833208
 20
21.146529
 30
0.0
 10
46.607950
 20
20.514486
 30
0.0
 10
47.395731
 20
19.898912
 30
0.0
 10
48.196300
 20
19.299982
 30
0.0
 10
48.997941
 20
18.726270
 30
0.0
 10
50.616637
 20
21.038082
 30
0.0
 10
49.863107
 20
21.577363
 30
0.0
 10
49.109890
 20
22.140936
 30
0.0
 10
48.368644
 20
22.720112
 30
0.0
 10
47.639577
 20
23.314670
 30
0.0
 10
46.923328
 20
23.924431
 30
0.0
 10
46.219796
 20
24.548960
 30
0.0
 10
45.529429
 20
25.188072
 30
0.0
 10
44.852847
 20
25.841611
 30
0.0
 10
44.190023
 20
26.509137
 30
0.0
 10
43.541318
 20
27.190411
 30
0.0
 10
42.906933
 20
27.885089
 30
0.0
 10
42.287261
 20
28.592886
 30
0.0
 10
41.682492
 20
29.313461
 30
0.0
 10
41.093068
 20
30.046607
 30
0.0
 10
40.519116
 20
30.791942
 30
0.0
 10
39.960832
 20
31.549116
 30
0.0
 10
39.418655
 20
32.317861
 30
0.0
 10
38.892457
 20
33.097697
 30
0.0
 10
38.382948
 20
33.888472
 30
0.0
 10
37.890063
 20
34.689735
 30
0.0
 10
37.413935
 20
35.501093
 30
0.0
 10
36.955024
 20
36.322264
 30
0.0
 10
36.513491
 20
37.152920
 30
0.0
 10
36.089254
 20
37.992565
 30
0.0
 10
35.682761
 20
38.840933
 30
0.0
 10
35.294164
 20
39.697650
 30
0.0
 10
34.923657
 20
40.562325
 30
0.0
 10
34.571138
 20
41.434496
 30
0.0
 10
34.237047
 20
42.313884
 30
0.0
 10
33.921562
 20
43.200152
 30
0.0
 10
33.624576
 20
44.092759
 30
0.0
 10
33.346300
 20
44.991357
 30
0.0
 10
33.087149
 20
45.895719
 30
0.0
 10
32.846778
 20
46.805214
 30
0.0
 10
32.625617
 20
47.719568
 30
0.0
 10
32.423583
 20
48.638340
 30
0.0
 10
32.240844
 20
49.561119
 30
0.0
 10
32.077558
 20
50.487587
 30
0.0
 10
31.933662
 20
51.417241
 30
0.0
 10
31.809286
 20
52.349740
 30
0.0
 10
31.704376
 20
53.284581
 30
0.0
 10
31.619088
 20
54.221421
 30
0.0
 10
31.553328
 20
55.159798
 30
0.0
 10
31.507534
 20
56.099443
 30
0.0
 10
31.481316
 20
57.039836
 30
0.0
 10
31.474599
 20
57.980460
 30
0.0
 10
31.487807
 20
58.921124
 30
0.0
 10
31.520559
 20
59.861248
 30
0.0
 10
31.573035
 20
60.800489
 30
0.0
 10
31.645392
 20
61.738514
 30
0.0
 10
31.737249
 20
62.674775
 30
0.0
 10
31.848507
 20
63.608812
 30
0.0
 10
31.979325
 20
64.540329
 30
0.0
 10
32.129834
 20
65.469015
 30
0.0
 10
32.299696
 20
66.394281
 30
0.0
 10
32.488736
 20
67.315764
 30
0.0
 10
32.697169
 20
68.233105
 30
0.0
 10
32.924854
 20
69.145868
 30
0.0
 10
33.171361
 20
70.053630
 30
0.0
 10
33.437192
 20
70.956084
 30
0.0
 10
33.721540
 20
71.852851
 30
0.0
 10
34.024652
 20
72.743408
 30
0.0
 10
34.346399
 20
73.627416
 30
0.0
 10
34.686646
 20
74.504472
 30
0.0
 10
35.045252
 20
75.374197
 30
0.0
 10
35.421694
 20
76.236380
 30
0.0
 10
35.816368
 20
77.090223
 30
0.0
 10
36.228658
 20
77.935789
 30
0.0
 10
36.658669
 20
78.772494
 30
0.0
 10
37.106174
 20
79.599907
 30
0.0
 10
37.570825
 20
80.417877
 30
0.0
 10
38.052474
 20
81.226032
 30
0.0
 10
38.551025
 20
82.023694
 30
0.0
 10
39.066182
 20
82.810732
 30
0.0
 10
39.589628
 20
83.575464
 30
0.0
 10
37.277827
 20
85.194153
 30
0.0
 10
36.720932
 20
84.380822
 30
0.0
 10
36.173466
 20
83.544149
 30
0.0
 10
35.643591
 20
82.696382
 30
0.0
 10
35.131719
 20
81.837387
 30
0.0
 10
34.637816
 20
80.968095
 30
0.0
 10
34.162230
 20
80.088651
 30
0.0
 10
33.705238
 20
79.199513
 30
0.0
 10
33.267055
 20
78.300759
 30
0.0
 10
32.847703
 20
77.393034
 30
0.0
 10
32.447162
 20
76.476977
 30
0.0
 10
32.066100
 20
75.552555
 30
0.0
 10
31.704509
 20
74.620406
 30
0.0
 10
31.362560
 20
73.680897
 30
0.0
 10
31.040386
 20
72.734406
 30
0.0
 10
30.738078
 20
71.781327
 30
0.0
 10
30.456056
 20
70.822127
 30
0.0
 10
30.193829
 20
69.857221
 30
0.0
 10
29.951793
 20
68.887073
 30
0.0
 10
29.730344
 20
67.912210
 30
0.0
 10
29.529357
 20
66.932814
 30
0.0
 10
29.348944
 20
65.949422
 30
0.0
 10
29.188921
 20
64.962372
 30
0.0
 10
29.049876
 20
63.972340
 30
0.0
 10
28.931472
 20
62.979507
 30
0.0
 10
28.833722
 20
61.984386
 30
0.0
 10
28.757053
 20
60.987515
 30
0.0
 10
28.701266
 20
59.989253
 30
0.0
 10
28.666457
 20
58.990093
 30
0.0
 10
28.652487
 20
57.990343
 30
0.0
 10
28.659401
 20
56.990498
 30
0.0
 10
28.687313
 20
55.991056
 30
0.0
 10
28.736296
 20
54.992489
 30
0.0
 10
28.805945
 20
53.995048
 30
0.0
 10
28.896578
 20
52.999325
 30
0.0
 10
29.008016
 20
52.005742
 30
0.0
 10
29.140348
 20
51.014739
 30
0.0
 10
29.293165
 20
50.026591
 30
0.0
 10
29.466760
 20
49.041940
 30
0.0
 10
29.660969
 20
48.061162
 30
0.0
 10
29.875621
 20
47.084645
 30
0.0
 10
30.110788
 20
46.112880
 30
0.0
 10
30.366295
 20
45.146260
 30
0.0
 10
30.641928
 20
44.185184
 30
0.0
 10
30.937547
 20
43.230020
 30
0.0
 10
31.253190
 20
42.281344
 30
0.0
 10
31.588445
 20
41.339371
 30
0.0
 10
31.943604
 20
40.404747
 30
0.0
 10
32.317995
 20
39.477663
 30
0.0
 10
32.711938
 20
38.558717
 30
0.0
 10
33.125009
 20
37.648245
 30
0.0
  0
LWPOLYLINE
  5
111
100
AcDbEntity
  8
Calque_1
 62
7
100
AcDbPolyline
 90
153
 70
1
 10
37.330050
 20
38.360961
 30
0.0
 10
37.762042
 20
37.459269
 30
0.0
 10
38.212779
 20
36.566795
 30
0.0
 10
38.682301
 20
35.684069
 30
0.0
 10
39.169972
 20
34.811246
 30
0.0
 10
39.676070
 20
33.948941
 30
0.0
 10
40.199900
 20
33.097313
 30
0.0
 10
40.741563
 20
32.256906
 30
0.0
 10
41.300626
 20
31.428000
 30
0.0
 10
41.876870
 20
30.610936
 30
0.0
 10
42.470124
 20
29.806199
 30
0.0
 10
43.080201
 20
29.014023
 30
0.0
 10
43.706658
 20
28.234782
 30
0.0
 10
44.349393
 20
27.468941
 30
0.0
 10
45.008142
 20
26.716695
 30
0.0
 10
45.682219
 20
25.978309
 30
0.0
 10
46.371710
 20
25.254287
 30
0.0
 10
47.076227
 20
24.544823
 30
0.0
 10
47.795555
 20
23.850353
 30
0.0
 10
48.529017
 20
23.170937
 30
0.0
 10
49.276683
 20
22.507150
 30
0.0
 10
50.038248
 20
21.859244
 30
0.0
 10
50.812991
 20
21.227202
 30
0.0
 10
51.600772
 20
20.611627
 30
0.0
 10
52.401340
 20
20.012698
 30
0.0
 10
53.202981
 20
19.438985
 30
0.0
 10
54.821678
 20
21.750797
 30
0.0
 10
54.068147
 20
22.290079
 30
0.0
 10
53.314930
 20
22.853651
 30
0.0
 10
52.573685
 20
23.432828
 30
0.0
 10
51.844617
 20
24.027385
 30
0.0
 10
51.128368
 20
24.637146
 30
0.0
 10
50.424836
 20
25.261676
 30
0.0
 10
49.734470
 20
25.900788
 30
0.0
 10
49.057887
 20
26.554327
 30
0.0
 10
48.395063
 20
27.221853
 30
0.0
 10
47.746358
 20
27.903126
 30
0.0
 10
47.111974
 20
28.597805
 30
0.0
 10
46.492301
 20
29.305601
 30
0.0
 10
45.887533
 20
30.026177
 30
0.0
 10
45.298109
 20
30.759322
 30
0.0
 10
44.724156
 20
31.504657
 30
0.0
 10
44.165873
 20
32.261831
 30
0.0
 10
43.623696
 20
33.030576
 30
0.0
 10
43.097498
 20
33.810413
 30
0.0
 10
42.587988
 20
34.601188
 30
0.0
 10
42.095104
 20
35.402451
 30
0.0
 10
41.618975
 20
36.213809
 30
0.0
 10
41.160065
 20
37.034979
 30
0.0
 10
40.718531
 20
37.865636
 30
0.0
 10
40.294295
 20
38.705281
 30
0.0
 10
39.887802
 20
39.553649
 30
0.0
 10
39.499204
 20
40.410366
 30
0.0
 10
39.128697
 20
41.275041
 30
0.0
 10
38.776179
 20
42.147212
 30
0.0
 10
38.442087
 20
43.026599
 30
0.0
 10
38.126602
 20
43.912868
 30
0.0
 10
37.829617
 20
44.805474
 30
0.0
 10
37.551340
 20
45.704073
 30
0.0
 10
37.292190
 20
46.608434
 30
0.0
 10
37.051818
 20
47.517929
 30
0.0
 10
36.830658
 20
48.432284
 30
0.0
 10
36.628623
 20
49.351056
 30
0.0
 10
36.445884
 20
50.273835
 30
0.0
 10
36.282599
 20
51.200303
 30
0.0
 10
36.138702
 20
52.129957
 30
0.0
 10
36.014327
 20
53.062456
 30
0.0
 10
35.909417
 20
53.997297
 30
0.0
 10
35.824129
 20
54.934136
 30
0.0
 10
35.758368
 20
55.872514
 30
0.0
 10
35.712575
 20
56.812159
 30
0.0
 10
35.686357
 20
57.752551
 30
0.0
 10
35.679640
 20
58.693176
 30
0.0
 10
35.692848
 20
59.633839
 30
0.0
 10
35.725600
 20
60.573964
 30
0.0
 10
35.778076
 20
61.513205
 30
0.0
 10
35.850432
 20
62.451230
 30
0.0
 10
35.942290
 20
63.387491
 30
0.0
 10
36.053547
 20
64.321528
 30
0.0
 10
36.184366
 20
65.253044
 30
0.0
 10
36.334875
 20
66.181731
 30
0.0
 10
36.504736
 20
67.106996
 30
0.0
 10
36.693777
 20
68.028480
 30
0.0
 10
36.902209
 20
68.945821
 30
0.0
 10
37.129895
 20
69.858584
 30
0.0
 10
37.376402
 20
70.766346
 30
0.0
 10
37.642233
 20
71.668799
 30
0.0
 10
37.926580
 20
72.565566
 30
0.0
 10
38.229692
 20
73.456124
 30
0.0
 10
38.551440
 20
74.340131
 30
0.0
 10
38.891687
 20
75.217188
 30
0.0
 10
39.250293
 20
76.086912
 30
0.0
 10
39.626735
 20
76.949095
 30
0.0
 10
40.021408
 20
77.802939
 30
0.0
 10
40.433698
 20
78.648505
 30
0.0
 10
40.863709
 20
79.485209
 30
0.0
 10
41.311215
 20
80.312623
 30
0.0
 10
41.775865
 20
81.130593
 30
0.0
 10
42.257514
 20
81.938748
 30
0.0
 10
42.756066
 20
82.736409
 30
0.0
 10
43.271223
 20
83.523448
 30
0.0
 10
43.794669
 20
84.288180
 30
0.0
 10
41.482868
 20
85.906868
 30
0.0
 10
40.925973
 20
85.093538
 30
0.0
 10
40.378507
 20
84.256864
 30
0.0
 10
39.848632
 20
83.409097
 30
0.0
 10
39.336760
 20
82.550103
 30
0.0
 10
38.842857
 20
81.680811
 30
0.0
 10
38.367270
 20
80.801367
 30
0.0
 10
37.910279
 20
79.912228
 30
0.0
 10
37.472095
 20
79.013475
 30
0.0
 10
37.052744
 20
78.105749
 30
0.0
 10
36.652203
 20
77.189693
 30
0.0
 10
36.271141
 20
76.265271
 30
0.0
 10
35.909549
 20
75.333122
 30
0.0
 10
35.567600
 20
74.393613
 30
0.0
 10
35.245427
 20
73.447121
 30
0.0
 10
34.943119
 20
72.494043
 30
0.0
 10
34.661097
 20
71.534843
 30
0.0
 10
34.398870
 20
70.569936
 30
0.0
 10
34.156833
 20
69.599789
 30
0.0
 10
33.935385
 20
68.624925
 30
0.0
 10
33.734398
 20
67.645530
 30
0.0
 10
33.553984
 20
66.662138
 30
0.0
 10
33.393961
 20
65.675088
 30
0.0
 10
33.254916
 20
64.685055
 30
0.0
 10
33.136513
 20
63.692223
 30
0.0
 10
33.038762
 20
62.697102
 30
0.0
 10
32.962094
 20
61.700231
 30
0.0
 10
32.906307
 20
60.701968
 30
0.0
 10
32.871497
 20
59.702809
 30
0.0
 10
32.857527
 20
58.703059
 30
0.0
 10
32.864442
 20
57.703213
 30
0.0
 10
32.892354
 20
56.703771
 30
0.0
 10
32.941336
 20
55.705204
 30
0.0
 10
33.010986
 20
54.707763
 30
0.0
 10
33.101619
 20
53.712041
 30
0.0
 10
33.213057
 20
52.718458
 30
0.0
 10
33.345388
 20
51.727454
 30
0.0
 10
33.498206
 20
50.739307
 30
0.0
 10
33.671801
 20
49.754656
 30
0.0
 10
33.866009
 20
48.773877
 30
0.0
 10
34.080662
 20
47.797360
 30
0.0
 10
34.315829
 20
46.825596
 30
0.0
 10
34.571336
 20
45.858976
 30
0.0
 10
34.846968
 20
44.897899
 30
0.0
 10
35.142588
 20
43.942735
 30
0.0
 10
35.458231
 20
42.994059
 30
0.0
 10
35.793485
 20
42.052086
 30
0.0
 10
36.148645
 20
41.117462
 30
0.0
 10
36.523035
 20
40.190379
 30
0.0
 10
36.916978
 20
39.271432
 30
0.0
 10
37.330050
 20
38.360961
 30
0.0
  0
LWPOLYLINE
  5
112
100
AcDbEntity
  8
Calque_1
 62
7
100
AcDbPolyline
 90
153
 70
1
 10
42.033994
 20
38.646048
 30
0.0
 10
42.465986
 20
37.744356
 30
0.0
 10
42.916723
 20
36.851882
 30
0.0
 10
43.386245
 20
35.969156
 30
0.0
 10
43.873917
 20
35.096333
 30
0.0
 10
44.380015
 20
34.234028
 30
0.0
 10
44.903844
 20
33.382400
 30
0.0
 10
45.445508
 20
32.541993
 30
0.0
 10
46.004570
 20
31.713087
 30
0.0
 10
46.580814
 20
30.896022
 30
0.0
 10
47.174068
 20
30.091285
 30
0.0
 10
47.784145
 20
29.299110
 30
0.0
 10
48.410602
 20
28.519869
 30
0.0
 10
49.053338
 20
27.754028
 30
0.0
 10
49.712087
 20
27.001782
 30
0.0
 10
50.386163
 20
26.263395
 30
0.0
 10
51.075655
 20
25.539374
 30
0.0
 10
51.780172
 20
24.829910
 30
0.0
 10
52.499500
 20
24.135440
 30
0.0
 10
53.232962
 20
23.456024
 30
0.0
 10
53.980628
 20
22.792237
 30
0.0
 10
54.742193
 20
22.144331
 30
0.0
 10
55.516935
 20
21.512289
 30
0.0
 10
56.304716
 20
20.896714
 30
0.0
 10
57.105285
 20
20.297785
 30
0.0
 10
57.906926
 20
19.724072
 30
0.0
 10
59.525622
 20
22.035884
 30
0.0
 10
58.772092
 20
22.575166
 30
0.0
 10
58.018875
 20
23.138738
 30
0.0
 10
57.277629
 20
23.717915
 30
0.0
 10
56.548562
 20
24.312472
 30
0.0
 10
55.832313
 20
24.922233
 30
0.0
 10
55.128781
 20
25.546763
 30
0.0
 10
54.438415
 20
26.185875
 30
0.0
 10
53.761832
 20
26.839414
 30
0.0
 10
53.099008
 20
27.506940
 30
0.0
 10
52.450303
 20
28.188213
 30
0.0
 10
51.815918
 20
28.882892
 30
0.0
 10
51.196246
 20
29.590688
 30
0.0
 10
50.591477
 20
30.311263
 30
0.0
 10
50.002053
 20
31.044409
 30
0.0
 10
49.428101
 20
31.789744
 30
0.0
 10
48.869817
 20
32.546918
 30
0.0
 10
48.327640
 20
33.315663
 30
0.0
 10
47.801443
 20
34.095499
 30
0.0
 10
47.291933
 20
34.886275
 30
0.0
 10
46.799048
 20
35.687538
 30
0.0
 10
46.322920
 20
36.498895
 30
0.0
 10
45.864010
 20
37.320066
 30
0.0
 10
45.422476
 20
38.150722
 30
0.0
 10
44.998239
 20
38.990367
 30
0.0
 10
44.591746
 20
39.838736
 30
0.0
 10
44.203149
 20
40.695452
 30
0.0
 10
43.832642
 20
41.560128
 30
0.0
 10
43.480124
 20
42.432299
 30
0.0
 10
43.146032
 20
43.311686
 30
0.0
 10
42.830547
 20
44.197954
 30
0.0
 10
42.533562
 20
45.090561
 30
0.0
 10
42.255285
 20
45.989159
 30
0.0
 10
41.996134
 20
46.893521
 30
0.0
 10
41.755763
 20
47.803016
 30
0.0
 10
41.534602
 20
48.717371
 30
0.0
 10
41.332568
 20
49.636142
 30
0.0
 10
41.149829
 20
50.558921
 30
0.0
 10
40.986543
 20
51.485389
 30
0.0
 10
40.842647
 20
52.415043
 30
0.0
 10
40.718272
 20
53.347542
 30
0.0
 10
40.613361
 20
54.282384
 30
0.0
 10
40.528073
 20
55.219223
 30
0.0
 10
40.462313
 20
56.157601
 30
0.0
 10
40.416520
 20
57.097246
 30
0.0
 10
40.390301
 20
58.037638
 30
0.0
 10
40.383584
 20
58.978262
 30
0.0
 10
40.396792
 20
59.918926
 30
0.0
 10
40.429544
 20
60.859050
 30
0.0
 10
40.482020
 20
61.798292
 30
0.0
 10
40.554377
 20
62.736316
 30
0.0
 10
40.646234
 20
63.672577
 30
0.0
 10
40.757492
 20
64.606614
 30
0.0
 10
40.888310
 20
65.538131
 30
0.0
 10
41.038820
 20
66.466817
 30
0.0
 10
41.208681
 20
67.392083
 30
0.0
 10
41.397722
 20
68.313567
 30
0.0
 10
41.606154
 20
69.230907
 30
0.0
 10
41.833840
 20
70.143670
 30
0.0
 10
42.080347
 20
71.051433
 30
0.0
 10
42.346177
 20
71.953886
 30
0.0
 10
42.630525
 20
72.850653
 30
0.0
 10
42.933637
 20
73.741211
 30
0.0
 10
43.255384
 20
74.625218
 30
0.0
 10
43.595631
 20
75.502275
 30
0.0
 10
43.954237
 20
76.371999
 30
0.0
 10
44.330679
 20
77.234182
 30
0.0
 10
44.725353
 20
78.088026
 30
0.0
 10
45.137643
 20
78.933592
 30
0.0
 10
45.567654
 20
79.770296
 30
0.0
 10
46.015159
 20
80.597709
 30
0.0
 10
46.479810
 20
81.415680
 30
0.0
 10
46.961459
 20
82.223834
 30
0.0
 10
47.460010
 20
83.021496
 30
0.0
 10
47.975167
 20
83.808535
 30
0.0
 10
48.498613
 20
84.573267
 30
0.0
 10
46.186812
 20
86.191955
 30
0.0
 10
45.629917
 20
85.378624
 30
0.0
 10
45.082452
 20
84.541951
 30
0.0
 10
44.552576
 20
83.694184
 30
0.0
 10
44.040704
 20
82.835190
 30
0.0
 10
43.546801
 20
81.965897
 30
0.0
 10
43.071215
 20
81.086453
 30
0.0
 10
42.614223
 20
80.197315
 30
0.0
 10
42.176040
 20
79.298561
 30
0.0
 10
41.756688
 20
78.390836
 30
0.0
 10
41.356147
 20
77.474779
 30
0.0
 10
40.975085
 20
76.550358
 30
0.0
 10
40.613494
 20
75.618209
 30
0.0
 10
40.271545
 20
74.678699
 30
0.0
 10
39.949371
 20
73.732208
 30
0.0
 10
39.647063
 20
72.779129
 30
0.0
 10
39.365041
 20
71.819929
 30
0.0
 10
39.102815
 20
70.855023
 30
0.0
 10
38.860778
 20
69.884876
 30
0.0
 10
38.639329
 20
68.910012
 30
0.0
 10
38.438342
 20
67.930616
 30
0.0
 10
38.257929
 20
66.947224
 30
0.0
 10
38.097906
 20
65.960175
 30
0.0
 10
37.958861
 20
64.970142
 30
0.0
 10
37.840457
 20
63.977310
 30
0.0
 10
37.742707
 20
62.982188
 30
0.0
 10
37.666038
 20
61.985317
 30
0.0
 10
37.610251
 20
60.987055
 30
0.0
 10
37.575442
 20
59.987895
 30
0.0
 10
37.561472
 20
58.988146
 30
0.0
 10
37.568386
 20
57.988300
 30
0.0
 10
37.596298
 20
56.988858
 30
0.0
 10
37.645281
 20
55.990291
 30
0.0
 10
37.714930
 20
54.992850
 30
0.0
 10
37.805563
 20
53.997128
 30
0.0
 10
37.917001
 20
53.003544
 30
0.0
 10
38.049333
 20
52.012541
 30
0.0
 10
38.202150
 20
51.024393
 30
0.0
 10
38.375745
 20
50.039743
 30
0.0
 10
38.569954
 20
49.058964
 30
0.0
 10
38.784606
 20
48.082447
 30
0.0
 10
39.019774
 20
47.110682
 30
0.0
 10
39.275281
 20
46.144063
 30
0.0
 10
39.550913
 20
45.182986
 30
0.0
 10
39.846532
 20
44.227822
 30
0.0
 10
40.162175
 20
43.279146
 30
0.0
 10
40.497430
 20
42.337173
 30
0.0
 10
40.852590
 20
41.402549
 30
0.0
 10
41.226980
 20
40.475466
 30
0.0
 10
41.620923
 20
39.556519
 30
0.0
 10
42.033994
 20
38.646048
 30
0.0
  0
LWPOLYLINE
  5
113
100
AcDbEntity
  8
Calque_1
 62
7
100
AcDbPolyline
 90
153
 70
1
 10
81.119176
 20
72.440559
 30
0.0
 10
80.640589
 20
73.318405
 30
0.0
 10
80.143762
 20
74.186072
 30
0.0
 10
79.628675
 20
75.043009
 30
0.0
 10
79.096006
 20
75.889119
 30
0.0
 10
78.545481
 20
76.723749
 30
0.0
 10
77.977777
 20
77.546777
 30
0.0
 10
77.392869
 20
78.357706
 30
0.0
 10
76.791205
 20
79.156217
 30
0.0
 10
76.173000
 20
79.941991
 30
0.0
 10
75.538451
 20
80.714617
 30
0.0
 10
74.887734
 20
81.473750
 30
0.0
 10
74.221329
 20
82.219084
 30
0.0
 10
73.539415
 20
82.950305
 30
0.0
 10
72.842188
 20
83.667028
 30
0.0
 10
72.130406
 20
84.369124
 30
0.0
 10
71.403961
 20
85.056067
 30
0.0
 10
70.663283
 20
85.727688
 30
0.0
 10
69.908598
 20
86.383581
 30
0.0
 10
69.140578
 20
87.023669
 30
0.0
 10
68.359195
 20
87.647440
 30
0.0
 10
67.564858
 20
88.254666
 30
0.0
 10
66.757993
 20
88.845191
 30
0.0
 10
65.939075
 20
89.418689
 30
0.0
 10
65.108263
 20
89.974921
 30
0.0
 10
64.277731
 20
90.505936
 30
0.0
 10
62.782244
 20
88.112570
 30
0.0
 10
63.562902
 20
87.613367
 30
0.0
 10
64.344609
 20
87.090037
 30
0.0
 10
65.115138
 20
86.550419
 30
0.0
 10
65.874336
 20
85.994868
 30
0.0
 10
66.621513
 20
85.423405
 30
0.0
 10
67.356761
 20
84.836532
 30
0.0
 10
68.079634
 20
84.234447
 30
0.0
 10
68.789488
 20
83.617211
 30
0.0
 10
69.486348
 20
82.985295
 30
0.0
 10
70.169814
 20
82.338919
 30
0.0
 10
70.839697
 20
81.678403
 30
0.0
 10
71.495559
 20
81.004013
 30
0.0
 10
72.137214
 20
80.316049
 30
0.0
 10
72.764196
 20
79.614766
 30
0.0
 10
73.376361
 20
78.900481
 30
0.0
 10
73.973521
 20
78.173570
 30
0.0
 10
74.555181
 20
77.434258
 30
0.0
 10
75.121482
 20
76.683019
 30
0.0
 10
75.671680
 20
75.920000
 30
0.0
 10
76.205819
 20
75.145630
 30
0.0
 10
76.723762
 20
74.360308
 30
0.0
 10
77.225028
 20
73.564277
 30
0.0
 10
77.709426
 20
72.757881
 30
0.0
 10
78.177023
 20
71.941587
 30
0.0
 10
78.627359
 20
71.115647
 30
0.0
 10
79.060263
 20
70.280441
 30
0.0
 10
79.475516
 20
69.436343
 30
0.0
 10
79.873196
 20
68.583806
 30
0.0
 10
80.252861
 20
67.723121
 30
0.0
 10
80.614289
 20
66.854588
 30
0.0
 10
80.957584
 20
65.978728
 30
0.0
 10
81.282523
 20
65.095945
 30
0.0
 10
81.588650
 20
64.206375
 30
0.0
 10
81.876285
 20
63.310712
 30
0.0
 10
82.144997
 20
62.409181
 30
0.0
 10
82.394848
 20
61.502249
 30
0.0
 10
82.625633
 20
60.590296
 30
0.0
 10
82.837192
 20
59.673647
 30
0.0
 10
83.029529
 20
58.752798
 30
0.0
 10
83.202549
 20
57.828088
 30
0.0
 10
83.356236
 20
56.900012
 30
0.0
 10
83.490427
 20
55.968921
 30
0.0
 10
83.605187
 20
55.035271
 30
0.0
 10
83.700098
 20
54.099315
 30
0.0
 10
83.775542
 20
53.161578
 30
0.0
 10
83.831461
 20
52.222593
 30
0.0
 10
83.867509
 20
51.282531
 30
0.0
 10
83.883991
 20
50.341977
 30
0.0
 10
83.880746
 20
49.401280
 30
0.0
 10
83.857603
 20
48.460754
 30
0.0
 10
83.814872
 20
47.520969
 30
0.0
 10
83.752648
 20
46.582379
 30
0.0
 10
83.670761
 20
45.645297
 30
0.0
 10
83.569056
 20
44.710001
 30
0.0
 10
83.447859
 20
43.777116
 30
0.0
 10
83.307295
 20
42.847010
 30
0.0
 10
83.147160
 20
41.920017
 30
0.0
 10
82.967553
 20
40.996583
 30
0.0
 10
82.768897
 20
40.077180
 30
0.0
 10
82.550663
 20
39.162040
 30
0.0
 10
82.313647
 20
38.251614
 30
0.0
 10
82.057556
 20
37.346414
 30
0.0
 10
81.782511
 20
36.446777
 30
0.0
 10
81.488633
 20
35.553124
 30
0.0
 10
81.176035
 20
34.665828
 30
0.0
 10
80.845231
 20
33.785117
 30
0.0
 10
80.495792
 20
32.911792
 30
0.0
 10
80.128308
 20
32.045804
 30
0.0
 10
79.742699
 20
31.187741
 30
0.0
 10
79.339115
 20
30.338038
 30
0.0
 10
78.917907
 20
29.496877
 30
0.0
 10
78.479210
 20
28.664601
 30
0.0
 10
78.023085
 20
27.841960
 30
0.0
 10
77.549832
 20
27.029019
 30
0.0
 10
77.067133
 20
26.237933
 30
0.0
 10
79.460479
 20
24.742457
 30
0.0
 10
79.974036
 20
25.583824
 30
0.0
 10
80.476979
 20
26.448005
 30
0.0
 10
80.961761
 20
27.322344
 30
0.0
 10
81.427972
 20
28.206955
 30
0.0
 10
81.875706
 20
29.100914
 30
0.0
 10
82.304602
 20
30.004028
 30
0.0
 10
82.714425
 20
30.915871
 30
0.0
 10
83.104973
 20
31.836308
 30
0.0
 10
83.476253
 20
32.764751
 30
0.0
 10
83.828300
 20
33.700515
 30
0.0
 10
84.160464
 20
34.643612
 30
0.0
 10
84.472766
 20
35.593397
 30
0.0
 10
84.765072
 20
36.549523
 30
0.0
 10
85.037278
 20
37.511585
 30
0.0
 10
85.289288
 20
38.479187
 30
0.0
 10
85.520730
 20
39.451818
 30
0.0
 10
85.732098
 20
40.429133
 30
0.0
 10
85.923030
 20
41.410603
 30
0.0
 10
86.093150
 20
42.395740
 30
0.0
 10
86.242596
 20
43.384302
 30
0.0
 10
86.371306
 20
44.375785
 30
0.0
 10
86.479456
 20
45.369862
 30
0.0
 10
86.566494
 20
46.365816
 30
0.0
 10
86.632785
 20
47.363480
 30
0.0
 10
86.678316
 20
48.362352
 30
0.0
 10
86.702728
 20
49.361876
 30
0.0
 10
86.706199
 20
50.361685
 30
0.0
 10
86.688645
 20
51.361296
 30
0.0
 10
86.650254
 20
52.360416
 30
0.0
 10
86.591030
 20
53.358518
 30
0.0
 10
86.510842
 20
54.355129
 30
0.0
 10
86.409651
 20
55.349768
 30
0.0
 10
86.287889
 20
56.342197
 30
0.0
 10
86.145277
 20
57.331803
 30
0.0
 10
85.981992
 20
58.318207
 30
0.0
 10
85.797949
 20
59.300918
 30
0.0
 10
85.593651
 20
60.279713
 30
0.0
 10
85.368782
 20
61.253922
 30
0.0
 10
85.123503
 20
62.223203
 30
0.0
 10
84.858042
 20
63.187152
 30
0.0
 10
84.572328
 20
64.145277
 30
0.0
 10
84.266597
 20
65.097184
 30
0.0
 10
83.941031
 20
66.042533
 30
0.0
 10
83.595839
 20
66.980922
 30
0.0
 10
83.230971
 20
67.911778
 30
0.0
 10
82.846886
 20
68.834910
 30
0.0
 10
82.443295
 20
69.749657
 30
0.0
 10
82.020893
 20
70.655881
 30
0.0
 10
81.579401
 20
71.552947
 30
0.0
 10
81.119176
 20
72.440559
 30
0.0
  0
ENDSEC
  0
SECTION
  2
OBJECTS
  0
DICTIONARY
  5
C
330
0
100
AcDbDictionary
  3
ACAD_GROUP
350
D
  3
ACAD_MLINESTYLE
350
17
  0
DICTIONARY
  5
D
330
C
100
AcDbDictionary
  0
DICTIONARY
  5
1A
330
C
100
AcDbDictionary
  0
DICTIONARY
  5
17
330
C
100
AcDbDictionary
  3
STANDARD
350
18
  0
DICTIONARY
  5
19
330
C
100
AcDbDictionary
  0
ENDSEC
  0
EOF
