<?xml version="1.0" encoding="UTF-8" standalone="no"?>
<!-- Created with Inkscape (http://www.inkscape.org/) -->

<svg
   xmlns:dc="http://purl.org/dc/elements/1.1/"
   xmlns:cc="http://creativecommons.org/ns#"
   xmlns:rdf="http://www.w3.org/1999/02/22-rdf-syntax-ns#"
   xmlns:svg="http://www.w3.org/2000/svg"
   xmlns="http://www.w3.org/2000/svg"
   xmlns:sodipodi="http://sodipodi.sourceforge.net/DTD/sodipodi-0.dtd"
   xmlns:inkscape="http://www.inkscape.org/namespaces/inkscape"
   width="210mm"
   height="297mm"
   viewBox="0 0 744.09448819 1052.3622047"
   id="svg2"
   version="1.1"
   inkscape:version="0.91 r13725"
   sodipodi:docname="stargate-pack.svg">
  <defs
     id="defs4" />
  <sodipodi:namedview
     id="base"
     pagecolor="#ffffff"
     bordercolor="#666666"
     borderopacity="1.0"
     inkscape:pageopacity="0.0"
     inkscape:pageshadow="2"
     inkscape:zoom="1.4"
     inkscape:cx="154.13653"
     inkscape:cy="208.00464"
     inkscape:document-units="px"
     inkscape:current-layer="layer1"
     showgrid="false"
     inkscape:window-width="1366"
     inkscape:window-height="746"
     inkscape:window-x="-8"
     inkscape:window-y="-8"
     inkscape:window-maximized="1" />
  <metadata
     id="metadata7">
    <rdf:RDF>
      <cc:Work
         rdf:about="">
        <dc:format>image/svg+xml</dc:format>
        <dc:type
           rdf:resource="http://purl.org/dc/dcmitype/StillImage" />
        <dc:title></dc:title>
      </cc:Work>
    </rdf:RDF>
  </metadata>
  <g
     inkscape:label="Calque 1"
     inkscape:groupmode="layer"
     id="layer1">
    <path
       id="path3340"
       d="m 5.1310143,868.00507 0.037,3.54251 0.111,3.54097 0.186,3.53782 0.259,3.5332 0.334,3.527 0.407,3.5192 0.481,3.51 0.554,3.49909 0.627,3.4867 0.7,3.4728 0.773,3.4574 0.8449997,3.4404 0.917,3.422 0.989,3.4021 1.059,3.3806 1.13,3.3576 1.2,3.3333 1.27,3.3074 1.338,3.2801 1.407,3.2513 1.475,3.2212 1.542,3.1896 1.608,3.1565 1.674,3.1222 1.739,3.0865 1.804,3.0493 1.867,3.011 1.929,2.9711 1.992,2.9301 2.052,2.8878 2.112,2.8442 2.171,2.799 2.23,2.753 2.287,2.706 2.342,2.658 2.398,2.608 2.452,2.557 2.505,2.505 2.557,2.452 2.608,2.398 2.658,2.342 2.706,2.287 2.753,2.23004 2.799,2.171 2.8442,2.112 2.8878,2.052 2.9301,1.992 2.9711,1.929 3.011,1.867 3.0493,1.804 3.0865,1.739 3.1222,1.674 3.1565,1.608 3.189596,1.542 3.2212,1.475 3.2513,1.407 3.2801,1.338 3.3074,1.27 3.3333,1.2 3.3576,1.13 3.3806,1.059 3.4021,0.989 3.422,0.917 0.053,0.013 -0.002,0.055 -0.0197,0.376 -0.0276,0.376 -0.0355,0.375 -0.0433,0.375 -0.0512,0.373 -0.059,0.373 -0.0667,0.371 -0.0745,0.369 -0.0823,0.368 -0.0899,0.366 -0.0976,0.365 -0.1051,0.362 -0.1128,0.359 -0.1202,0.358 -0.1277,0.354 -0.1351,0.352 -0.1425,0.349 -0.1497,0.346 -0.1569,0.343 -0.1641,0.339 -0.1711,0.336 -0.1782,0.333 -0.185,0.328 0,0 88.823,0 0,0 -0.185,-0.328 -0.1782,-0.333 -0.1711,-0.336 -0.1641,-0.339 -0.1569,-0.343 -0.1497,-0.346 -0.1425,-0.349 -0.1351,-0.352 -0.1277,-0.354 -0.1202,-0.358 -0.1128,-0.359 -0.1051,-0.362 -0.0976,-0.365 -0.0899,-0.366 -0.0823,-0.368 -0.0745,-0.369 -0.0667,-0.371 -0.059,-0.373 -0.0512,-0.373 -0.0433,-0.375 -0.0355,-0.375 -0.0276,-0.376 -0.0197,-0.376 -0.002,-0.055 0.053,-0.013 3.422,-0.917 3.4021,-0.989 3.3806,-1.059 3.3576,-1.13 3.3333,-1.2 3.3074,-1.27 3.2801,-1.338 3.2513,-1.407 3.2212,-1.475 3.1896,-1.542 3.1565,-1.608 3.1222,-1.674 3.0865,-1.739 3.0493,-1.804 3.011,-1.867 2.9711,-1.929 2.9301,-1.992 2.8878,-2.052 2.8442,-2.112 2.799,-2.171 2.753,-2.23004 2.706,-2.287 2.658,-2.342 2.608,-2.398 2.557,-2.452 2.505,-2.505 2.452,-2.557 2.398,-2.608 2.342,-2.658 2.287,-2.706 2.23,-2.753 2.171,-2.799 2.112,-2.8442 2.052,-2.8878 1.992,-2.9301 1.929,-2.9711 1.867,-3.011 1.804,-3.0493 1.739,-3.0865 1.674,-3.1222 1.608,-3.1565 1.542,-3.1896 1.475,-3.2212 1.407,-3.2513 1.338,-3.2801 1.27,-3.3074 1.2,-3.3333 1.13,-3.3576 1.059,-3.3806 0.989,-3.4021 0.917,-3.422 0.845,-3.4404 0.773,-3.4574 0.7,-3.4728 0.627,-3.4867 0.554,-3.49909 0.481,-3.51 0.407,-3.5192 0.334,-3.527 0.259,-3.5332 0.186,-3.53782 0.111,-3.54097 0.037,-3.54251 -0.037,-3.54251 -0.111,-3.54097 -0.186,-3.53782 -0.259,-3.5332 -0.334,-3.527 -0.407,-3.5192 -0.481,-3.51 -0.554,-3.4991 -0.627,-3.4867 -0.7,-3.4728 -0.773,-3.4574 -0.845,-3.4404 -0.917,-3.422 -0.989,-3.4021 -1.059,-3.3806 -1.13,-3.3576 -1.2,-3.3333 -1.27,-3.3074 -1.338,-3.2801 -1.407,-3.2513 -1.475,-3.2212 -1.542,-3.1896 -1.608,-3.1565 -1.674,-3.1222 -1.739,-3.0865 -1.804,-3.0493 -1.867,-3.011 -1.929,-2.9711 -1.992,-2.9301 -2.052,-2.8878 -2.112,-2.8442 -2.171,-2.799 -2.23,-2.753 -2.287,-2.706 -2.342,-2.658 -2.398,-2.608 -2.452,-2.557 -2.505,-2.505 -2.557,-2.452 -2.608,-2.398 -2.658,-2.342 -2.706,-2.287 -2.753,-2.23 -2.799,-2.171 -2.8442,-2.112 -2.8878,-2.052 -2.9301,-1.992 -2.9711,-1.929 -3.011,-1.867 -3.0493,-1.804 -3.0865,-1.739 -3.1222,-1.674 -3.1565,-1.608 -3.1896,-1.542 -3.2212,-1.475 -3.2513,-1.407 -3.2801,-1.338 -3.3074,-1.27 -3.3333,-1.2 -3.3576,-1.13 -3.3806,-1.059 -3.4021,-0.989 -3.422,-0.917 -3.4404,-0.845 -3.4574,-0.773 -3.4728,-0.7 -3.4867,-0.627 -3.4991,-0.554 -3.51,-0.481 -3.5192,-0.407 -3.527,-0.334 -3.5326,-0.259 -3.53782,-0.186 -3.54097,-0.111 -3.54251,-0.037 -3.54251,0.037 -3.54097,0.111 -3.53782,0.186 -3.5332,0.259 -3.527,0.334 -3.5192,0.407 -3.51,0.481 -3.4991,0.554 -3.4867,0.627 -3.4728,0.7 -3.4574,0.773 -3.4404,0.845 -3.422,0.917 -3.4021,0.989 -3.3806,1.059 -3.3576,1.13 -3.3333,1.2 -3.3074,1.27 -3.2801,1.338 -3.2513,1.407 -3.2212,1.475 -3.189596,1.542 -3.1565,1.608 -3.1222,1.674 -3.0865,1.739 -3.0493,1.804 -3.011,1.867 -2.9711,1.929 -2.9301,1.992 -2.8878,2.052 -2.8442,2.112 -2.799,2.171 -2.753,2.23 -2.706,2.287 -2.658,2.342 -2.608,2.398 -2.557,2.452 -2.505,2.505 -2.452,2.557 -2.398,2.608 -2.342,2.658 -2.287,2.706 -2.23,2.753 -2.171,2.799 -2.112,2.8442 -2.052,2.8878 -1.992,2.9301 -1.929,2.9711 -1.867,3.011 -1.804,3.0493 -1.739,3.0865 -1.674,3.1222 -1.608,3.1565 -1.542,3.1896 -1.475,3.2212 -1.407,3.2513 -1.338,3.2801 -1.27,3.3074 -1.2,3.3333 -1.13,3.3576 -1.059,3.3806 -0.989,3.4021 -0.917,3.422 -0.8449997,3.4404 -0.773,3.4574 -0.7,3.4728 -0.627,3.4867 -0.554,3.4991 -0.481,3.51 -0.407,3.5192 -0.061,0.639 -0.289,0.6385 0.218,0.1123 -0.202,2.1372 -0.259,3.5332 -0.186,3.53782 -0.111,3.54097 z m 10.0149997,1.40073 0.146,0.0878 0.255,0.1446 0.257,0.13854 0.258,0.13244 0.259,0.12638 0.262,0.12027 0.262,0.11421 0.265,0.10828 0.267,0.10257 0.269,0.0968 0.271,0.0911 0.273,0.0853 0.276,0.0796 0.278,0.0739 0.28,0.0681 0.282,0.0624 0.284,0.0567 0.287,0.051 0.288,0.0452 0.194,0.027 -0.271,3.879 2.713,0.40699 0.407,-4.205 0.32,-0.016 0.316,-0.0224 0.314,-0.0289 0.31,-0.0353 0.306,-0.0417 0.304,-0.0482 0.301,-0.0546 0.297,-0.061 0.294,-0.0675 0.29,-0.0739 0.288,-0.0803 0.284,-0.0868 0.281,-0.0932 0.278,-0.0993 0.274,-0.1054 0.271,-0.1115 0.267,-0.11758 0.264,-0.12368 0.26,-0.12974 0.256,-0.13584 0.253,-0.1419 0.249,-0.148 0.246,-0.15408 0.242,-0.16016 0.238,-0.16626 0.079,-0.0568 -0.882,9.00501 2.998,-0.081 0,2.22401 -3.191,0.352 -0.22,2.333 3.493,-0.271 0.162,2.224 -3.931,0.488 -0.192,2.495 4.123,-0.705 0,2.143 -4.344,0.813 -0.303,3.228 11.52,-2.784 -2.472,-46.691 -4.293,0.515 -0.515,4.608 -0.344,-0.3336 -0.353,-0.3206 -0.362,-0.3076 -0.372,-0.2947 -0.381,-0.2817 -0.334,-0.2312 -0.343,-0.2217 -0.352,-0.2123 -0.362,-0.2029 -0.371,-0.1935 -0.381,-0.184 -0.325,-0.1462 1.517,-3.278 -2.546,-0.841 -1.246,3.36 -0.517,-0.1249 -0.526,-0.1005 -0.533,-0.0763 -0.678,-0.0642 -0.691,-0.0345 -0.529,-0.006 -0.487,0.0106 -0.479,0.0273 -0.472,0.0442 -0.465,0.0611 -0.514,0.0882 -0.499,0.1043 -0.484,0.1195 -0.469,0.1346 -0.354,0.1151 -0.907,-2.2424 0.276,-1.7387 0.59,-3.2806 0.659,-3.2675 0.727,-3.253 0.795,-3.237 0.863,-3.2197 0.93,-3.2009 0.997,-3.1808 1.063,-3.1592 1.129,-3.1362 1.194,-3.1119 1.26,-3.0861 1.324,-3.0592 1.387,-3.0307 1.451,-3.001 1.513,-2.97 1.575,-2.9376 1.637,-2.904 1.697,-2.8691 1.756,-2.8329 1.815,-2.7955 1.874,-2.7569 1.931,-2.717 1.987,-2.6761 2.043,-2.6338 2.098,-2.5902 2.151,-2.546 2.205,-2.5 2.256,-2.454 2.307,-2.406 2.357,-2.357 2.406,-2.307 2.454,-2.256 2.5,-2.205 2.546,-2.151 2.5902,-2.098 2.6338,-2.043 2.6761,-1.987 2.717,-1.931 2.7569,-1.874 2.7955,-1.815 2.8329,-1.756 2.8691,-1.697 2.904,-1.637 2.937596,-1.575 2.97,-1.513 3.001,-1.451 3.0307,-1.387 3.0592,-1.324 3.0861,-1.26 3.1119,-1.194 3.1362,-1.129 3.1592,-1.063 3.1808,-0.997 3.2009,-0.93 3.2197,-0.863 3.237,-0.795 3.253,-0.727 3.2675,-0.659 3.2806,-0.59 3.2923,-0.522 2.5919,-0.355 3.247,37.567 5.856,-0.8 1.72468,-37.813 3.1655,-0.166 3.33163,-0.105 0.64769,-0.007 -0.006,0.027 -0.0435,0.229 -0.0377,0.232 -0.0319,0.234 -0.0261,0.237 -0.0203,0.239 -0.0145,0.241 -0.009,0.245 -0.003,0.247 10e-4,0.161 0.004,0.16 0.007,0.158 0.009,0.157 0.012,0.155 0.0147,0.154 0.0173,0.152 0.02,0.15 0.0227,0.149 0.0253,0.148 0.028,0.146 0.0307,0.144 0.0333,0.143 0.036,0.141 0.0387,0.14 0.0413,0.138 0.044,0.137 0.0467,0.135 0.0494,0.133 0.052,0.132 0.0547,0.131 0.0573,0.129 0.06,0.127 0.0627,0.126 0.0654,0.124 0.068,0.123 0.0707,0.121 0.0734,0.119 0.076,0.119 0.0787,0.116 0.0814,0.115 0.084,0.113 0.0867,0.112 0.0894,0.111 0.092,0.108 0.0947,0.108 0.0974,0.105 0.10004,0.105 0.10217,0.101 0.10379,0.1 0.10541,0.096 0.10701,0.094 0.10864,0.091 0.11025,0.088 0.11188,0.086 0.11348,0.083 0.11508,0.08 0.1167,0.078 0.11833,0.075 0.11993,0.072 0.12157,0.069 0.12317,0.067 0.12478,0.063 0.12639,0.062 0.12802,0.058 0.12963,0.056 0.13125,0.053 0.13286,0.05 0.13448,0.048 0.13609,0.045 0.1377,0.042 0.13932,0.039 0.14093,0.037 0.14255,0.034 0.14417,0.031 0.14578,0.029 0.1474,0.025 0.149,0.024 0.15062,0.02 0.15225,0.018 0.15386,0.015 0.15545,0.012 0.15709,0.009 0.15871,0.007 0.16031,0.004 0.35071,0 0.37243,-0.014 0.3656,-0.027 0.35877,-0.04 0.35194,-0.054 0.28806,-0.056 0.28332,-0.064 0.27799,-0.075 0.27145,-0.083 0.26486,-0.093 0.2583,-0.102 0.25171,-0.112 0.24514,-0.121 0.23854,-0.13 0.24173,-0.146 0.16233,-0.105 0.15552,-0.109 0.14871,-0.111 0.14191,-0.114 0.13512,-0.118 0.12829,-0.12 0.12149,-0.124 0.11469,-0.126 0.10788,-0.13 0.10107,-0.132 0.0943,-0.136 0.0875,-0.139 0.0808,-0.141 0.0744,-0.145 0.0679,-0.148 0.0615,-0.151 0.055,-0.154 0.0485,-0.157 0.0421,-0.16 0.0355,-0.163 0.0292,-0.166 0.0226,-0.17 0.0162,-0.172 0.01,-0.175 0.003,-0.178 -0.002,-0.156 -0.006,-0.153 -0.0108,-0.149 -0.0153,-0.147 -0.0196,-0.144 -0.0239,-0.14 -0.0282,-0.138 -0.0326,-0.135 -0.037,-0.132 -0.0413,-0.129 -0.0457,-0.127 -0.05,-0.123 -0.0544,-0.12 -0.0587,-0.118 -0.0631,-0.114 -0.0674,-0.111 -0.0718,-0.109 -0.0761,-0.106 -0.0805,-0.102 -0.0849,-0.1 -0.0894,-0.097 -0.0939,-0.094 -0.0984,-0.091 -0.10291,-0.088 -0.10741,-0.085 -0.1119,-0.083 -0.11641,-0.079 -0.12093,-0.076 -0.12541,-0.074 -0.12993,-0.07 -0.13443,-0.068 -0.13893,-0.065 -0.14343,-0.061 -0.14795,-0.059 -0.15245,-0.056 -0.15696,-0.053 -0.16145,-0.05 -0.16595,-0.047 0.20329,0.619 0.0981,0.415 0.0436,0.335 0.008,0.209 -0.002,0.144 -0.006,0.14 -0.0104,0.136 -0.0146,0.133 -0.0187,0.129 -0.0229,0.124 -0.0271,0.121 -0.0312,0.118 -0.0354,0.113 -0.0396,0.11 -0.0437,0.105 -0.0479,0.102 -0.0521,0.098 -0.0563,0.094 -0.0604,0.091 -0.0646,0.086 -0.0687,0.083 -0.0729,0.079 -0.0771,0.075 -0.0812,0.071 -0.0854,0.067 -0.0896,0.063 -0.0938,0.06 -0.098,0.055 -0.10216,0.052 -0.10635,0.048 -0.11052,0.044 -0.11472,0.041 -0.11889,0.036 -0.12308,0.033 -0.12726,0.028 -0.13144,0.025 -0.13563,0.022 -0.1398,0.017 -0.144,0.013 -0.14818,0.01 -0.2301,0.007 -0.1906,-0.002 -0.18295,-0.012 -0.17868,-0.024 -0.17444,-0.034 -0.17017,-0.047 -0.16591,-0.057 -0.16165,-0.069 -0.15739,-0.079 -0.12233,-0.073 -0.11897,-0.082 -0.11564,-0.091 -0.11229,-0.1 -0.10894,-0.109 -0.10559,-0.118 -0.10225,-0.127 -0.0989,-0.136 -0.11893,-0.183 -0.15623,-0.283 -0.151,-0.319 -0.13398,-0.334 -0.11694,-0.348 -0.0686,-0.253 -0.0547,-0.257 -0.0407,-0.264 -0.0268,-0.269 -0.0129,-0.274 -8.7e-4,-0.198 0.006,-0.233 0.0134,-0.229 0.0172,-0.186 1.8208,0.019 3.33163,0.105 3.3287,0.174 3.32428,0.244 1.8337,0.174 -0.009,0.146 -0.0128,0.167 -0.015,0.169 -0.0174,0.168 -0.0197,0.169 -0.022,0.17 -0.0243,0.17 -0.0266,0.17 -0.029,0.171 -0.0312,0.171 -0.0336,0.172 -0.0359,0.172 -0.0382,0.172 -0.0405,0.173 -0.0429,0.173 -0.0451,0.174 -0.0475,0.174 -0.0498,0.174 -0.0521,0.175 -0.0544,0.175 -0.0568,0.176 -0.059,0.176 -0.0614,0.177 -0.0637,0.177 -0.066,0.177 -0.0683,0.178 -0.0706,0.178 -0.1482,0.357 -0.1575,0.36 -0.1667,0.36 -0.176,0.363 -0.1853,0.364 -0.1947,0.366 -0.2042,0.367 -0.2135,0.369 -0.223,0.371 -0.2323,0.372 -0.2418,0.374 -0.2512,0.376 -0.2606,0.378 -0.27,0.379 -0.2795,0.38 -0.2888,0.383 -0.2983,0.384 -0.30767,0.385 -0.31708,0.388 -0.32651,0.389 -0.3359,0.39 -0.34533,0.393 -0.86547,0.969 -0.66573,0.762 -0.6422,0.751 -0.61863,0.74 -0.5951,0.729 -0.57156,0.718 -0.548,0.708 -0.42144,0.558 -0.40593,0.552 -0.39025,0.544 -0.37461,0.538 -0.35893,0.531 -0.34326,0.524 -0.32759,0.516 -0.31194,0.51 -0.29626,0.503 -0.2806,0.497 -0.22394,0.412 -0.23013,0.438 -0.22503,0.443 -0.21999,0.448 -0.21492,0.453 -0.20984,0.458 -0.20477,0.463 -0.19969,0.467 -0.19462,0.473 -0.18954,0.477 -0.18448,0.482 -0.1794,0.487 -0.17433,0.493 -0.16891,0.496 -0.1635,0.501 -0.15808,0.505 -0.15265,0.509 -0.14723,0.514 -0.14182,0.518 -0.13638,0.522 -0.13097,0.526 -0.12553,0.53 -0.12012,0.535 -0.1147,0.539 -0.10927,0.543 -0.0698,0.365 30.33597,1.92 -1.952,-11.392 -21.69598,4.074 0.0715,-0.215 0.0774,-0.216 0.0833,-0.218 0.0893,-0.219 0.0952,-0.219 0.10112,-0.222 0.10708,-0.222 0.11297,-0.224 0.11891,-0.225 0.12485,-0.226 0.13077,-0.228 0.1367,-0.229 0.14263,-0.23 0.14856,-0.231 0.15448,-0.233 0.1604,-0.234 0.16633,-0.235 0.17227,-0.237 0.26955,-0.357 0.28275,-0.36 0.29574,-0.363 0.30878,-0.366 0.32178,-0.369 0.33479,-0.371 0.34781,-0.375 0.36082,-0.377 0.37384,-0.381 0.38684,-0.383 0.39988,-0.386 0.41287,-0.389 0.42589,-0.391 3.58854,-3.181 5.9113,-5.171 0.2451,-0.257 0.2386,-0.257 0.2322,-0.255 0.2257,-0.255 0.2192,-0.255 0.2128,-0.254 0.2064,-0.254 0.1998,-0.253 0.1934,-0.253 0.187,-0.252 0.1805,-0.251 0.174,-0.251 0.1676,-0.251 0.1611,-0.25 0.1546,-0.249 0.1482,-0.249 0.1417,-0.248 0.1353,-0.248 0.1288,-0.247 0.1223,-0.247 0.1157,-0.247 0.109,-0.246 0.1025,-0.246 0.0958,-0.245 0.0892,-0.245 0.0826,-0.245 0.076,-0.244 0.0695,-0.244 0.0627,-0.243 0.0562,-0.243 0.0496,-0.243 0.043,-0.242 0.0363,-0.242 0.0297,-0.242 0.0232,-0.241 0.0165,-0.241 0.01,-0.24 0.003,-0.24 -0.003,-0.324 -0.008,-0.32 -0.0136,-0.317 -0.0189,-0.312 -0.0244,-0.308 -0.0298,-0.305 -0.0352,-0.301 -0.0407,-0.297 -0.046,-0.293 -0.0414,-0.233 2.9277,0.464 3.2806,0.59 3.2675,0.659 3.253,0.727 3.237,0.795 3.2197,0.863 3.2009,0.93 3.1808,0.997 3.1592,1.063 3.1362,1.129 3.1119,1.194 3.0861,1.26 3.0592,1.324 3.0307,1.387 3.001,1.451 2.97,1.513 2.9376,1.575 2.904,1.637 2.8691,1.697 2.8329,1.756 2.7955,1.815 2.7569,1.874 2.717,1.931 2.6761,1.987 2.6338,2.043 2.5902,2.098 2.546,2.151 2.5,2.205 2.454,2.256 2.406,2.307 2.357,2.357 2.307,2.406 2.256,2.454 2.205,2.5 2.151,2.546 2.098,2.5902 2.043,2.6338 1.987,2.6761 1.931,2.717 1.874,2.7569 1.815,2.7955 1.756,2.8329 1.697,2.8691 1.637,2.904 1.575,2.9376 1.513,2.97 1.451,3.001 1.387,3.0307 1.324,3.0592 1.26,3.0861 1.194,3.1119 1.129,3.1362 1.063,3.1592 0.997,3.1808 0.93,3.2009 0.863,3.2197 0.795,3.237 0.727,3.253 0.659,3.2675 0.59,3.2806 0.26,1.6384 -20.213,-0.9933 2.048,10.112 18.974,-3.342 0.209,1.8039 -12.335,13.8581 0.324,0.0103 0.319,0.0137 0.315,0.0172 0.311,0.0206 0.307,0.0241 0.302,0.0275 0.297,0.0309 0.294,0.0344 0.289,0.0378 0.285,0.0413 0.281,0.0447 0.276,0.0481 0.272,0.0516 0.268,0.055 0.263,0.0584 0.259,0.0619 0.255,0.0653 0.25,0.0688 0.246,0.0722 0.242,0.0756 0.238,0.0791 0.233,0.0825 0.229,0.0859 0.224,0.0894 0.221,0.0928 0.215,0.0963 0.212,0.0997 0.208,0.10315 0.203,0.1066 0.198,0.11003 0.195,0.11346 0.19,0.11692 0.186,0.12034 0.181,0.1238 0.178,0.12723 0.173,0.13066 0.168,0.13411 0.164,0.13754 0.16,0.14095 0.156,0.14442 0.152,0.1479 0.147,0.15139 0.143,0.15483 0.139,0.15834 0.134,0.1618 0.13,0.16528 0.126,0.16877 0.122,0.17224 0.117,0.1757 0.113,0.17919 0.109,0.18267 0.104,0.18615 0.101,0.18962 0.096,0.19308 0.091,0.19658 0.088,0.20004 0.083,0.20353 0.079,0.207 0.075,0.21048 0.07,0.21395 0.066,0.21744 0.062,0.2209 0.058,0.22438 0.053,0.22786 0.049,0.23134 0.045,0.23482 0.041,0.23828 0.036,0.24178 0.032,0.24524 0.028,0.24871 0.023,0.2522 0.019,0.25568 0.015,0.25914 0.011,0.26262 0.006,0.26611 0.002,0.26958 -0.001,0.18344 -0.005,0.18193 -0.009,0.1804 -0.011,0.1789 -0.015,0.17737 -0.018,0.17584 -0.022,0.17433 -0.025,0.17281 -0.028,0.17128 -0.032,0.16976 -0.034,0.16825 -0.039,0.16672 -0.041,0.16519 -0.045,0.16368 -0.048,0.16217 -0.052,0.16063 -0.054,0.1591 -0.058,0.1576 -0.062,0.1561 -0.065,0.1545 -0.068,0.1531 -0.071,0.1515 -0.075,0.15 -0.078,0.1485 -0.081,0.1469 -0.085,0.1454 -0.088,0.144 -0.091,0.1423 -0.095,0.1409 -0.098,0.1394 -0.101,0.1378 -0.104,0.1363 -0.108,0.1348 -0.112,0.1332 -0.114,0.1318 -0.118,0.1302 -0.121,0.1287 -0.125,0.1272 -0.126,0.1247 -0.129,0.1214 -0.13,0.118 -0.131,0.1148 -0.133,0.1114 -0.135,0.108 -0.136,0.1048 -0.137,0.1014 -0.14,0.0981 -0.14,0.0948 -0.142,0.0914 -0.144,0.0882 -0.145,0.0848 -0.147,0.0815 -0.148,0.0781 -0.15,0.0748 -0.151,0.0715 -0.153,0.0682 -0.154,0.0648 -0.156,0.0616 -0.157,0.0582 -0.159,0.0548 -0.16,0.0516 -0.162,0.0482 -0.163,0.0449 -0.165,0.0416 -0.167,0.0382 -0.168,0.0349 -0.169,0.0316 -0.171,0.0283 -0.173,0.0249 -0.174,0.0216 -0.175,0.0183 -0.177,0.015 -0.179,0.0116 -0.18,0.008 -0.181,0.005 -0.184,0.002 -0.211,-0.002 -0.211,-0.005 -0.209,-0.009 -0.208,-0.0124 -0.208,-0.0159 -0.206,-0.0195 -0.205,-0.023 -0.203,-0.0265 -0.203,-0.0301 -0.202,-0.0336 -0.2,-0.0372 -0.2,-0.0407 -0.198,-0.0442 -0.197,-0.0478 -0.197,-0.0513 -0.195,-0.0549 -0.194,-0.0584 -0.192,-0.0619 -0.192,-0.0655 -0.191,-0.069 -0.189,-0.0725 -0.189,-0.0761 -0.187,-0.0796 -0.186,-0.0832 -0.185,-0.0867 -0.184,-0.0902 -0.183,-0.0938 -0.182,-0.0973 -0.18,-0.1009 -0.18,-0.1044 -0.178,-0.1079 -0.178,-0.1115 -0.176,-0.115 -0.175,-0.1185 -0.174,-0.1221 -0.173,-0.1256 -0.172,-0.1292 -0.171,-0.1327 -0.168,-0.1354 -0.165,-0.1373 -0.161,-0.1392 -0.158,-0.1411 -0.155,-0.1429 -0.15,-0.1448 -0.148,-0.1467 -0.144,-0.1486 -0.14,-0.1505 -0.137,-0.1524 -0.133,-0.1542 -0.13,-0.1561 -0.126,-0.158 -0.123,-0.1599 -0.12,-0.1618 -0.116,-0.1636 -0.112,-0.1655 -0.109,-0.1675 -0.105,-0.16926 -0.102,-0.17117 -0.098,-0.17307 -0.095,-0.17494 -0.091,-0.17682 -0.088,-0.17871 -0.084,-0.18059 -0.081,-0.18246 -0.078,-0.18436 -0.073,-0.18623 -0.071,-0.18813 -0.066,-0.19 -0.064,-0.19188 -0.059,-0.19377 -0.057,-0.19565 -0.053,-0.19753 -0.049,-0.19941 -0.046,-0.2013 -0.042,-0.20317 -0.039,-0.20506 -2.016,0.416 0.023,0.69243 0.064,0.66095 0.111,0.69241 0.073,0.34621 -3.472,0.65201 0.705,2.256 3.173,-0.652 0.238,0.6586 0.223,0.5676 0.234,0.5508 0.244,0.5339 0.255,0.517 0.266,0.5002 0.277,0.4834 0.287,0.4665 0.261,0.3944 0.152,0.2196 -3.168,2.364 1.841,1.93 2.925,-2.473 0.254,0.2245 0.258,0.2157 0.263,0.207 0.268,0.1983 0.272,0.1896 0.277,0.1808 0.282,0.1721 0.287,0.1633 0.292,0.1547 0.296,0.1458 0.3,0.1365 0.304,0.1273 0.307,0.1179 0.311,0.1086 0.314,0.0992 0.318,0.0899 0.322,0.0806 0.326,0.0713 0.328,0.0619 -0.894,3.419 2.898,0.542 0.785,-3.635 0.471,-0.005 0.465,-0.0153 0.46,-0.0256 0.454,-0.0357 0.337,-0.0336 0.335,-0.0392 0.331,-0.045 0.328,-0.0508 0.325,-0.0565 0.322,-0.0623 0.319,-0.068 0.316,-0.0737 0.312,-0.0795 0.309,-0.0852 0.306,-0.091 0.302,-0.0968 0.299,-0.1024 0.296,-0.1083 0.292,-0.1139 0.289,-0.1198 0.285,-0.1254 0.282,-0.1313 0.279,-0.1369 0.275,-0.1427 0.145,0.2498 -0.031,0.2706 -0.452,3.3024 -0.522,3.29229 -0.59,3.2806 -0.659,3.2675 -0.727,3.253 -0.795,3.237 -0.863,3.2197 -0.93,3.2009 -0.997,3.1808 -1.063,3.1592 -1.129,3.1362 -1.194,3.1119 -1.26,3.0861 -1.324,3.0592 -1.387,3.0307 -1.451,3.001 -1.513,2.97 -1.575,2.9376 -1.637,2.904 -1.697,2.8691 -1.756,2.8329 -1.815,2.7955 -1.874,2.7569 -1.931,2.717 -1.987,2.6761 -2.043,2.6338 -2.098,2.5902 -2.151,2.546 -2.205,2.5 -2.256,2.454 -2.307,2.406 -2.357,2.357 -2.406,2.307 -2.454,2.256 -2.5,2.205 -2.546,2.151 -2.5902,2.098 -2.6338,2.043 -2.6761,1.987 -2.717,1.931 -2.7569,1.87402 -2.7955,1.815 -2.8329,1.756 -2.8691,1.697 -2.904,1.637 -2.9376,1.575 -2.97,1.513 -3.001,1.451 -3.0307,1.387 -3.0592,1.324 -3.0861,1.26 -3.1119,1.194 -3.1362,1.129 -3.1592,1.063 -3.1808,0.997 -3.2009,0.93 -3.2197,0.863 -3.237,0.795 -3.253,0.727 -3.2675,0.659 -3.2806,0.59 -3.2923,0.522 -3.3024,0.452 -3.3112,0.383 -0.9777,0.093 0.0414,-0.113 0.0978,-0.287 0.0915,-0.291 0.0852,-0.295 0.0789,-0.299 0.0725,-0.302 0.0663,-0.306 0.0599,-0.31 0.0537,-0.313 0.0473,-0.317 0.041,-0.321 0.0347,-0.325 0.0284,-0.329 0.0221,-0.332 0.0158,-0.336 0.009,-0.34 0.003,-0.343 -0.002,-0.275 -0.007,-0.272 -0.011,-0.27 -0.0156,-0.268 -0.0199,-0.265 -0.0244,-0.263 -0.0288,-0.261 -0.0332,-0.258 -0.0377,-0.256 -0.0421,-0.254 -0.0465,-0.251 -0.051,-0.249 -0.0554,-0.247 -0.0598,-0.245 -0.0643,-0.242 -0.0687,-0.24 -0.0731,-0.237 -0.0776,-0.235 -0.082,-0.233 -0.0864,-0.231 -0.0909,-0.228 -0.0953,-0.227 -0.0997,-0.225 -0.1042,-0.222 -0.1085,-0.221 -0.1131,-0.218 -0.1174,-0.217 -0.1219,-0.215 -0.1263,-0.212 -0.1308,-0.211 -0.1351,-0.208 -0.1397,-0.207 -0.144,-0.204 -0.1485,-0.202 -0.1529,-0.201 -0.1573,-0.198 -0.1618,-0.197 -0.1662,-0.194 -0.1754,-0.196 -0.1781,-0.191 -0.1807,-0.186 -0.1833,-0.181 -0.1859,-0.175 -0.1886,-0.17 -0.1912,-0.165 -0.1938,-0.16 -0.1965,-0.154 -0.1991,-0.15 -0.2018,-0.144 -0.2043,-0.138 -0.207,-0.134 -0.2097,-0.128 -0.2122,-0.123 -0.2149,-0.118 -0.21756,-0.113 -0.22015,-0.107 -0.22279,-0.102 -0.2255,-0.097 -0.22825,-0.092 -0.23105,-0.086 -0.23383,-0.081 -0.23659,-0.076 -0.23938,-0.071 -0.24214,-0.066 -0.24492,-0.06 -0.24769,-0.055 -0.25047,-0.05 -0.25325,-0.044 -0.25603,-0.04 -0.25881,-0.034 -0.26158,-0.029 -0.26434,-0.023 -0.26714,-0.018 -0.26989,-0.014 -0.27268,-0.01 -0.27547,-0 -0.34921,0 -0.34532,0.013 -0.34143,0.021 -0.33754,0.03 -0.33366,0.038 -0.32978,0.046 -0.21768,0.036 -0.21596,0.039 -0.21421,0.043 -0.2125,0.047 -0.21077,0.051 -0.20904,0.055 -0.20732,0.058 -0.20559,0.062 -0.20385,0.065 -0.20212,0.07 -0.20011,0.073 -0.19777,0.077 -0.19543,0.081 -0.19307,0.085 -0.19078,0.089 -0.18843,0.093 -0.1861,0.097 -0.18377,0.1 -0.18145,0.105 -0.17909,0.108 -0.17677,0.113 -0.17445,0.116 -0.17211,0.12 -0.16977,0.124 -0.16745,0.128 -0.1651,0.132 -0.16278,0.136 -0.16044,0.139 -0.15812,0.144 -0.16064,0.152 -0.15643,0.155 -0.15223,0.156 -0.14801,0.159 -0.14381,0.161 -0.13962,0.162 -0.1354,0.165 -0.1312,0.167 -0.127,0.169 -0.12279,0.172 -0.11857,0.173 -0.11438,0.175 -0.11019,0.178 -0.10595,0.179 -0.10178,0.182 -0.0976,0.184 -0.0933,0.186 -0.0892,0.188 -0.0849,0.19 -0.0806,0.192 -0.0762,0.195 -0.0718,0.197 -0.0675,0.2 -0.0631,0.202 -0.0588,0.204 -0.0544,0.207 -0.0501,0.209 -0.0457,0.212 -0.0414,0.214 -0.037,0.216 -0.0326,0.219 -0.0283,0.221 -0.024,0.224 -0.0196,0.226 -0.0153,0.228 -0.0109,0.231 -0.007,0.233 -0.002,0.31 0.006,0.293 0.0148,0.289 0.0232,0.285 0.0317,0.28 0.0401,0.275 0.0485,0.271 0.057,0.266 0.0654,0.262 0.0739,0.257 0.0828,0.253 0.0684,0.187 0.0997,0.245 0.10934,0.24 0.0883,0.177 0.1262,0.233 0.13586,0.228 0.14548,0.223 0.15514,0.22 0.16476,0.214 0.18192,0.221 0.14227,0.161 0.14531,0.154 0.14838,0.147 0.15143,0.14 0.15448,0.133 0.15753,0.126 0.1606,0.12 0.16363,0.112 0.1667,0.106 0.16976,0.098 0.1728,0.092 0.17586,0.084 0.17891,0.078 0.18196,0.072 0.18503,0.064 0.18808,0.058 0.19113,0.052 0.19418,0.045 0.19724,0.038 0.20029,0.032 0.20333,0.025 0.20641,0.019 0.20946,0.012 0.21249,0.01 0.31841,-0 0.28946,-0.018 0.28204,-0.03 0.2746,-0.043 0.26718,-0.055 0.25973,-0.069 0.21103,-0.067 0.20754,-0.077 0.2042,-0.086 0.2009,-0.097 0.19756,-0.106 0.19424,-0.116 0.19092,-0.126 0.2247,-0.164 0.15538,-0.128 0.14699,-0.131 0.13858,-0.134 0.13017,-0.139 0.1218,-0.142 0.11337,-0.145 0.105,-0.149 0.0966,-0.153 0.0882,-0.156 0.0799,-0.16 0.0716,-0.163 0.0632,-0.166 0.0547,-0.169 0.0463,-0.173 0.0379,-0.175 0.0295,-0.178 0.021,-0.181 0.0126,-0.184 0.004,-0.187 -0.002,-0.158 -0.006,-0.156 -0.01,-0.152 -0.0139,-0.149 -0.0179,-0.146 -0.0219,-0.143 -0.0259,-0.14 -0.0299,-0.137 -0.0339,-0.133 -0.0378,-0.131 -0.0418,-0.128 -0.0458,-0.124 -0.0498,-0.121 -0.0538,-0.119 -0.0577,-0.115 -0.0618,-0.112 -0.0657,-0.109 -0.0697,-0.106 -0.0737,-0.103 -0.0776,-0.1 -0.0814,-0.097 -0.0853,-0.093 -0.0891,-0.091 -0.0929,-0.087 -0.0967,-0.085 -0.10057,-0.081 -0.1044,-0.078 -0.10823,-0.076 -0.11204,-0.072 -0.11588,-0.069 -0.11972,-0.066 -0.12353,-0.063 -0.12737,-0.059 -0.13119,-0.057 -0.13503,-0.054 -0.13884,-0.05 -0.14268,-0.048 -0.1465,-0.044 0.12918,0.16 0.0955,0.152 0.0746,0.157 0.0631,0.197 0.0479,0.246 0.0227,0.284 6.3e-4,0.129 -0.007,0.147 -0.0143,0.144 -0.0221,0.142 -0.03,0.138 -0.0378,0.135 -0.0456,0.132 -0.0534,0.129 -0.0612,0.126 -0.0691,0.124 -0.0768,0.12 -0.0847,0.117 -0.0925,0.114 -0.0992,0.109 -0.10283,0.101 -0.10625,0.093 -0.0727,0.056 -0.0742,0.053 -0.0758,0.049 -0.0773,0.045 -0.0788,0.041 -0.0803,0.037 -0.0818,0.033 -0.0833,0.029 -0.0849,0.026 -0.0864,0.021 -0.0879,0.018 -0.0894,0.013 -0.091,0.01 -0.13926,0.01 -0.11855,0 -0.13989,-0 -0.13612,-0.01 -0.13233,-0.013 -0.12854,-0.017 -0.12477,-0.022 -0.12097,-0.026 -0.1172,-0.031 -0.11341,-0.035 -0.10963,-0.039 -0.10585,-0.044 -0.10205,-0.048 -0.0983,-0.052 -0.0945,-0.057 -0.0907,-0.061 -0.0869,-0.065 -0.0831,-0.07 -0.0794,-0.075 -0.0756,-0.078 -0.0718,-0.083 -0.068,-0.088 -0.0642,-0.092 -0.0605,-0.096 -0.0567,-0.101 -0.0529,-0.106 -0.0491,-0.11 -0.0453,-0.115 -0.0416,-0.119 -0.0378,-0.124 -0.034,-0.128 -0.0302,-0.133 -0.0265,-0.137 -0.0227,-0.142 -0.0189,-0.146 -0.0151,-0.151 -0.0113,-0.155 -0.01,-0.241 -0.002,-0.167 0.001,-0.118 0.003,-0.117 0.005,-0.116 0.007,-0.114 0.009,-0.113 0.0113,-0.112 0.0133,-0.11 0.0154,-0.11 0.0174,-0.108 0.0194,-0.106 0.0215,-0.106 0.0236,-0.104 0.0256,-0.103 0.0276,-0.102 0.0297,-0.1 0.0317,-0.099 0.0338,-0.098 0.0358,-0.097 0.0379,-0.095 0.0399,-0.094 0.042,-0.093 0.044,-0.092 0.0461,-0.09 0.0481,-0.089 0.0501,-0.088 0.0522,-0.087 0.0543,-0.085 0.0563,-0.084 0.0583,-0.083 0.0604,-0.081 0.0624,-0.081 0.0645,-0.079 0.0665,-0.077 0.0686,-0.077 0.0706,-0.075 0.0727,-0.074 0.0747,-0.073 0.0768,-0.071 0.0784,-0.07 0.0795,-0.068 0.0807,-0.066 0.0818,-0.064 0.083,-0.063 0.0841,-0.061 0.0852,-0.058 0.0864,-0.057 0.0875,-0.055 0.0887,-0.053 0.0898,-0.052 0.091,-0.049 0.0921,-0.047 0.0933,-0.046 0.0944,-0.044 0.0955,-0.042 0.0967,-0.04 0.0978,-0.038 0.099,-0.037 0.10013,-0.034 0.10127,-0.033 0.10242,-0.03 0.10356,-0.029 0.10471,-0.027 0.10585,-0.025 0.10701,-0.024 0.10814,-0.021 0.10928,-0.02 0.11044,-0.018 0.11158,-0.015 0.22659,-0.026 0.23119,-0.019 0.23574,-0.011 0.24035,-0 0.25076,0 0.24667,0.011 0.2426,0.02 0.23853,0.027 0.23443,0.035 0.23038,0.043 0.22629,0.05 0.22223,0.058 0.21814,0.066 0.21406,0.074 0.20999,0.081 0.20591,0.089 0.20188,0.097 0.19794,0.105 0.19386,0.112 0.18981,0.12 0.18573,0.128 0.18169,0.136 0.17761,0.143 0.17354,0.152 0.16948,0.159 0.16542,0.166 0.16136,0.175 0.15728,0.182 0.15323,0.19 0.14307,0.191 0.13441,0.19 0.12848,0.193 0.12258,0.195 0.11664,0.197 0.11073,0.199 0.1048,0.201 0.0989,0.204 0.093,0.206 0.087,0.208 0.0811,0.21 0.0752,0.212 0.0693,0.215 0.084,0.29 0.0746,0.297 0.0653,0.301 0.056,0.308 0.0466,0.313 0.0373,0.319 0.028,0.325 0.0187,0.33 0.009,0.336 0.001,0.17 -0.002,0.237 -0.006,0.234 -0.009,0.232 -0.0129,0.229 -0.0166,0.227 -0.0203,0.225 -0.0239,0.222 -0.0276,0.22 -0.0313,0.218 -0.035,0.215 -0.0387,0.213 -0.0423,0.211 -0.046,0.208 -0.0497,0.206 -0.0534,0.204 -0.0571,0.201 -0.0607,0.198 -0.0644,0.197 -0.0681,0.194 -0.0718,0.192 -0.0755,0.189 -0.0792,0.187 -0.0828,0.185 -0.0865,0.182 -0.0902,0.18 -0.0939,0.177 -0.0976,0.176 -0.0899,0.153 -1.62708,0.085 -3.33163,0.105 -3.33309,0.035 -3.33309,-0.035 -3.33163,-0.105 -1.02008,-0.053 -0.13917,-0.215 -0.16398,-0.269 -0.15618,-0.273 -0.1484,-0.276 -0.14061,-0.28 -0.13281,-0.283 -0.12501,-0.287 -0.11724,-0.29 -0.10943,-0.294 -0.10158,-0.298 -0.0935,-0.3 -0.0853,-0.304 -0.0772,-0.307 -0.0691,-0.31 -0.061,-0.313 -0.0528,-0.317 -0.0447,-0.32 -0.0366,-0.323 -0.0284,-0.326 -0.0203,-0.329 -0.0122,-0.332 -0.004,-0.336 0.001,-0.223 0.003,-0.223 0.006,-0.223 0.008,-0.222 0.0102,-0.222 0.0124,-0.221 0.0147,-0.221 0.0169,-0.221 0.0192,-0.22 0.0214,-0.22 0.0237,-0.219 0.0259,-0.219 0.0282,-0.219 0.0304,-0.218 0.0327,-0.218 0.0349,-0.217 0.0372,-0.217 0.0394,-0.217 0.0417,-0.216 0.044,-0.216 0.0462,-0.215 0.0485,-0.215 0.0507,-0.215 0.053,-0.214 0.0552,-0.214 0.0575,-0.213 0.0598,-0.213 0.062,-0.213 0.0643,-0.212 0.0665,-0.212 0.0688,-0.212 0.071,-0.211 0.0733,-0.21 0.0755,-0.211 0.0778,-0.21 0.08,-0.209 0.0823,-0.209 0.0846,-0.209 0.0868,-0.208 0.0891,-0.208 0.0913,-0.208 0.0936,-0.207 0.0958,-0.207 0.0981,-0.206 0.10034,-0.205 0.1026,-0.206 0.10484,-0.205 0.1071,-0.204 0.10936,-0.204 0.11162,-0.204 0.11388,-0.203 0.11612,-0.203 0.11838,-0.202 0.12063,-0.202 0.1229,-0.201 0.12513,-0.201 0.12741,-0.201 0.12966,-0.2 0.1319,-0.2 0.13417,-0.199 0.13641,-0.199 0.13867,-0.198 0.14093,-0.198 0.14319,-0.198 0.14543,-0.197 0.14769,-0.197 0.14995,-0.196 0.15221,-0.196 0.15445,-0.195 0.15672,-0.195 0.15896,-0.195 0.3247,-0.388 0.33372,-0.386 0.31923,-0.358 0.30116,-0.329 0.30538,-0.326 0.30957,-0.322 0.31379,-0.318 0.318,-0.314 0.32222,-0.31 0.32641,-0.306 0.33063,-0.303 0.33484,-0.299 0.33905,-0.294 0.34326,-0.292 0.34747,-0.287 0.35169,-0.283 0.3559,-0.28 0.3601,-0.27602 0.36431,-0.272 0.36853,-0.268 0.37274,-0.264 0.37701,-0.261 0.38141,-0.257 0.38576,-0.252 0.39012,-0.249 0.39447,-0.246 0.39882,-0.241 0.40318,-0.238 0.40753,-0.233 0.4119,-0.23 0.41624,-0.227 0.4206,-0.222 0.42495,-0.218 0.42931,-0.215 0.43366,-0.211 0.43801,-0.207 0.44239,-0.203 0.44668,-0.199 0.4511,-0.196 0.4555,-0.192 0.2293,-0.094 -4.832,-8.544 -0.47631,0.247 -0.47166,0.253 -0.46703,0.256 -0.46238,0.262 -0.45774,0.266 -0.45311,0.271 -0.44844,0.276 -0.44381,0.281 -0.43918,0.285 -0.43453,0.29 -0.42987,0.295 -0.42524,0.299 -0.4206,0.304 -0.41595,0.309 -0.4113,0.314 -0.40668,0.318 -0.40202,0.324 -0.39739,0.327 -0.39274,0.333 -0.38791,0.337 -0.38314,0.342 -0.37831,0.347 -0.37352,0.352 -0.36873,0.357 -0.36393,0.362 -0.35913,0.366 -0.35433,0.372 -0.34953,0.376 -0.34474,0.381 -0.33994,0.386 -0.33514,0.391 -0.33034,0.396 -0.32555,0.401 -0.32075,0.405 -0.31595,0.41 -0.31116,0.416 -0.30635,0.42 -0.30156,0.425 -0.31489,0.459 -0.30658,0.461 -0.29827,0.46202 -0.28994,0.464 -0.28164,0.464 -0.27329,0.466 -0.265,0.467 -0.2567,0.469 -0.2484,0.469 -0.121,0.236 -0.2359,0.471 -0.1149,0.237 -0.1127,0.236 -0.1107,0.237 -0.1086,0.237 -0.1065,0.238 -0.1044,0.238 -0.1024,0.238 -0.1002,0.239 -0.0983,0.239 -0.0961,0.239 -0.094,0.239 -0.092,0.24 -0.0898,0.24 -0.0878,0.241 -0.0858,0.24 -0.0836,0.242 -0.0816,0.241 -0.0794,0.242 -0.0773,0.242 -0.0752,0.242 -0.073,0.243 -0.071,0.243 -0.0688,0.244 -0.0667,0.243 -0.0646,0.245 -0.0625,0.244 -0.0603,0.245 -0.0583,0.245 -0.0561,0.246 -0.054,0.246 -0.0519,0.246 -0.0497,0.247 -0.0477,0.247 -0.0455,0.247 -0.0434,0.248 -0.0413,0.248 -0.0392,0.249 -0.0371,0.249 -0.0349,0.249 -0.0328,0.249 -0.0307,0.25 -0.0286,0.25 -0.0265,0.251 -0.0244,0.251 -0.0222,0.251 -0.0201,0.252 -0.018,0.252 -0.0159,0.252 -0.0138,0.253 -0.0116,0.253 -0.01,0.254 -0.007,0.253 -0.005,0.255 -0.003,0.254 -4e-4,0.449 0.005,0.385 0.0107,0.382 0.016,0.379 0.0213,0.376 0.0267,0.373 0.032,0.369 0.0374,0.366 0.0426,0.364 0.0481,0.36 0.0533,0.357 0.0587,0.353 0.064,0.351 0.0694,0.347 0.0747,0.345 0.08,0.341 0.0854,0.338 0.0907,0.335 0.096,0.331 0.1014,0.329 0.107,0.325 0.1127,0.322 0.1183,0.318 0.1239,0.315 0.1296,0.312 0.1352,0.309 0.1408,0.305 0.1109,0.229 -0.8421,-0.062 -3.3185,-0.314 -3.3112,-0.383 -3.3024,-0.452 -3.2923,-0.522 -3.2806,-0.59 -3.2675,-0.659 -3.253,-0.727 -3.237,-0.795 -3.2197,-0.863 -3.2009,-0.93 -3.1808,-0.997 -3.1592,-1.063 -3.1362,-1.129 -3.1119,-1.194 -3.0861,-1.26 -3.0592,-1.324 -3.0307,-1.387 -3.001,-1.451 -2.97,-1.513 -2.937596,-1.575 -2.904,-1.637 -2.8691,-1.697 -2.8329,-1.756 -2.7955,-1.815 -2.7569,-1.87402 -2.717,-1.931 -2.6761,-1.987 -2.6338,-2.043 -2.5902,-2.098 -2.546,-2.151 -2.5,-2.205 -2.454,-2.256 -2.406,-2.307 -2.357,-2.357 -2.307,-2.406 -2.256,-2.454 -2.205,-2.5 -2.151,-2.546 -2.098,-2.5902 -2.043,-2.6338 -1.987,-2.6761 -1.931,-2.717 -1.874,-2.7569 -1.815,-2.7955 -1.756,-2.8329 -1.697,-2.8691 -1.637,-2.904 -1.575,-2.9376 -1.513,-2.97 -1.451,-3.001 -1.387,-3.0307 -1.324,-3.0592 -1.26,-3.0861 -1.194,-3.1119 -1.129,-3.1362 -1.063,-3.1592 -0.997,-3.1808 -0.93,-3.2009 -0.863,-3.2197 -0.795,-3.237 -0.727,-3.253 -0.659,-3.2675 -0.59,-3.2806 -0.522,-3.29229 -0.452,-3.3024 -0.383,-3.3112 -0.314,-3.3185 -0.244,-3.32428 -0.174,-3.3287 -0.105,-3.33163 z m 0.064,-6.12519 0.061,-1.94026 0.174,-3.3287 0.244,-3.32428 0.007,-0.0727 0.043,-0.0653 0.101,-0.1452 0.104,-0.1439 0.107,-0.1424 0.111,-0.1411 0.114,-0.1397 0.117,-0.1384 0.121,-0.1369 0.124,-0.1355 0.128,-0.1342 0.13,-0.1318 0.132,-0.1282 0.133,-0.1248 0.135,-0.1212 0.137,-0.1177 0.137,-0.1142 0.14,-0.1107 0.141,-0.1072 0.142,-0.1036 0.144,-0.1002 0.146,-0.0966 0.147,-0.0931 0.148,-0.0896 0.15,-0.0861 0.152,-0.0826 0.153,-0.079 0.155,-0.0756 0.156,-0.072 0.157,-0.0685 0.16,-0.0651 0.16,-0.0614 0.163,-0.058 0.163,-0.0545 0.166,-0.0509 0.167,-0.0475 0.168,-0.0439 0.17,-0.0404 0.171,-0.0369 0.173,-0.0334 0.175,-0.0298 0.176,-0.0264 0.177,-0.0228 0.179,-0.0194 0.181,-0.0158 0.182,-0.0123 0.183,-0.009 0.185,-0.005 0.187,-0.002 0.184,0.002 0.183,0.005 0.181,0.009 0.18,0.0123 0.178,0.0158 0.177,0.0194 0.176,0.0228 0.174,0.0264 0.173,0.0298 0.171,0.0334 0.17,0.0369 0.168,0.0404 0.167,0.0439 0.166,0.0475 0.164,0.0509 0.163,0.0545 0.161,0.058 0.16,0.0614 0.158,0.0651 0.157,0.0685 0.156,0.072 0.154,0.0756 0.153,0.079 0.151,0.0826 0.15,0.0861 0.149,0.0896 0.147,0.0931 0.146,0.0966 0.144,0.1002 0.143,0.1036 0.141,0.1072 0.14,0.1107 0.139,0.1142 0.137,0.1177 0.135,0.1212 0.135,0.1248 0.133,0.1282 0.131,0.1318 0.129,0.1342 0.126,0.1355 0.122,0.1369 0.119,0.1384 0.115,0.1397 0.112,0.1411 0.108,0.1424 0.105,0.1439 0.102,0.1452 0.098,0.1466 0.095,0.148 0.091,0.1494 0.088,0.1508 0.084,0.1521 0.081,0.1536 0.077,0.1549 0.074,0.1563 0.071,0.1577 0.067,0.1591 0.064,0.1604 0.06,0.1619 0.057,0.1632 0.053,0.1646 0.05,0.166 0.046,0.1673 0.043,0.1688 0.04,0.1701 0.036,0.1716 0.033,0.1729 0.029,0.1743 0.026,0.17564 0.022,0.17706 0.019,0.17844 0.016,0.17982 0.012,0.18122 0.008,0.18258 0.005,0.18399 0.002,0.18535 -0.002,0.18395 -0.005,0.18266 -0.008,0.18138 -0.013,0.1801 -0.015,0.17882 -0.019,0.17753 -0.023,0.17626 -0.026,0.17499 -0.029,0.1737 -0.033,0.17241 -0.036,0.17114 -0.04,0.16986 -0.043,0.1686 -0.047,0.1673 -0.05,0.16601 -0.054,0.16475 -0.057,0.16347 -0.06,0.16217 -0.064,0.1609 -0.068,0.15962 -0.071,0.15836 -0.074,0.15706 -0.078,0.15578 -0.081,0.15451 -0.085,0.15323 -0.088,0.15194 -0.092,0.15065 -0.095,0.1494 -0.099,0.1481 -0.102,0.14682 -0.105,0.14556 -0.109,0.14425 -0.113,0.14299 -0.116,0.14171 -0.119,0.14043 -0.123,0.13914 -0.126,0.13787 -0.13,0.13659 -0.132,0.1341 -0.134,0.13054 -0.134,0.12695 -0.137,0.12338 -0.137,0.1198 -0.139,0.11623 -0.141,0.11265 -0.141,0.10907 -0.143,0.1055 -0.145,0.10191 -0.146,0.0984 -0.147,0.0948 -0.148,0.0912 -0.15,0.0876 -0.152,0.0841 -0.152,0.0805 -0.154,0.0769 -0.156,0.0733 -0.156,0.0697 -0.159,0.0662 -0.159,0.0626 -0.161,0.059 -0.162,0.0554 -0.164,0.0518 -0.165,0.0483 -0.166,0.0447 -0.167,0.0411 -0.169,0.0376 -0.171,0.034 -0.172,0.0304 -0.173,0.0268 -0.174,0.0232 -0.176,0.0197 -0.177,0.0161 -0.179,0.0125 -0.18,0.009 -0.181,0.005 -0.183,0.002 -0.185,-0.002 -0.184,-0.005 -0.182,-0.009 -0.181,-0.0125 -0.179,-0.016 -0.178,-0.0196 -0.177,-0.0231 -0.175,-0.0267 -0.173,-0.0303 -0.172,-0.0338 -0.171,-0.0374 -0.169,-0.0409 -0.167,-0.0445 -0.166,-0.048 -0.165,-0.0516 -0.163,-0.0552 -0.162,-0.0587 -0.16,-0.0623 -0.159,-0.0658 -0.157,-0.0694 -0.156,-0.0729 -0.155,-0.0765 -0.153,-0.0801 -0.151,-0.0836 -0.15,-0.0872 -0.149,-0.0907 -0.147,-0.0943 -0.145,-0.0978 -0.145,-0.10141 -0.142,-0.10497 -0.141,-0.10852 -0.14,-0.11209 -0.138,-0.11563 -0.137,-0.1192 -0.136,-0.12276 -0.134,-0.12631 -0.132,-0.12988 -0.131,-0.13343 -0.128,-0.13588 -0.125,-0.13722 -0.122,-0.13855 -0.118,-0.13989 -0.115,-0.14122 -0.111,-0.14256 -0.108,-0.14391 -0.105,-0.14523 -0.101,-0.14656 -0.097,-0.14792 -0.094,-0.14925 -0.091,-0.15057 -0.087,-0.15192 -0.084,-0.15326 -0.081,-0.15458 z m 141.888696,-136.98254 0.004,-0.478 0.0113,-0.487 0.0183,-0.495 0.0252,-0.503 0.0324,-0.51 0.0393,-0.519 0.0464,-0.527 0.0534,-0.535 0.0605,-0.542 0.0675,-0.551 0.1009,-0.746 0.1133,-0.761 0.1252,-0.773 0.1371,-0.786 0.1491,-0.799 0.1609,-0.812 0.1728,-0.825 0.1847,-0.838 0.1966,-0.851 0.2086,-0.864 0.1087,-0.436 2.712,0.325 -0.2108,0.551 -0.204,0.554 -0.1973,0.558 -0.1905,0.559 -0.1838,0.563 -0.1771,0.565 -0.1704,0.568 -0.1636,0.571 -0.1569,0.573 -0.1501,0.576 -0.1434,0.579 -0.1367,0.581 -0.13,0.585 -0.1226,0.586 -0.1152,0.589 -0.1078,0.592 -0.1004,0.593 -0.0929,0.597 -0.0855,0.598 -0.0781,0.601 -0.0707,0.603 -0.0632,0.606 -0.0558,0.608 -0.0483,0.61 -0.0409,0.613 -0.012,0.205 -1.488,0.57 -0.0295,-1.57 z m 28.9289,-3.828 0.005,-0.15 0.0115,-0.142 0.0177,-0.137 0.024,-0.131 0.0302,-0.125 0.0365,-0.118 0.0428,-0.113 0.049,-0.106 0.0553,-0.101 0.0615,-0.094 0.0678,-0.088 0.074,-0.082 0.0801,-0.077 0.0854,-0.07 0.0906,-0.064 0.0958,-0.058 0.1011,-0.051 0.1063,-0.046 0.1116,-0.04 0.1168,-0.033 0.122,-0.028 0.1272,-0.021 0.1325,-0.015 0.1378,-0.009 0.1429,-0.003 0.1553,0.003 0.1489,0.009 0.1424,0.015 0.1361,0.021 0.1296,0.028 0.1231,0.033 0.1167,0.04 0.1103,0.046 0.1039,0.051 0.0974,0.058 0.091,0.064 0.0845,0.07 0.0782,0.077 0.0719,0.082 0.0659,0.088 0.0599,0.094 0.0537,0.101 0.0477,0.106 0.0415,0.113 0.0355,0.118 0.0294,0.125 0.0233,0.131 0.0173,0.137 0.0111,0.142 0.005,0.15 -0.001,0.152 -0.007,0.147 -0.0132,0.141 -0.0193,0.134 -0.0253,0.128 -0.0315,0.122 -0.0375,0.116 -0.0436,0.109 -0.0496,0.103 -0.0558,0.097 -0.0618,0.091 -0.068,0.084 -0.074,0.079 -0.0803,0.071 -0.0867,0.066 -0.0931,0.06 -0.0996,0.055 -0.1059,0.048 -0.1125,0.042 -0.1188,0.037 -0.1253,0.03 -0.1318,0.025 -0.1381,0.019 -0.1446,0.012 -0.151,0.007 -0.2002,0 -0.1394,-0.007 -0.1343,-0.012 -0.129,-0.019 -0.1237,-0.025 -0.1186,-0.03 -0.1133,-0.037 -0.108,-0.042 -0.1028,-0.048 -0.0976,-0.055 -0.0924,-0.06 -0.0871,-0.066 -0.0819,-0.071 -0.0761,-0.079 -0.0699,-0.084 -0.0636,-0.091 -0.0574,-0.097 -0.0511,-0.103 -0.0448,-0.109 -0.0386,-0.116 -0.0323,-0.122 -0.0261,-0.128 -0.0198,-0.134 -0.0136,-0.141 -0.007,-0.147 z m 3.5261,-4.887 0,-0.109 0.004,-0.106 0.008,-0.106 0.0124,-0.103 0.0166,-0.102 0.0206,-0.1 0.0248,-0.099 0.029,-0.097 0.033,-0.095 0.0372,-0.094 0.0414,-0.092 0.0454,-0.09 0.0496,-0.089 0.0537,-0.087 0.0579,-0.085 0.062,-0.084 0.0661,-0.082 0.0703,-0.08 0.0744,-0.079 0.118,-0.113 0.0806,-0.071 0.0821,-0.067 0.0836,-0.063 0.0849,-0.059 0.0864,-0.055 0.0878,-0.05 0.0893,-0.047 0.0906,-0.043 0.0921,-0.038 0.0936,-0.035 0.095,-0.03 0.0963,-0.026 0.0979,-0.023 0.0992,-0.018 0.1007,-0.014 0.1021,-0.01 0.1035,-0.006 0.105,-0.002 0.1104,0.002 0.1086,0.006 0.1067,0.01 0.1047,0.014 0.1029,0.018 0.101,0.023 0.0991,0.026 0.0973,0.03 0.0953,0.035 0.0935,0.038 0.0916,0.043 0.0897,0.047 0.0878,0.05 0.086,0.055 0.084,0.059 0.0822,0.063 0.0803,0.067 0.0784,0.071 0.0765,0.075 0.0737,0.077 0.0697,0.08 0.0658,0.081 0.0617,0.083 0.0577,0.084 0.0538,0.087 0.0498,0.087 0.0458,0.09 0.0419,0.091 0.0378,0.093 0.0339,0.094 0.0298,0.096 0.0259,0.098 0.0219,0.1 0.0179,0.101 0.014,0.102 0.01,0.105 0.006,0.106 0.002,0.108 -0.002,0.107 -0.006,0.106 -0.01,0.105 -0.014,0.102 -0.0179,0.102 -0.0219,0.099 -0.0259,0.098 -0.0298,0.096 -0.0339,0.094 -0.0378,0.093 -0.0419,0.091 -0.0458,0.09 -0.0498,0.088 -0.0538,0.086 -0.0577,0.085 -0.0617,0.083 -0.0658,0.081 -0.0697,0.08 -0.0737,0.078 -0.0765,0.075 -0.0784,0.071 -0.0803,0.066 -0.0822,0.063 -0.084,0.059 -0.086,0.055 -0.0878,0.051 -0.0897,0.046 -0.0916,0.043 -0.0935,0.038 -0.0953,0.035 -0.0973,0.03 -0.0991,0.027 -0.101,0.022 -0.1029,0.018 -0.1047,0.014 -0.1067,0.01 -0.1086,0.006 -0.1104,0.003 -0.105,-0.003 -0.1035,-0.006 -0.1021,-0.01 -0.1007,-0.014 -0.0992,-0.018 -0.0979,-0.022 -0.0963,-0.027 -0.095,-0.03 -0.0936,-0.035 -0.0921,-0.038 -0.0906,-0.043 -0.0893,-0.046 -0.0878,-0.051 -0.0864,-0.055 -0.0849,-0.059 -0.0836,-0.063 -0.0821,-0.066 -0.1204,-0.108 -0.0782,-0.077 -0.0744,-0.079 -0.0703,-0.081 -0.0661,-0.082 -0.062,-0.083 -0.0579,-0.086 -0.0537,-0.087 -0.0496,-0.089 -0.0454,-0.09 -0.0414,-0.092 -0.0372,-0.094 -0.033,-0.095 -0.029,-0.097 -0.0248,-0.099 -0.0206,-0.1 -0.0166,-0.102 -0.0124,-0.103 -0.008,-0.106 z m 2.3619,-6.082 0.001,-0.148 0.007,-0.14 0.0131,-0.134 0.0193,-0.129 0.0253,-0.124 0.0315,-0.118 0.0375,-0.114 0.0436,-0.108 0.0497,-0.103 0.0557,-0.097 0.0619,-0.092 0.0679,-0.088 0.074,-0.081 0.0801,-0.077 0.0493,-0.04 1.7008,0.197 1.292,0.177 0.0424,0.068 0.0532,0.101 0.0469,0.107 0.0407,0.111 0.0344,0.117 0.0282,0.122 0.0219,0.127 0.0156,0.133 0.009,0.138 0.003,0.143 -0.003,0.155 -0.009,0.148 -0.0156,0.142 -0.0219,0.134 -0.0282,0.129 -0.0344,0.121 -0.0407,0.114 -0.0469,0.108 -0.0532,0.101 -0.0595,0.094 -0.0431,0.059 -0.0459,0.056 -0.0486,0.053 -0.0782,0.074 -0.084,0.068 -0.09,0.063 -0.0959,0.056 -0.1019,0.051 -0.1078,0.045 -0.1137,0.039 -0.1196,0.034 -0.1256,0.028 -0.1315,0.022 -0.1375,0.016 -0.1434,0.01 -0.0989,0.004 -0.2001,0 -0.1432,-0.006 -0.1374,-0.013 -0.1317,-0.018 -0.1259,-0.024 -0.1202,-0.03 -0.1145,-0.035 -0.1087,-0.041 -0.1031,-0.047 -0.0973,-0.053 -0.0915,-0.058 -0.0858,-0.065 -0.0801,-0.069 -0.05,-0.051 -0.0473,-0.053 -0.0659,-0.085 -0.0598,-0.092 -0.0538,-0.098 -0.0476,-0.106 -0.0416,-0.112 -0.0355,-0.119 -0.0294,-0.126 -0.0233,-0.133 -0.0172,-0.139 -0.0112,-0.146 z m 136.6214,150.625 4.512,-5.1734 0.078,1.05898 0.154,2.93907 -1.354,1.58237 -0.319,-0.0943 -0.397,-0.0906 -0.488,-0.0832 -0.543,-0.0663 -0.595,-0.0453 -0.703,-0.0245 z"
       inkscape:connector-curvature="0"
       style="fill:#d3d3d3;stroke:#000000;stroke-width:0.5" />
    <path
       sodipodi:nodetypes="cccccccccccccccccccccccccccccccccccccccccccccccccccccccccccccccccccccccccccccccccccccccccccccccccccccccccccccccccccccccccccccccccccccccccccccccccccccccccccccccccccccccccccccccccccccc"
       style="fill:#d3d3d3;stroke:#000000;stroke-width:0.5"
       inkscape:connector-curvature="0"
       d="m 219.99488,1003.1311 1.97327,-2.8819 1.93986,-2.96454 1.87751,-3.00386 1.81374,-3.0437 1.75002,-3.08015 1.68517,-3.11618 1.61922,-3.15049 1.55262,-3.18452 1.48592,-3.21637 1.41921,-3.24585 1.35025,-3.27551 1.28113,-3.30291 1.21165,-3.32894 1.14158,-3.35371 1.07113,-3.37717 0.99919,-3.39867 0.92916,-3.419 0.85762,-3.43752 0.7847,-3.45424 0.71212,-3.4703 0.63929,-3.48445 0.56703,-3.4974 0.49267,-3.50799 0.41953,-3.51789 0.34633,-3.52605 0.27169,-3.53224 0.19766,-3.53713 0.12336,-3.54035 0.0495,-3.54237 -0.0245,-3.54283 -0.0989,-3.54126 -0.1736,-3.53822 -0.24678,-3.53425 -0.32111,-3.52817 -0.39483,-3.52056 -0.46891,-3.51141 -0.54147,-3.50136 -0.61509,-3.48892 -0.009,-0.054 0.0517,-0.0205 0.34902,-0.14122 0.35257,-0.13359 0.35505,-0.12599 0.35805,-0.11941 0.35965,-0.11137 0.36287,-0.10455 0.36442,-0.0965 0.36579,-0.0887 0.3684,-0.0808 0.36966,-0.0733 0.37211,-0.0656 0.37252,-0.0576 0.37297,-0.0497 0.37519,-0.0429 0.37485,-0.0338 0.37617,-0.026 0.37651,-0.0183 0.37689,-0.0106 0.37718,-0.003 0.37655,0.005 0.37682,0.0131 0.37713,0.0208 0.37544,0.0288 0,0 -37.53826,-80.50097 0,0 -0.21923,0.30613 -0.22652,0.3022 -0.23203,0.29717 -0.23742,0.29241 -0.24479,0.287 -0.25045,0.28177 -0.2562,0.27655 -0.26162,0.27155 -0.26672,0.26539 -0.27401,0.25985 -0.27745,0.25416 -0.28364,0.24834 -0.28975,0.24257 -0.29377,0.23609 -0.29889,0.22985 -0.30309,0.22325 -0.30817,0.21697 -0.31334,0.2108 -0.3165,0.20392 -0.3215,0.19777 -0.32466,0.19101 -0.32891,0.18421 -0.33228,0.17698 -0.0501,0.0229 -0.0316,-0.0441 -2.27732,-2.71386 -2.33411,-2.66533 -2.3885,-2.61631 -2.44311,-2.56545 -2.49633,-2.51388 -2.54873,-2.46073 -2.5989,-2.40733 -2.64922,-2.35205 -2.6982,-2.29603 -2.74544,-2.2391 -2.79139,-2.18121 -2.83663,-2.12219 -2.84029,-2.03298 -5.73557,8.1914 2.66983,1.91118 2.66892,1.99675 2.62644,2.05234 2.58332,2.10658 2.53784,2.16054 2.49282,2.21299 2.44623,2.26449 2.39732,2.3157 2.34865,2.36522 2.29862,2.41385 2.24783,2.46146 2.19559,2.508 2.14282,2.55332 2.08856,2.59777 2.03366,2.64097 1.97819,2.68285 1.92117,2.72385 1.86451,2.7632 1.80528,2.80199 1.74655,2.83911 1.68705,2.87487 1.62601,2.90971 1.56443,2.9433 1.50318,2.97509 1.44032,3.00605 1.3769,3.03554 1.31284,3.06389 1.2491,3.09039 1.18377,3.11593 1.11786,3.14029 1.05231,3.16278 0.98599,3.18405 0.91828,3.20442 0.85169,3.22263 0.78362,3.23981 0.7159,3.2555 0.6475,3.26967 0.57858,3.28278 0.50995,3.29401 0.44067,3.30416 0.37171,3.31246 0.30214,3.31953 0.23298,3.32488 0.16229,3.32947 0.093,3.33211 0.0238,3.33297 -0.0468,3.33299 -0.11609,3.33122 -0.18594,3.32797 -0.25636,3.32371 -0.32548,3.31753 -0.39423,3.30957 -0.46352,3.30064 -0.53331,3.29058 -0.60186,3.27852 -0.66985,3.26511 -0.73849,3.25041 -0.80676,3.23422 -0.87346,3.21649 -0.9419,3.19762 -1.00752,3.17755 -1.07403,3.15555 -1.14006,3.13226 -1.20557,3.10766 -1.27068,3.08175 -1.33387,3.05498 -1.39844,3.02543 -1.46087,2.99611 -1.5236,2.96464 -1.58567,2.93183 -1.64632,2.89835 -1.70661,2.86353 -1.76652,2.82639 -1.82534,2.78867 -1.85467,2.70975 z"
       id="path3375" />
    <path
       id="path3379"
       d="m 238.49406,993.91547 1.97325,-2.8819 1.93989,-2.9646 1.87746,-3.00391 1.81372,-3.04368 1.75006,-3.08017 1.68512,-3.11612 1.61922,-3.15053 1.55261,-3.18454 1.48591,-3.21635 1.41916,-3.24594 1.3502,-3.27551 1.28112,-3.30291 1.21166,-3.32896 1.14167,-3.35366 1.07114,-3.37711 0.9992,-3.39874 0.92916,-3.41896 0.85761,-3.43752 0.78467,-3.4543 0.71213,-3.47027 0.63928,-3.48446 0.56703,-3.49742 0.49262,-3.50796 0.41958,-3.51792 0.34623,-3.526 0.27169,-3.53226 0.19769,-3.53714 0.12335,-3.54031 0.0495,-3.54249 -0.0245,-3.54272 -0.0989,-3.54133 -0.17359,-3.53819 -0.24677,-3.5343 -0.32113,-3.52812 -0.39482,-3.52059 -0.46894,-3.51138 -0.54142,-3.50137 -0.61513,-3.48891 -0.0127,-0.053 0.0506,-0.0218 0.34914,-0.14097 0.3525,-0.13355 0.35503,-0.1259 0.35816,-0.11907 0.35978,-0.11109 0.36289,-0.10453 0.36434,-0.0966 0.36584,-0.0887 0.36822,-0.0811 0.36974,-0.0733 0.37197,-0.066 0.37255,-0.0576 0.37307,-0.0493 0.37519,-0.0429 0.3748,-0.0337 0.37611,-0.0259 0.37656,-0.0185 0.37687,-0.0106 0.37717,-0.003 0.37658,0.006 0.3768,0.0132 0.3771,0.0208 0.37547,0.0288 0,0 -37.53823,-80.50098 0,0 -0.21932,0.30612 -0.22646,0.30227 -0.2322,0.29705 -0.2383,0.29166 -0.24477,0.28699 -0.2503,0.28191 -0.25603,0.27665 -0.26169,0.27146 -0.26676,0.26547 -0.27406,0.25982 -0.27772,0.25392 -0.28361,0.24835 -0.28945,0.24277 -0.29382,0.23609 -0.29873,0.2301 -0.3031,0.22336 -0.30818,0.21707 -0.31331,0.21077 -0.3165,0.20394 -0.32165,0.19753 -0.32472,0.19096 -0.32897,0.18423 -0.33245,0.17677 -0.0484,0.026 -0.0347,-0.0421 -2.27731,-2.71379 -2.33413,-2.66537 -2.3885,-2.61629 -2.44315,-2.56544 -2.49627,-2.51385 -2.54879,-2.46084 -2.59888,-2.40725 -2.64921,-2.3521 -2.69819,-2.29599 -2.74545,-2.23915 -2.79136,-2.18115 -2.83667,-2.1222 -2.84031,-2.03301 -5.73551,8.19141 2.66979,1.91115 2.66895,1.99673 2.62641,2.05233 2.58333,2.10661 2.5379,2.16056 2.49283,2.21301 2.4462,2.26445 2.39731,2.3157 2.34856,2.36526 2.29856,2.41396 2.2479,2.46143 2.19564,2.50795 2.14283,2.55333 2.08853,2.59772 2.03364,2.64101 1.97815,2.68284 1.92119,2.72387 1.86454,2.76325 1.80529,2.80195 1.74652,2.83909 1.68706,2.87483 1.62601,2.90975 1.56447,2.94325 1.50315,2.97512 1.44033,3.00602 1.37695,3.03565 1.31286,3.06379 1.24904,3.09041 1.18369,3.11596 1.11789,3.14029 1.05221,3.16284 0.98603,3.184 0.91825,3.20446 0.85169,3.22259 0.78364,3.23986 0.71591,3.25547 0.64752,3.26969 0.57851,3.28274 0.50986,3.29406 0.44067,3.30417 0.37171,3.31244 0.30217,3.31948 0.23307,3.32492 0.1623,3.32948 0.0929,3.33213 0.0238,3.33292 -0.0468,3.33304 -0.11605,3.33116 -0.18596,3.32802 -0.25635,3.3237 -0.32548,3.31747 -0.39422,3.30958 -0.46351,3.30068 -0.53332,3.29059 -0.60183,3.27846 -0.66987,3.26512 -0.7385,3.25045 -0.80677,3.23422 -0.87354,3.21643 -0.94191,3.19766 -1.00753,3.17751 -1.07404,3.15556 -1.14006,3.13226 -1.20559,3.10765 -1.27067,3.08178 -1.33383,3.05493 -1.39844,3.02548 -1.46087,2.99608 -1.52366,2.96468 -1.58562,2.93181 -1.64634,2.89832 -1.70663,2.86354 -1.76651,2.82639 -1.82532,2.7887 -1.85474,2.70974 z"
       inkscape:connector-curvature="0"
       style="fill:#d3d3d3;stroke:#000000;stroke-width:0.5"
       sodipodi:nodetypes="cccccccccccccccccccccccccccccccccccccccccccccccccccccccccccccccccccccccccccccccccccccccccccccccccccccccccccccccccccccccccccccccccccccccccccccccccccccccccccccccccccccccccccccccccccccc" />
    <path
       sodipodi:nodetypes="cccccccccccccccccccccccccccccccccccccccccccccccccccccccccccccccccccccccccccccccccccccccccccccccccccccccccccccccccccccccccccccccccccccccccccccccccccccccccccccccccccccccccccccccccccccc"
       style="fill:#d3d3d3;stroke:#000000;stroke-width:0.5"
       inkscape:connector-curvature="0"
       d="m 266.12695,972.00624 1.71449,-3.04295 1.67411,-3.12238 1.60858,-3.15612 1.54153,-3.19017 1.47494,-3.22095 1.40712,-3.25114 1.33852,-3.27967 1.26915,-3.30771 1.2,-3.33359 1.13086,-3.35727 1.05959,-3.38073 0.98838,-3.40201 0.91689,-3.42187 0.84495,-3.44047 0.77272,-3.45756 0.69921,-3.47293 0.62761,-3.48696 0.55477,-3.49915 0.48064,-3.50953 0.40696,-3.51914 0.33316,-3.52691 0.26006,-3.53356 0.18506,-3.53753 0.11132,-3.54111 0.0376,-3.54279 -0.0372,-3.54247 -0.11139,-3.54091 -0.18565,-3.53758 -0.25943,-3.53328 -0.33318,-3.52713 -0.40716,-3.51922 -0.48132,-3.50966 -0.55386,-3.49923 -0.62739,-3.48678 -0.70018,-3.47276 -0.77318,-3.45717 -0.84454,-3.44086 -0.91685,-3.42205 -0.0173,-0.0517 0.0485,-0.0261 0.33553,-0.17098 0.33953,-0.16376 0.34265,-0.15636 0.34644,-0.14995 0.34862,-0.1422 0.35237,-0.13575 0.35456,-0.12798 0.3567,-0.12024 0.35979,-0.1129 0.36192,-0.10523 0.36486,-0.0982 0.36608,-0.0899 0.36737,-0.0816 0.37001,-0.0754 0.37039,-0.0663 0.37248,-0.0586 0.3735,-0.0512 0.37449,-0.0434 0.3755,-0.0359 0.37558,-0.0278 0.37654,-0.0197 0.37745,-0.0122 0.37655,-0.004 0,0 -44.41151,-76.92296 0,0 -0.1918,0.32403 -0.19925,0.32087 -0.2055,0.3161 -0.21195,0.31136 -0.21882,0.30722 -0.22482,0.30262 -0.23101,0.29787 -0.23779,0.29262 -0.24265,0.28771 -0.25031,0.28269 -0.25457,0.27713 -0.26084,0.27211 -0.26722,0.26711 -0.27211,0.26079 -0.27745,0.25535 -0.28248,0.24887 -0.28814,0.24305 -0.29381,0.2373 -0.29747,0.23071 -0.30319,0.22491 -0.30683,0.21844 -0.31161,0.21218 -0.31583,0.20499 -0.0461,0.0302 -0.038,-0.0389 -2.50516,-2.50499 -2.55751,-2.45189 -2.60742,-2.39818 -2.65742,-2.34274 -2.70591,-2.2867 -2.75352,-2.22929 -2.79884,-2.17166 -2.84413,-2.1122 -2.888,-2.05213 -2.93019,-1.99131 -2.97083,-1.92958 -3.01081,-1.86693 -3.00669,-1.7777 -4.99974,8.66011 2.8262,1.67118 2.83277,1.75656 2.79531,1.8156 2.75713,1.87342 2.7165,1.93116 2.67622,1.98729 2.63423,2.04269 2.59,2.09795 2.54592,2.15152 2.50016,2.20443 2.45381,2.25617 2.40589,2.30702 2.35723,2.35686 2.30697,2.40584 2.25608,2.45366 2.20448,2.50026 2.15127,2.54605 2.09827,2.59019 2.0426,2.63397 1.98723,2.67611 1.9312,2.71691 1.87344,2.75694 1.81503,2.79575 1.75674,2.83276 1.69687,2.86903 1.63626,2.90409 1.57485,2.93773 1.51365,2.96973 1.45085,3.00092 1.38731,3.03093 1.32387,3.05908 1.25978,3.08594 1.19406,3.11228 1.12931,3.13608 1.06303,3.15924 0.99692,3.18066 0.93003,3.20081 0.86247,3.21985 0.79501,3.23705 0.727,3.25315 0.659,3.26747 0.59031,3.28054 0.52188,3.292 0.45186,3.30261 0.38296,3.31137 0.31419,3.31814 0.24388,3.32444 0.17469,3.32859 0.10479,3.33154 0.0343,3.33346 -0.0351,3.33319 -0.10427,3.33139 -0.17409,3.32845 -0.24448,3.32454 -0.31382,3.31851 -0.38274,3.31104 -0.45236,3.30245 -0.52179,3.29218 -0.58981,3.28042 -0.65964,3.26754 -0.72677,3.25325 -0.79492,3.23716 -0.86271,3.2197 -0.93016,3.20091 -0.99719,3.18079 -1.06264,3.15955 -1.12941,3.13582 -1.19422,3.11203 -1.25943,3.08619 -1.32409,3.05885 -1.38745,3.0308 -1.45055,3.00136 -1.51345,2.96959 -1.57539,2.93718 -1.61149,2.86103 z"
       id="path3381" />
    <path
       sodipodi:nodetypes="ccccccccccccccccccccccccccccccccccccccccccccccccccccccccccccccccccccccccccccccccccccccccccccccccccccccccccccccccccccccccccccccccccccccccccccccccccccccccc"
       style="fill:#d3d3d3;stroke:#000000;stroke-width:0.5"
       inkscape:connector-curvature="0"
       d="m 219.86632,837.52373 -1.53065,-3.19497 -1.5971,-3.16233 -1.6637,-3.12775 -1.72792,-3.09269 -1.79324,-3.05539 -1.85616,-3.01752 -1.91929,-2.9779 -1.98088,-2.93708 -2.04178,-2.89504 -2.10205,-2.85158 -2.16175,-2.80683 -2.21982,-2.7609 -2.27731,-2.71384 -2.3342,-2.6654 -2.3884,-2.61632 -2.44312,-2.56543 -2.4963,-2.51385 -2.54878,-2.4608 -2.59891,-2.40734 -2.64921,-2.35209 -2.69811,-2.29595 -2.74554,-2.23916 -2.79135,-2.18116 -2.83664,-2.12226 -2.84033,-2.03299 -5.73554,8.19149 2.66975,1.91117 2.66899,1.99674 2.62641,2.0523 2.58335,2.10658 2.53789,2.16064 2.4928,2.21297 2.4462,2.2645 2.39733,2.31571 2.34863,2.36521 2.29853,2.41391 2.24786,2.46144 2.19568,2.50793 2.14288,2.55331 2.08851,2.59772 2.03365,2.64098 1.97822,2.68288 1.92107,2.72389 1.86451,2.76324 1.80537,2.80194 1.74642,2.83911 1.68709,2.87488 1.62608,2.90967 1.56447,2.94323 1.5032,2.97513 1.44033,3.00604 1.37693,3.03562 1.31282,3.06382 1.24907,3.09039 1.18381,3.11592 1.11785,3.14027 1.0523,3.16284 0.98608,3.18395 0.91824,3.20447 0.85169,3.2226 0.78365,3.23985 0.7159,3.25546 0.64751,3.2697 0.57861,3.28275 0.50981,3.29405 0.44073,3.30414 0.37171,3.31243 0.30217,3.31952 0.23299,3.32495 0.16222,3.32945 0.093,3.33211 0.0238,3.33292 -0.0468,3.33305 -0.11605,3.33117 -0.18597,3.32801 -0.25635,3.32371 -0.32548,3.31746 -0.39423,3.30961 -0.46353,3.30063 -0.53332,3.29063 -0.60185,3.2785 -0.66985,3.26508 -0.73855,3.25043 -0.80677,3.23421 -0.87343,3.21643 -0.94192,3.19769 -1.00749,3.17756 -1.07403,3.15552 -1.14007,3.1323 -1.20558,3.10766 -1.27067,3.08168 -1.33386,3.05501 -1.39842,3.02542 -1.46091,2.99611 -1.52358,2.96469 -1.58563,2.93179 -1.64642,2.89829 -1.70664,2.86358 -1.76652,2.82635 -1.82534,2.78877 -1.85471,2.70968 8.19141,5.7355 1.97323,-2.8819 1.93988,-2.9646 1.87752,-3.00389 1.8137,-3.04364 1.75007,-3.0802 1.68511,-3.11611 1.61923,-3.15048 1.55263,-3.18458 1.48592,-3.21639 1.41923,-3.24584 1.35024,-3.27551 1.2812,-3.30284 1.21161,-3.32901 1.1416,-3.35373 1.07116,-3.37707 0.9993,-3.39869 0.92916,-3.41899 0.85761,-3.43749 0.78465,-3.4543 0.71212,-3.47027 0.63929,-3.48444 0.56704,-3.49743 0.49267,-3.50801 0.41958,-3.51788 0.34633,-3.52601 0.27169,-3.53226 0.19769,-3.53713 0.12331,-3.54032 0.0495,-3.54246 -0.0245,-3.54271 -0.0989,-3.54134 -0.17359,-3.53824 -0.24678,-3.53425 -0.32111,-3.52812 -0.39484,-3.52062 -0.469,-3.51141 -0.54138,-3.5013 -0.61504,-3.48888 -0.68816,-3.47524 -0.76057,-3.46012 -0.8333,-3.44327 -0.90529,-3.42496 -0.9767,-3.40545 -1.04742,-3.38445 -1.11845,-3.36146 -1.18788,-3.33768 -1.25844,-3.31164 -1.32661,-3.28495 -1.39583,-3.2561 z"
       id="path3391" />
    <path
       id="path3393"
       d="m 55.500239,933.10504 1.530678,3.19497 1.597103,3.16231 1.663663,3.12777 1.727973,3.09268 1.793257,3.05541 1.856087,3.01758 1.919283,2.97782 1.980927,2.93707 2.041816,2.89511 2.102075,2.85143 2.161691,2.80692 2.219731,2.76109 2.277407,2.71361 2.334151,2.66544 2.388465,2.61633 2.443084,2.56543 2.496313,2.51385 2.548803,2.46072 2.59888,2.40738 2.64921,2.352 2.698464,2.29573 2.74515,2.23952 2.79135,2.18117 2.83666,2.12219 2.84046,2.03283 5.73554,-8.19145 -2.66999,-1.91084 -2.66888,-1.99691 -2.62646,-2.0522 -2.58331,-2.1067 -2.53789,-2.16057 -2.49283,-2.2129 -2.446184,-2.26457 -2.39734,-2.31569 -2.34859,-2.36525 -2.298558,-2.41396 -2.247823,-2.46146 -2.195694,-2.50794 -2.142877,-2.55322 -2.08851,-2.59776 -2.033691,-2.64095 -1.978171,-2.6829 -1.921098,-2.7239 -1.864483,-2.7632 -1.80535,-2.80196 -1.746438,-2.83912 -1.687069,-2.87489 -1.626061,-2.90966 -1.564496,-2.94327 -1.503192,-2.97512 -1.440329,-3.00603 -1.376925,-3.03561 -1.312822,-3.06381 -1.249082,-3.09037 -1.183785,-3.11594 -1.117865,-3.14032 -1.052307,-3.16278 -0.986018,-3.18401 -0.91825,-3.20443 -0.851707,-3.22262 -0.783647,-3.23984 -0.715871,-3.25549 -0.647494,-3.26969 -0.578576,-3.28276 -0.509869,-3.29405 -0.440694,-3.30413 -0.371729,-3.31243 -0.302203,-3.31951 -0.233007,-3.32496 -0.162265,-3.32945 -0.09294,-3.3321 -0.02378,-3.33292 0.0468,-3.33306 0.116051,-3.33115 0.185938,-3.32802 0.256386,-3.32371 0.325474,-3.31746 0.394217,-3.30958 0.463534,-3.30065 0.533303,-3.29062 0.60187,-3.2785 0.669833,-3.2651 0.738537,-3.25042 0.806762,-3.2342 0.873447,-3.21648 0.941915,-3.19767 1.007533,-3.17752 1.074024,-3.15552 1.140047,-3.13231 1.205597,-3.10768 1.27065,-3.0817 1.333857,-3.05498 1.39845,-3.02543 1.460866,-2.9961 1.523657,-2.9647 1.58565,-2.93178 1.646401,-2.89832 1.706629,-2.86354 1.766519,-2.82636 1.825361,-2.78872 1.854737,-2.70968 -8.191426,-5.73551 -1.973244,2.88188 -1.939842,2.96459 -1.877509,3.0039 -1.813724,3.04368 -1.750048,3.08017 -1.685147,3.11614 -1.619261,3.15049 -1.552618,3.18456 -1.485894,3.21635 -1.419241,3.24587 -1.350224,3.27551 -1.28123,3.30289 -1.211627,3.32897 -1.14156,3.35371 -1.071171,3.37705 -0.999287,3.39874 -0.929153,3.41896 -0.857608,3.43753 -0.784664,3.45424 -0.712161,3.4703 -0.639252,3.48446 -0.567013,3.49742 -0.492676,3.50799 -0.419549,3.51791 -0.346351,3.52602 -0.271667,3.53222 -0.197668,3.53715 -0.123337,3.54033 -0.04952,3.54242 0.02451,3.54276 0.09891,3.54133 0.173562,3.53823 0.246781,3.53424 0.321142,3.52815 0.394862,3.52057 0.468894,3.51143 0.541472,3.50131 0.615101,3.48892 0.688139,3.4752 0.760586,3.4601 0.833273,3.44326 0.905335,3.42503 0.976649,3.40539 1.047475,3.38444 1.118421,3.36145 1.187906,3.3377 1.25844,3.31166 1.326577,3.28494 1.39586,3.25611 z"
       inkscape:connector-curvature="0"
       style="fill:#d3d3d3;stroke:#000000;stroke-width:0.5"
       sodipodi:nodetypes="ccccccccccccccccccccccccccccccccccccccccccccccccccccccccccccccccccccccccccccccccccccccccccccccccccccccccccccccccccccccccccccccccccccccccccccccccccccccccc" />
    <path
       sodipodi:nodetypes="ccccccccccccccccccccccccccccccccccccccccccccccccccccccccccccccccccccccccccccccccccccccccccccccccccccccccccccccccccccccccccccccccccccccccccccccccccccccccc"
       style="fill:#d3d3d3;stroke:#000000;stroke-width:0.5"
       inkscape:connector-curvature="0"
       d="m 71.157603,929.56951 1.530678,3.19497 1.597103,3.16231 1.663663,3.12777 1.727973,3.09268 1.793257,3.05541 1.856087,3.01758 1.919283,2.97782 1.980927,2.93707 2.041816,2.89511 2.102075,2.85143 2.161691,2.80692 2.219731,2.76109 2.277407,2.71361 2.334151,2.66544 2.388465,2.61633 2.44308,2.56543 2.49632,2.51385 2.5488,2.46072 2.59888,2.40738 2.64921,2.352 2.69846,2.29573 2.74515,2.23952 2.79135,2.18117 2.83666,2.12219 2.84046,2.03284 5.73554,-8.19146 -2.66999,-1.91084 -2.66888,-1.99691 -2.62646,-2.0522 -2.58331,-2.1067 -2.53789,-2.16057 -2.49283,-2.2129 -2.44618,-2.26457 -2.39734,-2.31569 -2.34859,-2.36525 -2.29856,-2.41396 -2.24782,-2.46146 -2.19569,-2.50794 -2.14288,-2.55322 -2.088512,-2.59776 -2.033691,-2.64095 -1.978171,-2.6829 -1.921098,-2.7239 -1.864483,-2.7632 -1.80535,-2.80196 -1.746438,-2.83912 -1.687069,-2.87489 -1.626061,-2.90966 -1.564496,-2.94327 -1.503192,-2.97512 -1.440329,-3.00603 -1.376925,-3.03561 -1.312822,-3.06381 -1.249082,-3.09037 -1.183785,-3.11594 -1.117865,-3.14032 -1.052307,-3.16278 -0.986018,-3.18401 -0.91825,-3.20443 -0.851707,-3.22262 -0.783647,-3.23984 -0.715871,-3.25549 -0.647494,-3.26969 -0.578576,-3.28276 -0.509869,-3.29405 -0.440694,-3.30413 -0.371729,-3.31243 -0.302203,-3.31951 -0.233007,-3.32496 -0.162265,-3.32945 -0.09294,-3.3321 -0.02378,-3.33292 0.0468,-3.33306 0.116051,-3.33115 0.185938,-3.32802 0.256386,-3.32371 0.325474,-3.31746 0.394217,-3.30958 0.463534,-3.30065 0.533303,-3.29062 0.60187,-3.2785 0.669833,-3.2651 0.738537,-3.25042 0.806762,-3.2342 0.873447,-3.21648 0.941915,-3.19767 1.007533,-3.17752 1.074024,-3.15552 1.140047,-3.13231 1.205597,-3.10768 1.27065,-3.0817 1.333857,-3.05498 1.39845,-3.02543 1.460866,-2.9961 1.523657,-2.9647 1.58565,-2.93178 1.646401,-2.89832 1.706629,-2.86354 1.766519,-2.82636 1.825361,-2.78872 1.854737,-2.70968 -8.191426,-5.73551 -1.973244,2.88188 -1.939842,2.96459 -1.877509,3.0039 -1.813724,3.04368 -1.750048,3.08017 -1.685147,3.11614 -1.619261,3.15049 -1.552618,3.18456 -1.485894,3.21635 -1.419241,3.24587 -1.350224,3.27551 -1.28123,3.30289 -1.211627,3.32897 -1.14156,3.35371 -1.071171,3.37705 -0.999287,3.39874 -0.929153,3.41896 -0.857608,3.43753 -0.784664,3.45424 -0.712161,3.4703 -0.639252,3.48446 -0.567013,3.49742 -0.492676,3.50799 -0.419549,3.51791 -0.346351,3.52602 -0.271667,3.53222 -0.197668,3.53715 -0.123337,3.54033 -0.04952,3.54242 0.02451,3.54276 0.09891,3.54133 0.173562,3.53823 0.246781,3.53424 0.321142,3.52815 0.394862,3.52057 0.468894,3.51143 0.541472,3.50131 0.615101,3.48892 0.688139,3.4752 0.760586,3.4601 0.833273,3.44326 0.905335,3.42503 0.976649,3.40539 1.047475,3.38444 1.118421,3.36145 1.187906,3.3377 1.25844,3.31166 1.326577,3.28494 1.39586,3.25611 z"
       id="path3403" />
    <path
       id="path3405"
       d="m 86.814967,926.03398 1.530678,3.19497 1.597103,3.16231 1.663663,3.12777 1.727973,3.09268 1.793257,3.05541 1.856087,3.01758 1.919283,2.97782 1.980929,2.93707 2.04181,2.89511 2.10208,2.85143 2.16169,2.80692 2.21973,2.76109 2.27741,2.71361 2.33415,2.66544 2.38846,2.61633 2.44308,2.56543 2.49632,2.51385 2.5488,2.46072 2.59888,2.40738 2.64921,2.352 2.69846,2.29573 2.74515,2.23952 2.79135,2.18117 2.83666,2.12219 2.84046,2.03284 5.73554,-8.19146 -2.66999,-1.91084 -2.66888,-1.99691 -2.62646,-2.0522 -2.58331,-2.1067 -2.53789,-2.16057 -2.49283,-2.2129 -2.44618,-2.26457 -2.39734,-2.31569 -2.34859,-2.36525 -2.29856,-2.41396 -2.24782,-2.46146 -2.19569,-2.50794 -2.14288,-2.55322 -2.08851,-2.59776 -2.03369,-2.64095 -1.97817,-2.6829 -1.9211,-2.7239 -1.86448,-2.7632 -1.80535,-2.80196 -1.74644,-2.83912 -1.68707,-2.87489 -1.62606,-2.90966 -1.564495,-2.94327 -1.503192,-2.97512 -1.440329,-3.00603 -1.376925,-3.03561 -1.312822,-3.06381 -1.249082,-3.09037 -1.183785,-3.11594 -1.117865,-3.14032 -1.052307,-3.16278 -0.986018,-3.18401 -0.91825,-3.20443 -0.851707,-3.22262 -0.783647,-3.23984 -0.715871,-3.25549 -0.647494,-3.26969 -0.578576,-3.28276 -0.509869,-3.29405 -0.440694,-3.30413 -0.371729,-3.31243 -0.302203,-3.31951 -0.233007,-3.32496 -0.162265,-3.32945 -0.09294,-3.3321 -0.02378,-3.33292 0.0468,-3.33306 0.116051,-3.33115 0.185938,-3.32802 0.256386,-3.32371 0.325474,-3.31746 0.394217,-3.30958 0.463534,-3.30065 0.533303,-3.29062 0.60187,-3.2785 0.669833,-3.2651 0.738537,-3.25042 0.806762,-3.2342 0.873447,-3.21648 0.941915,-3.19767 1.007533,-3.17752 1.074024,-3.15552 1.140047,-3.13231 1.205597,-3.10768 1.27065,-3.0817 1.333857,-3.05498 1.39845,-3.02543 1.460866,-2.9961 1.523657,-2.9647 1.585654,-2.93178 1.6464,-2.89832 1.70663,-2.86354 1.76652,-2.82636 1.82536,-2.78872 1.85473,-2.70968 -8.19142,-5.73551 -1.973247,2.88188 -1.939842,2.96459 -1.877509,3.0039 -1.813724,3.04368 -1.750048,3.08017 -1.685147,3.11614 -1.619261,3.15049 -1.552618,3.18456 -1.485894,3.21635 -1.419241,3.24587 -1.350224,3.27551 -1.28123,3.30289 -1.211627,3.32897 -1.14156,3.35371 -1.071171,3.37705 -0.999287,3.39874 -0.929153,3.41896 -0.857608,3.43753 -0.784664,3.45424 -0.712161,3.4703 -0.639252,3.48446 -0.567013,3.49742 -0.492676,3.50799 -0.419549,3.51791 -0.346351,3.52602 -0.271667,3.53222 -0.197668,3.53715 -0.123337,3.54033 -0.04952,3.54242 0.02451,3.54276 0.09891,3.54133 0.173562,3.53823 0.246781,3.53424 0.321142,3.52815 0.394862,3.52057 0.468894,3.51143 0.541472,3.50131 0.615101,3.48892 0.688139,3.4752 0.760586,3.4601 0.833273,3.44326 0.905335,3.42503 0.976649,3.40539 1.047475,3.38444 1.118421,3.36145 1.187906,3.3377 1.25844,3.31166 1.326577,3.28494 1.39586,3.25611 z"
       inkscape:connector-curvature="0"
       style="fill:#d3d3d3;stroke:#000000;stroke-width:0.5"
       sodipodi:nodetypes="ccccccccccccccccccccccccccccccccccccccccccccccccccccccccccccccccccccccccccccccccccccccccccccccccccccccccccccccccccccccccccccccccccccccccccccccccccccccccc" />
    <path
       sodipodi:nodetypes="ccccccccccccccccccccccccccccccccccccccccccccccccccccccccccccccccccccccccccccccccccccccccccccccccccccccccccccccccccccccccccccccccccccccccccccccccccccccccc"
       style="fill:#d3d3d3;stroke:#000000;stroke-width:0.5"
       inkscape:connector-curvature="0"
       d="m 101.96726,922.75098 1.53068,3.19497 1.5971,3.16231 1.66366,3.12777 1.72797,3.09268 1.79326,3.05541 1.85609,3.01758 1.91928,2.97782 1.98093,2.93707 2.04181,2.89511 2.10208,2.85143 2.16169,2.80692 2.21973,2.76109 2.27741,2.71361 2.33415,2.66544 2.38846,2.61633 2.44308,2.56543 2.49632,2.51385 2.5488,2.46072 2.59888,2.40738 2.64921,2.352 2.69846,2.29573 2.74515,2.23952 2.79135,2.18117 2.83666,2.12219 2.84046,2.03284 5.73554,-8.19146 -2.66999,-1.91084 -2.66888,-1.99691 -2.62646,-2.0522 -2.58331,-2.1067 -2.53789,-2.16057 -2.49283,-2.2129 -2.44618,-2.26457 -2.39734,-2.31569 -2.34859,-2.36525 -2.29856,-2.41396 -2.24782,-2.46146 -2.19569,-2.50794 -2.14288,-2.55322 -2.08851,-2.59776 -2.03369,-2.64095 -1.97817,-2.6829 -1.9211,-2.7239 -1.86448,-2.7632 -1.80535,-2.80196 -1.74644,-2.83912 -1.68707,-2.87489 -1.62606,-2.90966 -1.56449,-2.94327 -1.5032,-2.97512 -1.44033,-3.00603 -1.37692,-3.03561 -1.31282,-3.06381 -1.24908,-3.09037 -1.18379,-3.11594 -1.11786,-3.14032 -1.05231,-3.16278 -0.98602,-3.18401 -0.91825,-3.20443 -0.85171,-3.22262 -0.78364,-3.23984 -0.715873,-3.25549 -0.647498,-3.26969 -0.578576,-3.28276 -0.509869,-3.29405 -0.440694,-3.30413 -0.371729,-3.31243 -0.302203,-3.31951 -0.233007,-3.32496 -0.162265,-3.32945 -0.09294,-3.3321 -0.02378,-3.33292 0.0468,-3.33306 0.116051,-3.33115 0.185938,-3.32802 0.256386,-3.32371 0.325474,-3.31746 0.394217,-3.30958 0.463534,-3.30065 0.533303,-3.29062 0.601868,-3.2785 0.66983,-3.2651 0.738543,-3.25042 0.80676,-3.2342 0.87345,-3.21648 0.94192,-3.19767 1.00753,-3.17752 1.07402,-3.15552 1.14005,-3.13231 1.2056,-3.10768 1.27065,-3.0817 1.33385,-3.05498 1.39845,-3.02543 1.46087,-2.9961 1.52366,-2.9647 1.58565,-2.93178 1.6464,-2.89832 1.70663,-2.86354 1.76652,-2.82636 1.82536,-2.78872 1.85473,-2.70968 -8.19142,-5.73551 -1.97325,2.88188 -1.93984,2.96459 -1.87751,3.0039 -1.81372,3.04368 -1.75005,3.08017 -1.68515,3.11614 -1.61926,3.15049 -1.55262,3.18456 -1.48589,3.21635 -1.419243,3.24587 -1.350224,3.27551 -1.28123,3.30289 -1.211627,3.32897 -1.14156,3.35371 -1.071171,3.37705 -0.999287,3.39874 -0.929153,3.41896 -0.857608,3.43753 -0.784664,3.45424 -0.712161,3.4703 -0.639252,3.48446 -0.567013,3.49742 -0.492676,3.50799 -0.419549,3.51791 -0.346351,3.52602 -0.271667,3.53222 -0.197668,3.53715 -0.123337,3.54033 -0.04952,3.54242 0.02451,3.54276 0.09891,3.54133 0.173562,3.53823 0.246781,3.53424 0.321142,3.52815 0.394862,3.52057 0.468894,3.51143 0.541472,3.50131 0.615101,3.48892 0.688139,3.4752 0.760586,3.4601 0.833273,3.44326 0.905335,3.42503 0.976649,3.40539 1.047475,3.38444 1.118421,3.36145 1.187906,3.3377 1.25844,3.31166 1.32658,3.28494 1.395863,3.25611 z"
       id="path3407" />
    <path
       id="path3409"
       d="m 117.37208,918.96291 1.53068,3.19497 1.5971,3.16231 1.66366,3.12777 1.72797,3.09268 1.79326,3.05541 1.85609,3.01758 1.91928,2.97782 1.98093,2.93707 2.04181,2.89511 2.10208,2.85143 2.16169,2.80692 2.21973,2.76109 2.27741,2.71361 2.33415,2.66544 2.38846,2.61633 2.44308,2.56543 2.49632,2.51385 2.5488,2.46072 2.59888,2.40738 2.64921,2.352 2.69846,2.29573 2.74515,2.23952 2.79135,2.18117 2.83666,2.12219 2.84046,2.03284 5.73554,-8.19146 -2.66999,-1.91084 -2.66888,-1.99691 -2.62646,-2.0522 -2.58331,-2.1067 -2.53789,-2.16057 -2.49283,-2.2129 -2.44618,-2.26457 -2.39734,-2.31569 -2.34859,-2.36525 -2.29856,-2.41396 -2.24782,-2.46146 -2.19569,-2.50794 -2.14288,-2.55322 -2.08851,-2.59776 -2.03369,-2.64095 -1.97817,-2.6829 -1.9211,-2.7239 -1.86448,-2.7632 -1.80535,-2.80196 -1.74644,-2.83912 -1.68707,-2.87489 -1.62606,-2.90966 -1.56449,-2.94327 -1.5032,-2.97512 -1.44033,-3.00603 -1.37692,-3.03561 -1.31282,-3.06381 -1.24908,-3.09037 -1.18379,-3.11594 -1.11786,-3.14032 -1.05231,-3.16278 -0.98602,-3.18401 -0.91825,-3.20443 -0.85171,-3.22262 -0.78364,-3.23984 -0.71587,-3.25549 -0.6475,-3.26969 -0.57857,-3.28276 -0.50987,-3.29405 -0.4407,-3.30413 -0.37173,-3.31243 -0.3022,-3.31951 -0.23301,-3.32496 -0.16226,-3.32945 -0.0929,-3.3321 -0.0238,-3.33292 0.0468,-3.33306 0.11605,-3.33115 0.18594,-3.32802 0.25638,-3.32371 0.32548,-3.31746 0.39422,-3.30958 0.46353,-3.30065 0.5333,-3.29062 0.60187,-3.2785 0.66983,-3.2651 0.73854,-3.25042 0.80676,-3.2342 0.87345,-3.21648 0.94192,-3.19767 1.00753,-3.17752 1.07402,-3.15552 1.14005,-3.13231 1.2056,-3.10768 1.27065,-3.0817 1.33385,-3.05498 1.39845,-3.02543 1.46087,-2.9961 1.52366,-2.9647 1.58565,-2.93178 1.6464,-2.89832 1.70663,-2.86354 1.76652,-2.82636 1.82536,-2.78872 1.85473,-2.70968 -8.19142,-5.73551 -1.97325,2.88188 -1.93984,2.96459 -1.87751,3.0039 -1.81372,3.04368 -1.75005,3.08017 -1.68515,3.11614 -1.61926,3.15049 -1.55262,3.18456 -1.48589,3.21635 -1.41924,3.24587 -1.35022,3.27551 -1.28123,3.30289 -1.21163,3.32897 -1.14156,3.35371 -1.07117,3.37705 -0.99929,3.39874 -0.92915,3.41896 -0.85761,3.43753 -0.78466,3.45424 -0.71216,3.4703 -0.63926,3.48446 -0.56701,3.49742 -0.49268,3.50799 -0.41954,3.51791 -0.34636,3.52602 -0.27166,3.53222 -0.19767,3.53715 -0.12334,3.54033 -0.0495,3.54242 0.0245,3.54276 0.0989,3.54133 0.17356,3.53823 0.24679,3.53424 0.32114,3.52815 0.39486,3.52057 0.46889,3.51143 0.54148,3.50131 0.6151,3.48892 0.68814,3.4752 0.76058,3.4601 0.83327,3.44326 0.90534,3.42503 0.97665,3.40539 1.04747,3.38444 1.11842,3.36145 1.18791,3.3377 1.25844,3.31166 1.32658,3.28494 1.39586,3.25611 z"
       inkscape:connector-curvature="0"
       style="fill:#d3d3d3;stroke:#000000;stroke-width:0.5"
       sodipodi:nodetypes="ccccccccccccccccccccccccccccccccccccccccccccccccccccccccccccccccccccccccccccccccccccccccccccccccccccccccccccccccccccccccccccccccccccccccccccccccccccccccc" />
    <path
       sodipodi:nodetypes="ccccccccccccccccccccccccccccccccccccccccccccccccccccccccccccccccccccccccccccccccccccccccccccccccccccccccccccccccccccccccccccccccccccccccccccccccccccccccc"
       style="fill:#d3d3d3;stroke:#000000;stroke-width:0.5"
       inkscape:connector-curvature="0"
       d="m 132.27183,916.43754 1.53068,3.19497 1.5971,3.16231 1.66366,3.12777 1.72797,3.09268 1.79326,3.05541 1.85609,3.01758 1.91928,2.97782 1.98093,2.93707 2.04181,2.89511 2.10208,2.85143 2.16169,2.80692 2.21973,2.76109 2.27741,2.71361 2.33415,2.66544 2.38846,2.61633 2.44308,2.56543 2.49632,2.51385 2.5488,2.46072 2.59888,2.40738 2.64921,2.352 2.69846,2.29573 2.74515,2.23952 2.79135,2.18117 2.83666,2.12219 2.84046,2.03284 5.73554,-8.19146 -2.66999,-1.91084 -2.66888,-1.99691 -2.62646,-2.0522 -2.58331,-2.1067 -2.53789,-2.16057 -2.49283,-2.2129 -2.44618,-2.26457 -2.39734,-2.31569 -2.34859,-2.36525 -2.29856,-2.41396 -2.24782,-2.46146 -2.19569,-2.50794 -2.14288,-2.55322 -2.08851,-2.59776 -2.03369,-2.64095 -1.97817,-2.6829 -1.9211,-2.7239 -1.86448,-2.7632 -1.80535,-2.80196 -1.74644,-2.83912 -1.68707,-2.87489 -1.62606,-2.90966 -1.56449,-2.94327 -1.5032,-2.97512 -1.44033,-3.00603 -1.37692,-3.03561 -1.31282,-3.06381 -1.24908,-3.09037 -1.18379,-3.11594 -1.11786,-3.14032 -1.05231,-3.16278 -0.98602,-3.18401 -0.91825,-3.20443 -0.85171,-3.22262 -0.78364,-3.23984 -0.71587,-3.25549 -0.6475,-3.26969 -0.57857,-3.28276 -0.50987,-3.29405 -0.4407,-3.30413 -0.37173,-3.31243 -0.3022,-3.31951 -0.23301,-3.32496 -0.16226,-3.32945 -0.0929,-3.3321 -0.0238,-3.33292 0.0468,-3.33306 0.11605,-3.33115 0.18594,-3.32802 0.25638,-3.32371 0.32548,-3.31746 0.39422,-3.30958 0.46353,-3.30065 0.5333,-3.29062 0.60187,-3.2785 0.66983,-3.2651 0.73854,-3.25042 0.80676,-3.2342 0.87345,-3.21648 0.94192,-3.19767 1.00753,-3.17752 1.07402,-3.15552 1.14005,-3.13231 1.2056,-3.10768 1.27065,-3.0817 1.33385,-3.05498 1.39845,-3.02543 1.46087,-2.9961 1.52366,-2.9647 1.58565,-2.93178 1.6464,-2.89832 1.70663,-2.86354 1.76652,-2.82636 1.82536,-2.78872 1.85473,-2.70968 -8.19142,-5.73551 -1.97325,2.88188 -1.93984,2.96459 -1.87751,3.0039 -1.81372,3.04368 -1.75005,3.08017 -1.68515,3.11614 -1.61926,3.15049 -1.55262,3.18456 -1.48589,3.21635 -1.41924,3.24587 -1.35022,3.27551 -1.28123,3.30289 -1.21163,3.32897 -1.14156,3.35371 -1.07117,3.37705 -0.99929,3.39874 -0.92915,3.41896 -0.85761,3.43753 -0.78466,3.45424 -0.71216,3.4703 -0.63926,3.48446 -0.56701,3.49742 -0.49268,3.50799 -0.41954,3.51791 -0.34636,3.52602 -0.27166,3.53222 -0.19767,3.53715 -0.12334,3.54033 -0.0495,3.54242 0.0245,3.54276 0.0989,3.54133 0.17356,3.53823 0.24679,3.53424 0.32114,3.52815 0.39486,3.52057 0.46889,3.51143 0.54148,3.50131 0.6151,3.48892 0.68814,3.4752 0.76058,3.4601 0.83327,3.44326 0.90534,3.42503 0.97665,3.40539 1.04747,3.38444 1.11842,3.36145 1.18791,3.3377 1.25844,3.31166 1.32658,3.28494 1.39586,3.25611 z"
       id="path3411" />
    <path
       id="path3413"
       d="m 148.93935,915.42739 1.53068,3.19497 1.5971,3.16231 1.66366,3.12777 1.72797,3.09268 1.79326,3.05541 1.85609,3.01758 1.91928,2.97782 1.98093,2.93707 2.04181,2.89511 2.10208,2.85143 2.16169,2.80692 2.21973,2.76109 2.27741,2.71361 2.33415,2.66544 2.38846,2.61633 2.44308,2.56543 2.49632,2.51385 2.5488,2.46072 2.59888,2.40738 2.64921,2.352 2.69846,2.29573 2.74515,2.23952 2.79135,2.18117 2.83666,2.12219 2.84046,2.03284 5.73554,-8.19146 -2.66999,-1.91084 -2.66888,-1.99691 -2.62646,-2.0522 -2.58331,-2.1067 -2.53789,-2.16057 -2.49283,-2.2129 -2.44618,-2.26457 -2.39734,-2.31569 -2.34859,-2.36525 -2.29856,-2.41396 -2.24782,-2.46146 -2.19569,-2.50794 -2.14288,-2.55322 -2.08851,-2.59776 -2.03369,-2.64095 -1.97817,-2.6829 -1.9211,-2.7239 -1.86448,-2.7632 -1.80535,-2.80196 -1.74644,-2.83912 -1.68707,-2.87489 -1.62606,-2.90966 -1.56449,-2.94327 -1.5032,-2.97512 -1.44033,-3.00603 -1.37692,-3.03561 -1.31282,-3.06381 -1.24908,-3.09037 -1.18379,-3.11594 -1.11786,-3.14032 -1.05231,-3.16278 -0.98602,-3.18401 -0.91825,-3.20443 -0.85171,-3.22262 -0.78364,-3.23984 -0.71587,-3.25549 -0.6475,-3.26969 -0.57857,-3.28276 -0.50987,-3.29405 -0.4407,-3.30413 -0.37173,-3.31243 -0.3022,-3.31951 -0.23301,-3.32496 -0.16226,-3.32945 -0.0929,-3.3321 -0.0238,-3.33292 0.0468,-3.33306 0.11605,-3.33115 0.18594,-3.32802 0.25638,-3.32371 0.32548,-3.31746 0.39422,-3.30958 0.46353,-3.30065 0.5333,-3.29062 0.60187,-3.2785 0.66983,-3.2651 0.73854,-3.25042 0.80676,-3.2342 0.87345,-3.21648 0.94192,-3.19767 1.00753,-3.17752 1.07402,-3.15552 1.14005,-3.13231 1.2056,-3.10768 1.27065,-3.0817 1.33385,-3.05498 1.39845,-3.02543 1.46087,-2.9961 1.52366,-2.9647 1.58565,-2.93178 1.6464,-2.89832 1.70663,-2.86354 1.76652,-2.82636 1.82536,-2.78872 1.85473,-2.70968 -8.19142,-5.73551 -1.97325,2.88188 -1.93984,2.96459 -1.87751,3.0039 -1.81372,3.04368 -1.75005,3.08017 -1.68515,3.11614 -1.61926,3.15049 -1.55262,3.18456 -1.48589,3.21635 -1.41924,3.24587 -1.35022,3.27551 -1.28123,3.30289 -1.21163,3.32897 -1.14156,3.35371 -1.07117,3.37705 -0.99929,3.39874 -0.92915,3.41896 -0.85761,3.43753 -0.78466,3.45424 -0.71216,3.4703 -0.63926,3.48446 -0.56701,3.49742 -0.49268,3.50799 -0.41954,3.51791 -0.34636,3.52602 -0.27166,3.53222 -0.19767,3.53715 -0.12334,3.54033 -0.0495,3.54242 0.0245,3.54276 0.0989,3.54133 0.17356,3.53823 0.24679,3.53424 0.32114,3.52815 0.39486,3.52057 0.46889,3.51143 0.54148,3.50131 0.6151,3.48892 0.68814,3.4752 0.76058,3.4601 0.83327,3.44326 0.90534,3.42503 0.97665,3.40539 1.04747,3.38444 1.11842,3.36145 1.18791,3.3377 1.25844,3.31166 1.32658,3.28494 1.39586,3.25611 z"
       inkscape:connector-curvature="0"
       style="fill:#d3d3d3;stroke:#000000;stroke-width:0.5"
       sodipodi:nodetypes="ccccccccccccccccccccccccccccccccccccccccccccccccccccccccccccccccccccccccccccccccccccccccccccccccccccccccccccccccccccccccccccccccccccccccccccccccccccccccc" />
    <path
       id="path3415"
       d="m 287.43015,795.68306 -1.69578,-3.11048 -1.76041,-3.07441 -1.82511,-3.03639 -1.88741,-2.99803 -1.95068,-2.95735 -2.01155,-2.91624 -2.07251,-2.87337 -2.13188,-2.82937 -2.19049,-2.78424 -2.2484,-2.73765 -2.30569,-2.68984 -2.36128,-2.64095 -2.41623,-2.59094 -2.47049,-2.53957 -2.52206,-2.48774 -2.57402,-2.43405 -2.62445,-2.37976 -2.67408,-2.32403 -2.72133,-2.26803 -2.76868,-2.21021 -2.81458,-2.15159 -2.85897,-2.09241 -2.90168,-2.03208 -2.94382,-1.9709 -2.94283,-1.88155 -5.29897,8.48043 2.76611,1.76883 2.76983,1.85432 2.73022,1.91203 2.69007,1.96849 2.64748,2.02487 2.60521,2.07947 2.56136,2.13337 2.51523,2.18706 2.46919,2.23907 2.42173,2.29031 2.3736,2.34041 2.32392,2.38957 2.27358,2.43767 2.22159,2.48486 2.16909,2.53093 2.11592,2.57567 2.061,2.61961 2.00658,2.66187 1.94952,2.70361 1.89262,2.74383 1.83523,2.78264 1.77614,2.82058 1.71637,2.85731 1.65684,2.89238 1.59568,2.92656 1.53391,2.95939 1.47137,2.9909 1.4091,3.0208 1.34527,3.04967 1.28065,3.07748 1.2164,3.10344 1.15136,3.12797 1.0847,3.15202 1.01918,3.17361 0.95213,3.1944 0.8853,3.21354 0.81774,3.23133 0.74962,3.24797 0.68151,3.26285 0.61306,3.27653 0.54456,3.28846 0.47548,3.29914 0.40663,3.30821 0.3363,3.31638 0.26732,3.32269 0.19814,3.32711 0.12773,3.33093 0.0584,3.33267 -0.0115,3.33318 -0.082,3.33257 -0.15141,3.32995 -0.22048,3.32571 -0.29015,3.32037 -0.36037,3.31404 -0.42944,3.3055 -0.49806,3.29565 -0.56741,3.28462 -0.6364,3.27201 -0.7039,3.25773 -0.77327,3.24262 -0.83982,3.22592 -0.90741,3.2074 -0.97457,3.18769 -1.0413,3.16649 -1.10763,3.14396 -1.17214,3.12063 -1.23817,3.09446 -1.30211,3.06846 -1.36633,3.04038 -1.43002,3.01076 -1.49247,2.98049 -1.55444,2.94901 -1.61619,2.91487 -1.67688,2.8805 -1.71035,2.80306 8.48036,5.29893 1.81969,-2.98122 1.78208,-3.06206 1.71773,-3.09805 1.65193,-3.13445 1.58646,-3.16757 1.51971,-3.20001 1.45213,-3.23094 1.38383,-3.26139 1.31556,-3.28976 1.24741,-3.3157 1.17696,-3.34168 1.10658,-3.36538 1.03573,-3.38785 0.96451,-3.40888 0.89295,-3.42851 0.82007,-3.44633 0.74894,-3.46293 0.67653,-3.47765 0.60279,-3.49064 0.52953,-3.50278 0.45606,-3.51313 0.38321,-3.52232 0.3084,-3.52897 0.23489,-3.53503 0.16133,-3.53931 0.0865,-3.54162 0.0123,-3.54263 -0.0622,-3.54193 -0.13603,-3.54019 -0.20985,-3.53658 -0.28413,-3.5313 -0.35855,-3.52431 -0.43144,-3.51648 -0.50532,-3.50648 -0.57857,-3.49513 -0.65212,-3.48205 -0.72389,-3.46817 -0.79678,-3.45192 -0.8691,-3.43446 -0.94061,-3.41557 -1.01237,-3.39493 -1.0833,-3.3729 -1.15358,-3.34966 -1.22312,-3.325 -1.29284,-3.29831 -1.36093,-3.27094 -1.43005,-3.24123 -1.4967,-3.21103 -1.56434,-3.17858 z"
       inkscape:connector-curvature="0"
       style="fill:#d3d3d3;stroke:#000000;stroke-width:0.5"
       sodipodi:nodetypes="ccccccccccccccccccccccccccccccccccccccccccccccccccccccccccccccccccccccccccccccccccccccccccccccccccccccccccccccccccccccccccccccccccccccccccccccccccccccccc" />
  </g>
</svg>
